<svg width="70" height="70" viewBox="0 0 70 70" fill="none" xmlns="http://www.w3.org/2000/svg">
<g clip-path="url(#clip0)">
<path d="M64.1211 39.2273V33.5303C64.1211 17.5105 51.0881 4.47754 35.0684 4.47754C29.434 4.47754 23.9652 6.09971 19.2531 9.16877C18.7786 9.47789 18.6446 10.1129 18.9537 10.5876C19.2629 11.0622 19.8979 11.1962 20.3726 10.8871C24.7506 8.03551 29.8323 6.52832 35.0684 6.52832C49.9573 6.52832 62.0703 18.6413 62.0703 33.5303V38.1806C61.4121 37.9179 60.7266 37.7095 60.0195 37.5603V33.5303C60.0195 27.2297 57.6558 21.2103 53.3637 16.5806C52.9788 16.1651 52.3299 16.1407 51.9146 16.5257C51.4992 16.9107 51.4746 17.5596 51.8597 17.9748C52.7274 18.9107 53.509 19.9086 54.2006 20.9573C53.5084 22.0031 51.9853 22.8895 50.5254 22.8663C49.2614 22.8663 48.0483 22.3312 47.1972 21.398C44.075 17.9751 39.6293 16.0118 35 16.0118C30.3707 16.0118 25.925 17.975 22.8028 21.398C20.9506 23.4031 17.5947 23.3682 15.8717 21.0582C19.9611 14.7856 27.038 10.6302 35.0682 10.6302C39.8948 10.6302 44.5141 12.1205 48.4269 14.9405C48.8862 15.2718 49.5272 15.1677 49.8583 14.7081C50.1893 14.2487 50.0853 13.6078 49.6259 13.2766C45.3619 10.2035 40.3281 8.5791 35.0684 8.5791C21.242 8.56994 10.0769 19.9287 10.1172 33.5303V37.5324C9.41062 37.6731 8.72525 37.8734 8.06641 38.1274V33.5303C8.06641 26.0688 11.2097 18.8647 16.6905 13.7653C17.105 13.3794 17.1284 12.7307 16.7427 12.3159C16.357 11.9014 15.7083 11.878 15.2934 12.2637C12.3983 14.9574 10.1181 18.1459 8.51607 21.7405C6.85686 25.4633 6.01562 29.4299 6.01562 33.5303V39.1419C2.41008 41.3561 0 45.3358 0 49.8682C0 56.8038 5.64252 62.4463 12.5781 62.4463H14.1254C14.6562 64.2232 16.3048 65.5225 18.252 65.5225C20.6266 65.5225 22.5586 63.5905 22.5586 61.2158V38.5205C22.5586 36.1458 20.6266 34.2139 18.252 34.2139C16.3048 34.2139 14.6562 35.5131 14.1254 37.29H12.5781C12.4409 37.29 12.3043 37.293 12.168 37.2974V33.5303C12.168 29.7067 13.1113 26.0997 14.7753 22.9277C17.3023 25.5817 21.8237 25.5674 24.318 22.7799C27.0525 19.7818 30.946 18.0625 35.0001 18.0625C39.0543 18.0625 42.9477 19.7818 45.6822 22.7798C46.9209 24.1381 48.6862 24.917 50.5255 24.917C52.2337 24.9154 54.0734 24.1795 55.3141 22.8352C57.0464 26.1032 57.9688 29.7619 57.9688 33.5303V37.3026C57.7873 37.2948 57.6052 37.29 57.4219 37.29H55.8746C55.3438 35.5131 53.6952 34.2139 51.748 34.2139C49.3734 34.2139 47.4414 36.1458 47.4414 38.5205V61.2158C47.4414 63.5905 49.3734 65.5225 51.748 65.5225C53.6952 65.5225 55.3438 64.2232 55.8746 62.4463H57.4219C64.3575 62.4463 70 56.8038 70 49.8682C70 45.3934 67.6506 41.4574 64.1211 39.2273ZM18.252 36.2646C19.4958 36.2646 20.5078 37.2766 20.5078 38.5205V61.2158C20.5078 62.4597 19.4958 63.4717 18.252 63.4717C17.0081 63.4717 15.9961 62.4597 15.9961 61.2158V38.5205C15.9961 37.2766 17.0081 36.2646 18.252 36.2646ZM13.9453 39.3408V60.3955H12.5781C6.77332 60.3955 2.05078 55.673 2.05078 49.8682C2.05078 44.0634 6.77332 39.3408 12.5781 39.3408H13.9453ZM57.4219 60.3955H56.0547V58.208C56.0547 57.6416 55.5957 57.1826 55.0293 57.1826C54.4629 57.1826 54.0039 57.6416 54.0039 58.208V61.2158C54.0039 62.4597 52.9919 63.4717 51.748 63.4717C50.5042 63.4717 49.4922 62.4597 49.4922 61.2158V38.5205C49.4922 37.2766 50.5042 36.2646 51.748 36.2646C52.9919 36.2646 54.0039 37.2766 54.0039 38.5205V53.4229C54.0039 53.9893 54.4629 54.4482 55.0293 54.4482C55.5957 54.4482 56.0547 53.9893 56.0547 53.4229V39.3408H57.4219C63.2267 39.3408 67.9492 44.0634 67.9492 49.8682C67.9492 55.673 63.2267 60.3955 57.4219 60.3955Z" fill="#33CC66"/>
<path d="M43.409 39.7249H26.5918C25.2726 39.7249 24.1992 40.7982 24.1992 42.1174V44.5361C24.1992 45.1025 24.6582 45.5615 25.2246 45.5615C25.791 45.5615 26.25 45.1025 26.25 44.5361V42.1174C26.25 41.9289 26.4033 41.7756 26.5918 41.7756H33.975V54.7792C33.0653 54.0643 31.92 53.6363 30.6759 53.6363H26.25V49.3213C26.25 48.7549 25.791 48.2959 25.2246 48.2959C24.6582 48.2959 24.1992 48.7549 24.1992 49.3213V57.6189C24.1992 58.9381 25.2726 60.0115 26.5918 60.0115H43.409C44.7282 60.0115 45.8016 58.9381 45.8016 57.6189V42.1174C45.8016 40.7981 44.7282 39.7249 43.409 39.7249ZM43.409 41.7756C43.5976 41.7756 43.7508 41.9289 43.7508 42.1174V53.6363H39.325C38.0808 53.6363 36.9355 54.0643 36.0258 54.7792V41.7756H43.409ZM26.25 57.6189V55.6869H30.6759C32.1371 55.6869 33.3787 56.6422 33.8111 57.9607H26.5918C26.4033 57.9607 26.25 57.8074 26.25 57.6189ZM43.409 57.9607H36.1897C36.622 56.6422 37.8637 55.6869 39.325 55.6869H43.7508V57.6189C43.7508 57.8074 43.5976 57.9607 43.409 57.9607Z" fill="#33CC66"/>
<path d="M28.6836 45.3118H31.542C32.1084 45.3118 32.5674 44.8528 32.5674 44.2864C32.5674 43.72 32.1084 43.261 31.542 43.261H28.6836C28.1172 43.261 27.6582 43.72 27.6582 44.2864C27.6582 44.8528 28.1172 45.3118 28.6836 45.3118Z" fill="#33CC66"/>
<path d="M28.6836 48.7327H31.542C32.1084 48.7327 32.5674 48.2737 32.5674 47.7073C32.5674 47.1408 32.1084 46.6819 31.542 46.6819H28.6836C28.1172 46.6819 27.6582 47.1408 27.6582 47.7073C27.6582 48.2737 28.1172 48.7327 28.6836 48.7327Z" fill="#33CC66"/>
<path d="M28.6836 52.1506H31.542C32.1084 52.1506 32.5674 51.6917 32.5674 51.1252C32.5674 50.5588 32.1084 50.0999 31.542 50.0999H28.6836C28.1172 50.0999 27.6582 50.5588 27.6582 51.1252C27.6582 51.6917 28.1172 52.1506 28.6836 52.1506Z" fill="#33CC66"/>
<path d="M38.459 45.3118H41.3174C41.8838 45.3118 42.3428 44.8528 42.3428 44.2864C42.3428 43.72 41.8838 43.261 41.3174 43.261H38.459C37.8926 43.261 37.4336 43.72 37.4336 44.2864C37.4336 44.8528 37.8926 45.3118 38.459 45.3118Z" fill="#33CC66"/>
<path d="M38.459 48.7327H41.3174C41.8838 48.7327 42.3428 48.2737 42.3428 47.7073C42.3428 47.1408 41.8838 46.6819 41.3174 46.6819H38.459C37.8926 46.6819 37.4336 47.1408 37.4336 47.7073C37.4336 48.2737 37.8926 48.7327 38.459 48.7327Z" fill="#33CC66"/>
<path d="M41.3174 50.0999H38.459C37.8926 50.0999 37.4336 50.5588 37.4336 51.1252C37.4336 51.6917 37.8926 52.1506 38.459 52.1506H41.3174C41.8838 52.1506 42.3428 51.6917 42.3428 51.1252C42.3428 50.5588 41.8838 50.0999 41.3174 50.0999Z" fill="#33CC66"/>
</g>
<defs>
<clipPath id="clip0">
<rect width="70" height="70" fill="white"/>
</clipPath>
</defs>
</svg>
