<svg width="239" height="47" viewBox="0 0 239 47" fill="none" xmlns="http://www.w3.org/2000/svg">
<path d="M37.3075 30.0001C38.0075 30.0001 38.4075 30.9 38.4075 32.8C38.4075 33.8 38.0075 35.0001 37.1075 36.4001C36.2075 37.8001 35.2075 39.1 33.8075 40.3C32.5075 41.5 31.0075 42.5001 29.3075 43.2001C27.7075 44.0001 26.1075 44.3 24.5075 44.3C22.4075 44.3 21.0075 42.4001 20.2075 38.7001C19.2075 40.4001 17.8075 41.8001 16.1075 42.9001C14.4075 44.0001 12.2075 44.6001 9.30752 44.6001C6.50752 44.6001 4.20753 43.7001 2.50753 42.0001C0.807525 40.2001 -0.0924748 38.1001 0.00752519 35.6001C0.00752519 28.8001 2.30752 23.4001 6.80752 19.5001C8.70752 17.9001 10.5075 16.8 12.2075 16.3C13.9075 15.8 15.6075 15.5001 17.5075 15.5001C19.3075 15.5001 20.8075 15.8001 22.0075 16.5001C22.6075 15.3001 23.2075 14.8 23.9075 14.8C25.3075 14.8 26.6075 15.4001 27.9075 16.6001C29.2075 17.8001 29.8075 19.0001 29.8075 20.0001C29.2075 21.3001 28.4075 22.9001 27.3075 24.7001C27.0075 26.5001 26.8075 29.1001 26.8075 32.4001C26.8075 35.7001 27.2075 37.4001 28.1075 37.4001C29.1075 37.4001 31.7075 35.3001 35.7075 31.2001C36.4075 30.4001 37.0075 30.0001 37.3075 30.0001ZM9.00753 33.6001C9.00753 36.7001 10.1075 38.2001 12.4075 38.2001C14.8075 38.2001 16.9075 36.9 18.5075 34.3C19.1075 33.4 19.5075 32.3001 19.9075 31.1001C19.9075 26.6001 20.3075 22.8001 21.1075 19.6001C17.9075 20.2001 15.0075 21.8 12.6075 24.3C10.2075 26.8 9.00753 29.9001 9.00753 33.6001Z" fill="white"/>
<path d="M63.7082 26.0001C63.7082 24.7001 62.9082 24.0001 61.4082 24.0001C60.4082 24.0001 59.2082 25.0001 57.9082 27.0001C56.6082 29.0001 55.7082 31.2001 55.1082 33.5001V33.6001C55.1082 35.0001 55.3082 36.4001 55.7082 37.8001C56.1082 39.2001 56.3082 40.2001 56.3082 40.8001C56.3082 42.2001 54.6082 43.5001 51.2082 44.8001C50.7082 45.0001 50.2082 45.1001 49.8082 45.1001C48.8082 45.1001 48.1082 44.6001 47.7082 43.5001C47.3082 42.5001 47.1082 41.1001 47.1082 39.3001C47.1082 37.5001 47.1082 35.8001 47.3082 34.3001C47.4082 32.7001 47.5082 31.3001 47.6082 29.9001C47.7082 28.6001 47.8082 27.4001 47.9082 26.4001C48.0082 25.4001 48.1082 24.6001 48.1082 23.9001C48.1082 22.5001 47.5082 21.9001 46.2082 21.9001C45.0082 21.9001 43.5082 23.4001 41.9082 26.2001C40.3082 29.1001 39.4082 31.4001 39.4082 33.1001C39.4082 34.8001 39.6082 36.4001 40.0082 37.8001C40.4082 39.2001 40.6082 40.2001 40.6082 40.8001C40.6082 42.2001 38.9082 43.5001 35.5082 44.8001C35.0082 45.0001 34.5082 45.1001 34.1082 45.1001C33.1082 45.1001 32.4082 44.6001 32.0082 43.5001C31.6082 42.5001 31.4082 40.9001 31.4082 38.7001C31.4082 33.0001 31.6082 28.9001 32.1082 26.4001C32.7082 22.7001 34.1082 19.2001 36.2082 15.8001C36.9082 14.7001 37.7082 14.1001 38.5082 14.1001C39.8082 14.1001 41.0082 15.2001 42.2082 17.3001C42.5082 17.9001 42.8082 18.4001 42.9082 18.9001C44.8082 16.5001 47.1082 15.3001 49.7082 15.3001C51.4082 15.3001 53.0082 15.9001 54.3082 17.0001C55.7082 18.1001 56.3082 19.6001 56.3082 21.3001V22.0001C58.7082 19.0001 61.7082 17.4001 65.2082 17.4001C67.4082 17.4001 69.0082 18.0001 70.1082 19.1001C71.2082 20.2001 71.8082 21.6001 71.8082 23.2001C71.8082 24.8001 71.7082 26.3001 71.4082 27.6001C71.2082 28.9001 70.9082 30.2001 70.6082 31.3001C70.3082 32.5001 70.0082 33.5001 69.8082 34.4001C69.6082 35.3001 69.4082 36.0001 69.4082 36.5001C69.4082 37.0001 69.6082 37.3001 69.9082 37.3001C70.5082 37.3001 71.2082 36.9001 72.1082 36.2001C73.0082 35.4001 73.9082 34.6001 74.7082 33.7001C75.6082 32.8001 76.4082 32.0001 77.1082 31.2001C77.8082 30.4001 78.4082 30.1001 78.6082 30.1001C79.2082 30.1001 79.4082 30.8001 79.4082 32.1001C79.4082 34.9001 78.0082 37.6001 75.2082 40.3001C72.4082 42.9001 69.4082 44.3001 66.2082 44.3001C63.3082 44.3001 61.9082 41.7001 61.9082 36.4001C61.9082 35.1001 62.1082 33.3001 62.6082 30.9001C63.5082 28.7001 63.7082 27.0001 63.7082 26.0001Z" fill="white"/>
<path d="M96.7074 39.1001C93.5074 42.8001 89.7074 44.7001 85.3074 44.7001C80.9074 44.7001 77.6074 43.6001 75.4074 41.3001C73.2074 39.0001 72.1074 36.2001 72.2074 32.9001C72.2074 28.1001 73.7074 24.0001 76.7074 20.6001C79.7074 17.2001 83.7074 15.4001 88.6074 15.4001C90.8074 15.4001 92.6074 15.7001 94.0074 16.2001C96.4074 17.2001 97.5074 18.1001 97.5074 18.9001C97.5074 19.5001 95.8074 19.9001 92.6074 19.9001C89.3074 19.9001 86.5074 21.1001 84.3074 23.3001C82.1074 25.6001 81.0074 28.4001 81.0074 31.9001C81.0074 33.7001 81.5074 35.2001 82.6074 36.4001C83.7074 37.6001 85.2074 38.2001 87.1074 38.2001C89.0074 38.2001 90.6074 37.8002 91.9074 37.0002C89.1074 35.1002 87.6074 32.3001 87.6074 28.7001C87.6074 26.8001 88.3074 25.0002 89.7074 23.5002C91.1074 21.9002 92.9074 21.1001 95.2074 21.1001C97.4074 21.1001 99.0074 21.7001 100.007 22.9001C101.007 24.1001 101.407 25.7001 101.407 27.7001C101.407 29.6001 100.907 31.7001 100.007 33.9001H100.407C102.207 33.9001 103.707 33.2002 105.007 32.0002C105.507 31.5002 105.907 31.1001 106.207 30.7001C106.507 30.3001 106.907 30.2001 107.207 30.2001C107.807 30.2001 108.007 30.9001 108.007 32.2001C108.007 34.6001 107.307 36.5001 105.807 37.7001C104.407 38.9002 102.807 39.5002 101.007 39.5002C99.4074 39.5002 97.9074 39.3001 96.7074 39.1001ZM96.2074 32.1001C96.9074 30.7001 97.2074 29.3001 97.2074 27.9001C97.2074 26.5001 96.8074 25.9001 95.9074 25.9001C95.5074 25.9001 95.2074 26.2001 95.0074 26.7001C94.8074 27.2001 94.6074 27.7001 94.6074 28.2001C94.6074 29.8001 95.2074 31.1001 96.2074 32.1001Z" fill="white"/>
<path d="M238.707 38.7C238.707 42 236.007 44.7 232.707 44.7C229.407 44.7 226.707 42 226.707 38.7C226.707 35.4 229.407 32.7 232.707 32.7C236.007 32.7 238.707 35.4 238.707 38.7Z" fill="#C7EAF2"/>
<path d="M170.807 31.1C171.507 31.1 171.807 32 171.807 33.9C171.807 34.9 171.407 36.1 170.507 37.5C169.707 38.9 168.607 40.2 167.207 41.4C165.907 42.6 164.407 43.6 162.707 44.3C161.107 45.1 159.507 45.4 158.007 45.4C156.507 45.4 155.407 45.1 154.507 44.6C153.707 44 153.007 43.3 152.507 42.3C151.807 40.9 151.307 38.3 150.807 34.5C150.407 30.7 149.907 28 149.507 26.5C148.507 26.3 147.507 25.9 146.807 25.3C146.007 24.7 145.607 23.9 145.607 23C145.607 22.1 146.007 21.4 146.807 21C147.607 20.6 148.607 20.4 149.607 20.4C150.707 20.4 151.607 20.7 152.407 21.2C153.507 20.3 154.407 19.2 155.107 17.9C155.807 16.6 156.107 14.9 156.107 12.8C156.107 10.7 155.407 9 153.907 7.7C152.507 6.4 150.407 5.79999 147.607 5.79999C144.807 5.79999 142.707 6 141.207 6.5C139.707 6.9 138.407 7.39999 137.407 7.89999C136.307 8.39999 135.407 8.89999 134.607 9.29999C133.807 9.69999 133.007 10 132.307 10C131.607 10 131.207 9.79999 131.207 9.29999C131.207 8.79999 131.607 8.1 132.307 7C133.107 6 134.207 4.89999 135.707 3.89999C139.407 1.29999 143.607 0 148.307 0C153.007 0 156.807 0.899997 159.907 2.7C163.507 4.8 165.207 7.89999 165.207 12.1C165.207 15.5 164.307 18.4 162.507 20.7C160.707 23 158.407 24.6 155.707 25.6C156.307 26.9 156.807 28.3 157.207 29.9C157.607 31.4 158.007 32.8 158.307 34.1C158.707 35.4 159.107 36.4 159.507 37.3C160.007 38.1 160.507 38.6 161.207 38.6C161.907 38.6 162.707 38.2 163.607 37.4C164.507 36.6 165.507 35.8 166.407 34.9C167.307 34 168.207 33.1 168.907 32.3C169.907 31.5 170.407 31.1 170.807 31.1ZM144.707 9.5C145.207 9.5 145.507 10.2 145.507 11.5C145.507 12.9 145.407 14.1 145.307 15.3C144.907 17.6 144.507 19.8 143.907 21.8C142.507 27.2 141.707 30.4 141.707 31.3V40.1C141.707 42.3 140.907 43.7 139.207 44.5C138.407 44.9 137.707 45.2 137.007 45.5C136.307 45.8 135.507 46 134.607 46C132.907 46 132.107 44.1 132.107 40.2C132.107 36.3 133.007 31.5 134.807 25.6C136.607 19.7 138.507 15.2 140.407 12.2C140.807 11.6 141.407 11 142.107 10.3C143.007 9.79999 143.807 9.5 144.707 9.5Z" fill="#C7EAF2"/>
<path d="M222.407 31.1C223.107 31.1 223.407 32 223.407 33.9C223.407 34.9 223.007 36.1 222.107 37.5C221.307 38.9 220.207 40.2 218.807 41.4C217.507 42.6 216.007 43.6 214.307 44.3C212.707 45.1 210.907 45.4 209.107 45.4C207.307 45.4 205.907 44.8 204.807 43.6C203.807 42.4 203.307 41.1 203.307 39.6C203.307 38.1 203.507 36.5 204.007 34.7C204.507 32.9 205.007 30.9 205.607 28.9C207.107 23.6 207.907 19.8 207.907 17.7C207.907 16.8 207.807 16.1 207.507 15.6C207.307 15.1 206.807 14.8 206.107 14.8C204.907 14.8 203.607 15.5 202.307 17C200.907 18.4 199.707 20.3 198.507 22.5C195.707 27.6 194.307 32.6 194.107 37.5C194.207 38.1 194.307 38.6 194.307 39.2C194.407 39.8 194.407 40.4 194.407 41C194.407 42.3 193.807 43.5 192.507 44.5C191.207 45.6 189.807 46.1 188.307 46.1C187.407 46.1 186.707 45.6 186.307 44.7C185.907 43.8 185.607 42.7 185.607 41.4C185.607 40.1 185.907 38.3 186.507 36C187.107 33.7 187.807 31.3 188.507 28.7C190.407 21.9 191.407 16.9 191.407 13.6C191.407 11.9 191.207 10.6 190.807 9.59999C190.407 8.59999 189.607 8.2 188.407 8.2C186.207 8.2 184.107 9.69999 182.007 12.8C179.907 15.9 178.007 20.7 176.307 27.1C175.907 28.8 175.507 30.2 175.307 31.5L175.207 32.6C176.007 36.3 176.307 38.7 176.307 39.8C176.307 42.1 175.507 43.7 173.807 44.5C173.007 44.9 172.307 45.2 171.607 45.5C170.907 45.8 170.207 46 169.307 46C167.307 46 166.307 44.1 166.307 40.3C166.307 36.5 167.407 29 169.507 17.9C170.307 13.9 170.607 11.7 170.607 11.2C170.607 8 169.807 6.29999 168.107 6.29999C167.507 6.29999 167.007 6.49999 166.607 6.79999C166.107 7.09999 165.707 7.49999 165.207 7.79999C164.707 8.19999 164.307 8.49999 163.807 8.79999C163.307 9.09999 162.807 9.29999 162.107 9.29999C161.507 9.29999 161.207 8.8 161.207 7.7C161.207 5.5 162.207 3.69999 164.307 2.29999C166.307 0.899988 168.607 0.0999908 171.407 0.0999908C175.007 0.0999908 177.107 1.79999 177.807 5.09999C178.007 6.09999 178.107 7.19999 178.207 8.29999C181.207 2.69999 184.907 0 189.407 0C194.307 0 197.107 2.39999 197.907 7.09999C198.107 8.49999 198.207 9.9 198.207 11.5V12C200.807 8.4 203.907 6.59999 207.407 6.59999C212.407 6.59999 215.007 9.6 215.007 15.7C215.007 18.3 214.607 21.4 213.807 25C213.007 28.5 212.407 31.1 212.007 32.6C211.607 34.1 211.407 35.3 211.407 36.2C211.407 37.7 211.907 38.5 213.007 38.5C214.107 38.5 216.607 36.4 220.607 32.3C221.607 31.5 222.107 31.1 222.407 31.1Z" fill="#C7EAF2"/>
<path d="M137.007 23.1001C138.007 23.1001 138.507 24.1001 138.507 26.0001C138.507 27.9001 138.107 30.0001 137.207 32.2001C136.307 34.4001 135.007 36.5001 133.207 38.6001C131.407 40.7001 129.207 42.4001 126.407 43.9001C123.607 45.4001 120.407 46.1001 116.707 46.1001C113.007 46.1001 109.707 44.9001 106.907 42.4001C104.107 39.9001 102.707 36.3001 102.707 31.6001C102.707 26.9001 103.407 22.6001 104.707 18.8001C106.007 15.0001 107.807 11.7001 109.907 8.9001C112.107 6.1001 114.507 4.0001 117.307 2.4001C120.107 0.900101 122.707 0.100098 125.107 0.100098C129.407 0.100098 131.607 2.0001 131.607 5.9001C131.607 8.1001 131.207 9.9001 130.407 11.2001C129.607 12.5001 128.807 13.2001 127.907 13.2001C126.807 13.2001 125.807 12.8001 125.007 11.9001C124.207 11.0001 123.207 10.6001 122.207 10.5001C121.207 10.5001 118.407 10.4001 116.107 14.1001C114.507 16.7001 114.707 16.5001 114.107 18.2001C112.907 21.7001 112.107 24.5001 112.107 29.2001C112.207 31.5001 114.207 35.0001 116.007 36.1001C117.207 36.9001 118.707 37.5001 120.407 37.3001C124.007 36.8001 126.007 35.1001 127.507 33.6001C128.907 32.1001 130.107 30.8001 131.407 29.3001C132.707 27.8001 133.807 26.4001 134.807 25.2001C135.707 23.8001 136.507 23.1001 137.007 23.1001Z" fill="#C7EAF2"/>
</svg>
