<svg width="70" height="70" viewBox="0 0 70 70" fill="none" xmlns="http://www.w3.org/2000/svg">
<g clip-path="url(#clip0)">
<path d="M64.5605 48.2911C65.4634 48.2911 66.1982 47.5581 66.1982 46.6573V43.8189H68.3467C69.2582 43.8189 69.9998 43.0772 69.9998 42.1656V38.4142C69.9998 37.5027 69.2581 36.761 68.3467 36.761H65.3921V25.4902C65.6814 25.5623 65.9779 25.6003 66.2768 25.6003C66.6013 25.6003 66.9284 25.5575 67.2508 25.4708C68.2111 25.2128 69.0112 24.5984 69.5014 23.7439C69.9968 22.888 70.128 21.8875 69.871 20.9267C69.6138 19.9653 68.9998 19.1633 68.1423 18.6685L36.9918 0.684229C36.4214 0.352412 35.7324 0.177002 34.9996 0.177002C34.2668 0.177002 33.5779 0.352412 33.0105 0.682588L1.85586 18.6689C0.0822088 19.6955 -0.52701 21.9715 0.49715 23.7427C0.992072 24.6003 1.79324 25.2143 2.75342 25.4715C3.37221 25.6372 4.00768 25.6407 4.61115 25.4903V36.7609H1.65653C0.744884 36.7609 0.00332201 37.5026 0.00332201 38.4141V42.1655C0.00332201 43.077 0.745021 43.8187 1.65653 43.8187H3.80492V46.6571C3.80492 47.5581 4.53787 48.2909 5.43871 48.2909H6.67274V58.2927H5.43871C4.53787 58.2927 3.80492 59.0273 3.80492 59.9303V62.7649H1.65653C0.744884 62.7649 0.00332201 63.5066 0.00332201 64.4181V68.1696C0.00332201 69.0811 0.745021 69.8228 1.65653 69.8228H32.8605C33.4268 69.8228 33.8859 69.3637 33.8859 68.7974C33.8859 68.2311 33.427 67.772 32.8605 67.772H2.05397V64.8157H67.9491V67.772H37.5922C37.0259 67.772 36.5668 68.2311 36.5668 68.7974C36.5668 69.3637 37.0258 69.8228 37.5922 69.8228H68.3467C69.2582 69.8228 69.9998 69.0811 69.9998 68.1696V64.4181C69.9998 63.5066 69.2581 62.7649 68.3467 62.7649H66.1982V59.9303C66.1982 59.0273 65.4634 58.2927 64.5605 58.2927H63.3267V48.2909H64.5605V48.2911ZM4.54662 23.3265C4.16299 23.5477 3.71483 23.6059 3.28389 23.4906C2.85336 23.3752 2.49434 23.1008 2.2734 22.7177C2.27313 22.7173 2.27299 22.717 2.27272 22.7166C1.81389 21.9238 2.08774 20.9041 2.88221 20.4443L34.0388 2.45692C34.289 2.31132 34.6392 2.22778 34.9996 2.22778C35.3654 2.22778 35.7066 2.30913 35.9635 2.45856L67.1175 20.4446C67.5003 20.6655 67.7747 21.025 67.8902 21.4567C68.0056 21.8879 67.9475 22.3354 67.7249 22.72C67.506 23.1013 67.1488 23.3749 66.7188 23.4906C66.2877 23.6064 65.8398 23.5485 65.457 23.3269L35.5123 6.03841C35.3537 5.94681 35.1767 5.90101 34.9996 5.90101C34.8226 5.90101 34.6455 5.94681 34.4869 6.03841L4.54662 23.3265ZM2.05397 38.8118H32.8605C33.4268 38.8118 33.8859 38.3527 33.8859 37.7864C33.8859 37.2201 33.427 36.761 32.8605 36.761H6.6618V24.4732L34.9996 8.11038L63.3414 24.4733V36.761H37.4217C36.8554 36.761 36.3963 37.2201 36.3963 37.7864C36.3963 38.3527 36.8553 38.8118 37.4217 38.8118H67.9491V41.7681H2.05397V38.8118ZM28.6425 46.2403V43.8189H41.3568V46.2403H28.6425ZM38.4851 48.2911V58.2929H31.5141V48.2911H38.4851ZM5.8557 46.2403V43.8189H18.566V46.2403H5.8557ZM15.6984 48.2911V58.2929H8.72352V48.2911H15.6984ZM18.566 62.7651H5.8557V60.3436H18.566V62.7651ZM26.5917 59.9305V62.7651H20.6167V59.9305C20.6167 59.0275 19.8839 58.2929 18.9829 58.2929H17.749V48.2911H18.9829C19.8839 48.2911 20.6167 47.5581 20.6167 46.6573V43.8189H26.5917V46.6573C26.5917 47.5583 27.3264 48.2911 28.2293 48.2911H29.4633V58.2929H28.2293C27.3264 58.2929 26.5917 59.0275 26.5917 59.9305ZM41.3568 62.7651H28.6425V60.3436H41.3568V62.7651ZM49.3824 59.9305V62.7651H43.4074V59.9305C43.4074 59.0275 42.6727 58.2929 41.7698 58.2929H40.5359V48.2911H41.7698C42.6727 48.2911 43.4074 47.5581 43.4074 46.6573V43.8189H49.3824V46.6573C49.3824 47.5583 50.1172 48.2911 51.0202 48.2911H52.2541V58.2929H51.0202C50.1172 58.2929 49.3824 59.0275 49.3824 59.9305ZM64.1475 60.3436V62.7651H51.4332V60.3436H64.1475ZM54.3049 58.2929V48.2911H61.2759V58.2929H54.3049ZM51.4332 46.2403V43.8189H64.1475V46.2403H51.4332Z" fill="#33CC66"/>
<path d="M39.4592 16.27C39.4592 13.8947 37.5268 11.9622 35.1515 11.9622C32.7761 11.9622 30.8438 13.8947 30.8438 16.27C30.8438 18.6454 32.7761 20.5779 35.1515 20.5779C37.5268 20.5779 39.4592 18.6454 39.4592 16.27ZM32.8945 16.27C32.8945 15.0255 33.9071 14.0129 35.1515 14.0129C36.3959 14.0129 37.4084 15.0255 37.4084 16.27C37.4084 17.5146 36.3959 18.5271 35.1515 18.5271C33.9071 18.5271 32.8945 17.5146 32.8945 16.27Z" fill="#33CC66"/>
<path d="M22.6302 28.0621C22.9115 27.6197 23.077 27.0965 23.077 26.5345C23.077 24.9588 21.7949 23.6768 20.2193 23.6768H17.9062C17.3398 23.6768 16.8809 24.1359 16.8809 24.7021V28.3688V28.3747V32.6651C16.8809 32.9378 16.9896 33.1994 17.1829 33.3917C17.375 33.5831 17.6351 33.6905 17.9062 33.6905H17.9108C17.9108 33.6905 20.0371 33.681 20.6233 33.681C22.3704 33.681 23.792 32.2596 23.792 30.5123C23.7919 29.5261 23.3389 28.6439 22.6302 28.0621ZM20.2193 25.7277C20.6643 25.7277 21.0262 26.0896 21.0262 26.5346C21.0262 26.9796 20.6643 27.3415 20.2193 27.3415C20.0501 27.3415 18.9316 27.3437 18.9316 27.3437V25.7278H20.2193V25.7277ZM20.6233 31.6304C20.3113 31.6304 19.5642 31.6331 18.9316 31.6356V29.396C19.0827 29.3954 20.6233 29.3943 20.6233 29.3943C21.2397 29.3943 21.7412 29.8958 21.7412 30.5124C21.7411 31.1289 21.2396 31.6304 20.6233 31.6304Z" fill="#33CC66"/>
<path d="M30.9085 24.452C30.905 24.4428 30.9013 24.4336 30.8978 24.4245C30.7112 23.9702 30.2735 23.6768 29.7824 23.6768C29.7822 23.6768 29.7819 23.6768 29.7818 23.6768C29.2902 23.677 28.8525 23.9711 28.6663 24.4258C28.6631 24.4336 28.66 24.4414 28.6571 24.4492L25.6671 32.3C25.4654 32.8293 25.7312 33.4217 26.2604 33.6232C26.789 33.8248 27.3819 33.5592 27.5836 33.03L28.0767 31.7351H31.4654L31.953 33.0271C32.1079 33.4377 32.4981 33.6907 32.9125 33.6907C33.0328 33.6907 33.1552 33.6694 33.2744 33.6244C33.8042 33.4244 34.0716 32.8328 33.8716 32.303L30.9085 24.452ZM28.8577 29.6845L29.7787 27.2662L30.6913 29.6845H28.8577Z" fill="#33CC66"/>
<path d="M42.6016 23.6768C42.5984 23.6768 42.5948 23.6768 42.5915 23.6768C42.0251 23.6822 41.5705 24.1457 41.576 24.712L41.6221 29.4668L37.9395 24.1344C37.6847 23.7651 37.2196 23.6047 36.7905 23.7381C36.3622 23.8717 36.0703 24.2683 36.0703 24.717V32.6652C36.0703 33.2315 36.5293 33.6906 37.0957 33.6906C37.6621 33.6906 38.1211 33.2315 38.1211 32.6652V28.0064L41.6263 33.0821C41.9261 33.5156 42.4275 33.7002 42.9028 33.5515C43.3878 33.4002 43.7011 32.947 43.7011 32.387L43.6268 24.6923C43.6213 24.1293 43.1633 23.6768 42.6016 23.6768Z" fill="#33CC66"/>
<path d="M53.0403 31.9272L49.4586 28.4718L52.7361 25.4594C53.153 25.0761 53.1804 24.4274 52.797 24.0104C52.4139 23.5936 51.7651 23.5661 51.3482 23.9494L48.7305 26.3557V24.6025C48.7305 24.0362 48.2715 23.5771 47.7051 23.5771C47.1387 23.5771 46.6797 24.0362 46.6797 24.6025V32.6651C46.6797 33.2314 47.1387 33.6905 47.7051 33.6905C48.2715 33.6905 48.7305 33.2314 48.7305 32.6651V30.6187L51.6165 33.4031C51.8154 33.5951 52.072 33.6906 52.3282 33.6906C52.5969 33.6906 52.8651 33.5858 53.0662 33.3773C53.4596 32.9696 53.4479 32.3204 53.0403 31.9272Z" fill="#33CC66"/>
</g>
<defs>
<clipPath id="clip0">
<rect width="70" height="70" fill="white"/>
</clipPath>
</defs>
</svg>
