<svg width="70" height="70" viewBox="0 0 70 70" fill="none" xmlns="http://www.w3.org/2000/svg">
<g clip-path="url(#clip0)">
<path d="M68.9745 43.8139H67.9491V29.4369C67.9491 27.7169 66.7154 26.2779 65.0154 26.0154L50.5551 23.7825L47.0616 9.0326C46.6628 7.34877 45.1757 6.17285 43.4454 6.17285H35.6914C35.125 6.17285 34.666 6.63195 34.666 7.19824C34.666 7.76453 35.125 8.22363 35.6914 8.22363H43.4454C44.2209 8.22363 44.8874 8.75068 45.0661 9.50537L45.2561 10.308H42.21C41.895 10.308 41.5975 10.4528 41.4031 10.7007C41.2087 10.9486 41.1391 11.2722 41.2143 11.578L44.4955 24.9354C44.6081 25.394 45.0192 25.7162 45.4913 25.7162H49.6377L64.7024 28.0424C65.3953 28.1494 65.8983 28.736 65.8983 29.4372V29.7114H63.8549C61.7808 29.7114 60.0934 31.3988 60.0934 33.4729C60.0934 35.5469 61.7808 37.2344 63.8549 37.2344H65.8983V43.814H61.0384C60.537 40.1394 57.3802 37.2989 53.5729 37.2989C49.7655 37.2989 46.6087 40.1394 46.1073 43.814H41.8407C41.2743 43.814 40.8154 44.2731 40.8154 44.8394C40.8154 45.4057 41.2743 45.8648 41.8407 45.8648H46.1071C46.3633 47.7515 47.3219 49.4726 48.8243 50.6942C49.0145 50.8488 49.2432 50.924 49.4706 50.924C49.7687 50.924 50.0642 50.7947 50.2669 50.5455C50.6241 50.1061 50.5575 49.4602 50.1181 49.103C48.8283 48.0545 48.0887 46.5004 48.0887 44.8394C48.0887 41.8124 50.5489 39.3497 53.5729 39.3497C56.5968 39.3497 59.0571 41.8124 59.0571 44.8394C59.0571 46.5001 58.3175 48.0542 57.0279 49.1028C56.5886 49.4601 56.522 50.1059 56.8794 50.5453C57.2365 50.9845 57.8821 51.0513 58.3219 50.6939C59.8239 49.4724 60.7824 47.7513 61.0387 45.8649H68.9745C69.5409 45.8649 69.9999 45.4058 69.9999 44.8395C69.9999 44.2732 69.5409 43.8139 68.9745 43.8139ZM43.5179 12.3587H45.7419L48.4198 23.6653H46.2953L43.5179 12.3587ZM63.8549 35.1833C62.9117 35.1833 62.1442 34.4159 62.1442 33.4726C62.1442 32.5292 62.9116 31.762 63.8549 31.762H65.8983V35.1833H63.8549Z" fill="#33CC66"/>
<path d="M12.7083 49.1028C11.4186 48.0543 10.679 46.5002 10.679 44.8392C10.679 41.8123 13.1392 39.3496 16.1632 39.3496C19.1871 39.3496 21.6474 41.8123 21.6474 44.8392C21.6474 46.5001 20.9079 48.054 19.6183 49.1027C19.1789 49.4599 19.1125 50.1058 19.4697 50.5452C19.827 50.9845 20.4728 51.0511 20.9122 50.6938C22.4142 49.4722 23.3728 47.7512 23.629 45.8648H37.083C37.6495 45.8648 38.1084 45.4057 38.1084 44.8394C38.1084 44.2731 37.6495 43.814 37.083 43.814H23.6287C23.1273 40.1394 19.9705 37.2989 16.1632 37.2989C12.3558 37.2989 9.19898 40.1394 8.69764 43.814H3.61963C2.75447 43.814 2.05078 43.1103 2.05078 42.2451V37.2344H4.09418C6.1682 37.2344 7.85559 35.547 7.85559 33.4728C7.85559 31.3987 6.1682 29.7114 4.09418 29.7114H2.05078V29.359C2.05078 28.7388 2.44809 28.197 3.03953 28.0107L10.3223 25.7162H14.3896C14.8654 25.7162 15.2787 25.3889 15.3877 24.9259L18.5322 11.5685C18.604 11.2636 18.5325 10.9424 18.3379 10.6969C18.1435 10.4513 17.8474 10.308 17.5342 10.308H14.6249L14.815 9.50537C14.9937 8.75068 15.6602 8.22363 16.4356 8.22363H30.8684C31.4346 8.22363 31.8937 7.76453 31.8937 7.19824C31.8937 6.63195 31.4346 6.17285 30.8684 6.17285H16.4358C14.7053 6.17285 13.2184 7.34891 12.8194 9.0326L9.30111 23.8876L2.42348 26.0545C0.973984 26.511 0 27.8389 0 29.3587V42.2449C0 44.2408 1.62367 45.8645 3.61963 45.8645H8.69736C8.95357 47.7512 9.91225 49.4724 11.4146 50.6939C11.6048 50.8486 11.8336 50.9238 12.0609 50.9238C12.359 50.9238 12.6544 50.7944 12.8572 50.5452C13.2143 50.1059 13.1477 49.4601 12.7083 49.1028ZM14.1393 12.3587H16.2395L13.5777 23.6653H11.4613L14.1393 12.3587ZM4.09418 31.7619C5.0374 31.7619 5.8048 32.5294 5.8048 33.4726C5.8048 34.4158 5.0374 35.1833 4.09418 35.1833H2.05078V31.7619H4.09418Z" fill="#33CC66"/>
<path d="M38.7586 11.0887C38.6461 10.6301 38.235 10.3079 37.7629 10.3079H21.9414C21.4656 10.3079 21.0523 10.6352 20.9433 11.0982L17.7988 24.4557C17.727 24.7605 17.7985 25.0817 17.9931 25.3272C18.1875 25.5728 18.4836 25.7161 18.7968 25.7161H23.0845C23.6508 25.7161 24.1099 25.257 24.1099 24.6907C24.1099 24.1244 23.6508 23.6653 23.0845 23.6653H20.0916L22.7533 12.3586H36.9588L39.7363 23.6653H27.9026C27.3363 23.6653 26.8772 24.1244 26.8772 24.6907C26.8772 25.257 27.3363 25.7161 27.9026 25.7161H41.044C41.359 25.7161 41.6565 25.5713 41.8509 25.3234C42.0453 25.0755 42.1149 24.7519 42.0397 24.4461L38.7586 11.0887Z" fill="#33CC66"/>
<path d="M41.1051 28.4543H37.3672C36.8008 28.4543 36.3418 28.9134 36.3418 29.4797C36.3418 30.046 36.8008 30.5051 37.3672 30.5051H41.1051C41.6715 30.5051 42.1305 30.046 42.1305 29.4797C42.1305 28.9134 41.6715 28.4543 41.1051 28.4543Z" fill="#33CC66"/>
<path d="M37.3665 56.329H33.9663L35.9714 52.3326C36.2255 51.8264 36.0209 51.2102 35.5148 50.9562C35.0089 50.7025 34.3925 50.9066 34.1386 51.4129L31.3882 56.8946C31.2287 57.2125 31.2453 57.5902 31.4321 57.8929C31.6189 58.1956 31.9492 58.3799 32.3048 58.3799H35.7595L33.9058 62.3695C33.6672 62.883 33.89 63.4928 34.4037 63.7315C34.5434 63.7964 34.6905 63.8272 34.835 63.8272C35.2217 63.8272 35.5919 63.6073 35.7657 63.2336L38.2966 57.7865C38.4441 57.4691 38.4194 57.0982 38.2311 56.803C38.0426 56.5077 37.7167 56.329 37.3665 56.329Z" fill="#33CC66"/>
<path d="M22.682 56.2785C20.9555 56.2785 19.496 57.4429 19.048 59.0272H18.2679C17.6733 59.0272 17.1895 58.5439 17.1895 57.95V44.8391C17.1895 44.2728 16.7304 43.8137 16.1641 43.8137C15.5978 43.8137 15.1387 44.2728 15.1387 44.8391V57.95C15.1387 59.6749 16.5425 61.078 18.2679 61.078H19.048C19.496 62.6624 20.9555 63.8267 22.682 63.8267C24.7639 63.8267 26.4578 62.1336 26.4578 60.0526C26.4578 57.9716 24.7639 56.2785 22.682 56.2785ZM22.682 61.7761C21.7308 61.7761 20.9571 61.003 20.9571 60.0528C20.9571 59.1026 21.731 58.3294 22.682 58.3294C23.6331 58.3294 24.407 59.1026 24.407 60.0528C24.407 61.003 23.6331 61.7761 22.682 61.7761Z" fill="#33CC66"/>
<path d="M53.573 43.814C53.0066 43.814 52.5476 44.2731 52.5476 44.8394V57.9503C52.5476 58.5443 52.0639 59.0275 51.4692 59.0275H50.689C50.241 57.443 48.7815 56.2787 47.0551 56.2787C44.973 56.2787 43.2793 57.9719 43.2793 60.0529C43.2793 62.1339 44.9731 63.827 47.0551 63.827C48.7815 63.827 50.241 62.6626 50.689 61.0783H51.4692C53.1945 61.0783 54.5984 59.675 54.5984 57.9503V44.8394C54.5984 44.2729 54.1393 43.814 53.573 43.814ZM47.0551 61.7762C46.1039 61.7762 45.3301 61.0031 45.3301 60.0529C45.3301 59.1027 46.1039 58.3295 47.0551 58.3295C48.0062 58.3295 48.7799 59.1027 48.7799 60.0529C48.7799 61.0031 48.0062 61.7762 47.0551 61.7762Z" fill="#33CC66"/>
</g>
<defs>
<clipPath id="clip0">
<rect width="70" height="70" fill="white"/>
</clipPath>
</defs>
</svg>
