<svg width="70" height="70" viewBox="0 0 70 70" fill="none" xmlns="http://www.w3.org/2000/svg">
<g clip-path="url(#clip0)">
<path d="M67.0355 31.1965C67.0355 25.4053 65.4342 19.8416 62.5273 15.0417C63.2353 13.979 64.2592 12.9566 65.7238 12.409C66.2453 12.2138 66.5823 11.7268 66.5823 11.168C66.5823 10.6092 66.2453 10.1222 65.7236 9.92688C62.9888 8.90446 61.789 6.22607 61.3173 4.72064C61.1433 4.1651 60.6347 3.79165 60.0519 3.79165C59.469 3.79165 58.9606 4.16483 58.7864 4.7205C58.4958 5.6484 57.9278 7.02134 56.8951 8.17804C55.7457 7.12706 54.5115 6.15299 53.195 5.27003C52.725 4.95477 52.0886 5.0803 51.7736 5.55019C51.4583 6.02008 51.5837 6.65662 52.0537 6.97161C53.2018 7.74161 54.2815 8.58714 55.2933 9.4951C55.0096 9.65929 54.706 9.80517 54.3801 9.92716C53.8586 10.1224 53.5216 10.6093 53.5216 11.1681C53.5216 11.727 53.8586 12.2139 54.3802 12.4093C57.1151 13.4317 58.3149 16.1102 58.7866 17.6158C58.9608 18.1712 59.4693 18.5446 60.052 18.5446C60.6347 18.5446 61.1431 18.1713 61.3174 17.6156C61.353 17.5023 61.3933 17.3814 61.4374 17.2558C63.7327 21.4687 64.9867 26.2436 64.9867 31.1965C64.9867 40.5416 60.5648 48.8719 53.7049 54.2094L52.7556 45.3361C55.9634 41.5049 57.8973 36.5725 57.8973 31.1963C57.8973 24.1347 54.5599 17.8398 49.3815 13.7998C49.3815 13.7998 48.9262 9.54414 48.9262 9.544C48.6813 7.25546 46.2599 5.84975 44.1729 6.66181C43.7521 6.82559 43.3643 7.0716 43.0373 7.38304C42.3017 8.08365 41.9976 9.01223 41.9505 10.0004C40.0091 9.43978 37.9589 9.13831 35.8395 9.13831C32.4056 9.13831 29.1535 9.92893 26.2527 11.3346L22.3395 10.8178C21.3925 10.6928 20.5196 11.3616 20.3945 12.3089L19.9131 15.9531C16.1176 19.9169 13.7813 25.2883 13.7813 31.1963C13.7813 36.8189 15.8975 41.9555 19.3733 45.8553L18.243 54.4124C11.2306 49.0847 6.69194 40.6622 6.69194 31.1963C6.69194 23.4107 9.72383 16.0912 15.2291 10.5858C20.7338 5.08071 28.0535 2.04895 35.8392 2.04895C40.0953 2.04895 44.197 2.94529 48.0303 4.71285C48.5444 4.95026 49.1527 4.72529 49.3896 4.21155C49.6264 3.69767 49.4021 3.08913 48.8882 2.85227C44.7839 0.959591 40.3936 0 35.8392 0C27.5062 0 19.672 3.24499 13.7798 9.13722C7.88757 15.0294 4.64258 22.8635 4.64258 31.1965C4.64258 39.5294 7.88757 47.3635 13.7799 53.2557C15.0751 54.5511 16.4664 55.7147 17.9342 56.7474L17.6993 58.5259C17.6253 59.0868 18.0199 59.6016 18.5808 59.6758C19.1422 59.7502 19.6565 59.355 19.7306 58.7943L22.6926 36.3722L25.9068 36.7968L21.9582 66.6882C21.7024 68.6252 18.4902 68.1846 18.7443 66.2609C18.7568 66.1656 19.105 63.5298 19.105 63.5298C19.179 62.969 18.7844 62.4541 18.2236 62.38C17.6628 62.3061 17.1479 62.7004 17.0737 63.2614L16.7125 65.9953C16.5896 66.9259 16.8364 67.8487 17.4077 68.5937C19.3054 71.069 23.5753 70.1244 23.9896 66.9566L24.8544 60.4097C28.3198 61.711 32.0266 62.3933 35.8392 62.3933C39.7087 62.3933 43.4703 61.6925 46.9803 60.3529C46.9803 60.3529 47.6765 66.8599 47.6776 66.8703C48.0142 70.0165 52.2797 71.0717 54.2169 68.6698C54.8062 67.9392 55.0758 67.0227 54.976 66.0894L53.9604 56.5969C55.3489 55.602 56.6666 54.4878 57.8984 53.256C63.7905 47.3635 67.0355 39.5294 67.0355 31.1965ZM60.0519 15.2578C59.3679 13.8442 58.2577 12.2445 56.493 11.168C58.258 10.0912 59.3679 8.4918 60.0519 7.07816C60.7358 8.49193 61.8459 10.0915 63.6106 11.168C61.8458 12.2448 60.7358 13.8442 60.0519 15.2578ZM55.8483 31.1965C55.8483 35.3265 54.5895 39.1674 52.4368 42.3579L51.6592 35.0904L49.7003 16.7814C53.4873 20.4243 55.8483 25.5393 55.8483 31.1965ZM44.0088 9.8467C44.0283 9.44046 44.2194 9.05417 44.5349 8.79613C45.4128 8.08611 46.7705 8.65694 46.8887 9.76201C46.8894 9.76843 49.513 34.2898 49.513 34.2898L46.2891 34.6347L45.9908 31.8474C45.8951 30.9525 45.4646 30.1389 44.7787 29.5565L43.6757 28.6193C43.3366 28.3312 43.1467 27.8937 43.1679 27.4492C43.168 27.4491 44.0088 9.84684 44.0088 9.8467ZM35.8392 11.1873C37.9328 11.1873 39.9514 11.5125 41.8494 12.1119L41.1215 27.3513C41.0702 28.4262 41.529 29.4838 42.3491 30.1807C42.9736 30.7114 43.8283 31.1879 43.9537 32.0654L44.3608 35.8713L45.7213 48.5863C42.804 50.2509 39.4315 51.2054 35.8392 51.2054C32.4213 51.2054 29.2018 50.3424 26.3845 48.8252L28.0722 36.0491L28.7027 31.2765C28.7347 31.0346 28.8932 30.83 29.1068 30.7554C31.0651 30.07 32.5116 28.2573 32.7917 26.1375L34.3745 14.1556C34.4351 13.6968 34.3134 13.2417 34.0317 12.8742C33.7501 12.5068 33.3422 12.271 32.8832 12.2105L30.5391 11.9008C32.2277 11.4361 34.0048 11.1873 35.8392 11.1873ZM21.4257 30.3154L20.7953 35.088L19.7414 43.0659C17.2847 39.743 15.83 35.6367 15.83 31.1965C15.83 26.9622 17.1525 23.0313 19.4055 19.7941L18.8115 24.2908C18.5314 26.4108 19.4576 28.5368 21.1708 29.707C21.3576 29.8346 21.4578 30.0734 21.4257 30.3154ZM22.9607 34.3406L23.457 30.5837C23.5913 29.5674 23.1581 28.5831 22.3265 28.015C21.2453 27.2766 20.6629 25.9199 20.8427 24.559L22.384 12.8903L24.2975 13.1432L23.0098 22.8915C22.9357 23.4524 23.3304 23.9672 23.8914 24.0414C23.9368 24.0474 23.9821 24.0503 24.0267 24.0503C24.5329 24.0503 24.9731 23.6752 25.0411 23.1598L26.3288 13.4115L28.3568 13.6793L27.0691 23.4277C26.9951 23.9885 27.3897 24.5034 27.9507 24.5775C27.9962 24.5836 28.0414 24.5864 28.0861 24.5864C28.5923 24.5864 29.0324 24.2113 29.1005 23.696L30.3882 13.9475L32.3016 14.2002L30.7603 25.8688C30.5805 27.2297 29.6657 28.3886 28.4298 28.8211C27.4793 29.1538 26.8054 29.9917 26.6712 31.008L26.175 34.7648L22.9607 34.3406ZM35.8392 60.3441C32.0606 60.3441 28.4486 59.6193 25.1325 58.3047L26.0998 50.9815C29.0391 52.4345 32.3446 53.2546 35.8392 53.2546C39.4844 53.2546 42.9246 52.3635 45.9572 50.7912L46.7522 58.2209C43.3794 59.5878 39.6964 60.3441 35.8392 60.3441ZM52.6221 67.3831C52.2812 67.8058 51.8098 67.902 51.3279 67.9534C50.5235 68.0392 49.801 67.4556 49.7148 66.6522L46.507 36.6721L49.7311 36.3272L52.9386 66.3073C52.9803 66.6963 52.8679 67.0785 52.6221 67.3831Z" fill="#33CC66"/>
<path d="M12.9343 57.2034C10.8481 56.4234 9.92799 54.3644 9.56505 53.2063C9.39909 52.6767 8.91444 52.321 8.35904 52.321C7.80364 52.321 7.319 52.6767 7.15303 53.2063V53.2065C6.79023 54.3644 5.86998 56.4233 3.78415 57.2033C3.28639 57.3892 2.96484 57.8536 2.96484 58.3863C2.96484 58.9191 3.28639 59.3835 3.78374 59.5693C5.86998 60.3494 6.79009 62.4083 7.15303 63.5665C7.319 64.0961 7.80364 64.4518 8.35904 64.4518C8.91444 64.4518 9.39909 64.0961 9.56505 63.5664C9.92785 62.4083 10.848 60.3492 12.9339 59.5694C13.4317 59.3835 13.7532 58.9191 13.7532 58.3863C13.7532 57.8536 13.4316 57.3893 12.9343 57.2034ZM8.35904 61.1672C7.83547 60.1941 7.05974 59.1584 5.9253 58.3865C7.05987 57.6147 7.83547 56.579 8.35904 55.6058C8.88262 56.5789 9.65835 57.6146 10.7928 58.3865C9.65835 59.1582 8.88275 60.1939 8.35904 61.1672Z" fill="#33CC66"/>
</g>
<defs>
<clipPath id="clip0">
<rect width="70" height="70" fill="white"/>
</clipPath>
</defs>
</svg>
