<svg width="70" height="70" viewBox="0 0 70 70" fill="none" xmlns="http://www.w3.org/2000/svg">
<g clip-path="url(#clip0)">
<path d="M68.8444 32.2409C70.3853 30.7002 70.3851 28.1932 68.8444 26.6525L68.5755 26.3836C67.8218 25.63 66.7782 25.2074 65.7127 25.2268C65.5675 25.2301 65.4304 25.1449 65.3681 25.0117L64.9459 24.1091L65.2093 23.8456C65.6098 23.4452 65.6098 22.7959 65.2093 22.3956L61.7195 18.9058C61.3191 18.5053 60.6698 18.5053 60.2695 18.9058L60.0327 19.1426L50.8578 9.96769L51.0946 9.73089C51.495 9.33043 51.495 8.68115 51.0946 8.28083L47.6047 4.79104C47.2046 4.39086 46.5549 4.39059 46.1546 4.79104L45.8912 5.0545L44.9885 4.63231C44.8552 4.56997 44.7709 4.43475 44.7735 4.28764C44.7921 3.22204 44.3704 2.17859 43.6167 1.42472L43.3479 1.15592C41.8072 -0.384914 39.3001 -0.385051 37.7594 1.15592L26.441 12.4745C24.9002 14.0152 24.9002 16.5222 26.441 18.0629L26.71 18.3318C27.4637 19.0856 28.5103 19.5276 29.5728 19.4886C29.9617 19.4744 29.9913 19.9779 30.3396 20.6063C30.2118 20.7687 29.7759 21.0189 29.7759 21.5948C29.7759 22.3369 30.1657 22.3409 33.5661 25.8096C33.9622 26.2136 34.6158 26.2101 35.0161 25.8096L35.2529 25.5728L36.7897 27.1095L27.1848 36.7144L26.8286 36.3583C26.4282 35.9578 25.7789 35.9578 25.3786 36.3583L22.3429 39.394C21.9424 39.7945 21.9424 40.4437 22.3429 40.8441L22.699 41.2002L1.26468 62.634C-0.421492 64.32 -0.421628 67.0494 1.26468 68.7356C2.95072 70.4217 5.68006 70.4219 7.36623 68.7356L28.8003 47.3016C29.0508 47.5025 29.2815 47.9582 29.8815 47.9582C30.6256 47.9582 30.6765 47.5181 33.6422 44.6222C34.0475 44.2265 34.0427 43.5725 33.6422 43.1721L33.2861 42.816L36.54 39.562C36.9405 39.1616 36.9405 38.5123 36.54 38.112C36.1397 37.7115 35.4904 37.7115 35.09 38.112L31.836 41.3659L28.6347 38.1646L38.2395 28.5599L41.4408 31.7612L38.5278 34.6739C38.1273 35.0743 38.1273 35.7236 38.5278 36.1239C38.9283 36.5244 39.5775 36.5244 39.9779 36.1239L42.891 33.2108L44.4276 34.7474L44.1908 34.9842C43.7903 35.3847 43.7861 36.0381 44.1908 36.4343C47.6577 39.8291 47.6583 40.2244 48.4056 40.2244C48.6679 40.2244 48.9304 40.1244 49.1306 39.9241L49.3941 39.6606C50.0614 40.0299 50.5186 40.0321 50.5118 40.4273C50.4932 41.4931 50.9148 42.5365 51.6685 43.2903L51.9375 43.5592C53.4782 45.0999 55.9851 45.1 57.5259 43.5592L68.8444 32.2409ZM5.91618 67.2854C5.0316 68.17 3.59973 68.1702 2.71487 67.2854C1.83029 66.4008 1.83002 64.9689 2.71487 64.0841L24.1488 42.65L27.3502 45.8514L5.91618 67.2854ZM29.8815 45.4826C28.4242 44.0253 24.5177 40.1188 24.5177 40.1188L26.1032 38.5332L31.467 43.897L29.8815 45.4826ZM32.2512 21.5945C33.2814 20.5643 40.1348 13.711 41.0822 12.7636C41.4826 12.3632 41.4826 11.7139 41.0822 11.3136C40.6817 10.913 40.0324 10.9131 39.6321 11.3136L31.8821 19.0636C31.8552 19.0318 31.3039 17.4077 29.5371 17.438C28.5305 17.4604 28.0224 16.7094 27.891 16.6127C27.1498 15.8715 27.1498 14.6657 27.891 13.9245L39.2094 2.60598C39.9505 1.86496 41.1565 1.86482 41.8977 2.60598L42.1665 2.87477C42.5291 3.23735 42.732 3.73939 42.7229 4.25182C42.7063 5.20667 43.2545 6.0851 44.1195 6.48979L44.3485 6.59698L43.1299 7.81557C42.7295 8.21603 42.7295 8.86531 43.1299 9.26563C43.5304 9.66608 44.1797 9.66608 44.58 9.26563L46.8795 6.96613L48.9191 9.00572C47.9243 10.0005 35.6742 22.2508 34.2907 23.6341L32.2512 21.5945ZM36.7029 24.1225L49.4076 11.4177L58.5825 20.5926L45.8778 33.2974C38.6995 26.1191 43.8722 31.2918 36.7029 24.1225ZM46.366 35.7094C51.5384 30.537 56.0284 26.047 60.9944 21.081L63.034 23.1206C63.034 23.1206 50.0603 36.0943 48.4056 37.749L46.366 35.7094ZM67.3942 30.7909L56.0757 42.1093C55.3346 42.8504 54.1287 42.8504 53.3875 42.1093L53.1186 41.8403C52.7562 41.4778 52.5533 40.9759 52.5623 40.4632C52.5788 39.5084 52.0306 38.63 51.1657 38.2253L50.9367 38.1183L63.4032 25.6517L63.5104 25.8808C63.915 26.7457 64.7933 27.2889 65.7483 27.2774C66.2607 27.2679 66.7627 27.4713 67.1255 27.8339L67.3942 28.1027C68.1354 28.8437 68.1354 30.0497 67.3942 30.7909Z" fill="#33CC66"/>
<path d="M55.2058 61.2402H52.8701L51.9848 58.345C51.6325 57.1927 50.5863 56.4185 49.3812 56.4185H26.0922C24.8872 56.4185 23.8409 57.1927 23.4886 58.3448L22.6033 61.24H20.2676C19.7013 61.24 19.2422 61.6991 19.2422 62.2654V68.9733C19.2422 69.5396 19.7013 69.9987 20.2676 69.9987H55.2058C55.7721 69.9987 56.2312 69.5396 56.2312 68.9733V62.2654C56.2312 61.6993 55.7721 61.2402 55.2058 61.2402ZM54.1804 67.9482H21.2929V63.2911H44.2254C44.7917 63.2911 45.2508 62.832 45.2508 62.2657C45.2508 61.6994 44.7917 61.2403 44.2254 61.2403H24.7479L25.4498 58.9448C25.5368 58.6604 25.7949 58.4694 26.0922 58.4694H49.3812C49.6785 58.4694 49.9367 58.6604 50.0236 58.9448L50.7255 61.2403H49.0107C48.4444 61.2403 47.9853 61.6994 47.9853 62.2657C47.9853 62.832 48.4444 63.2911 49.0107 63.2911H54.1805V67.9482H54.1804Z" fill="#33CC66"/>
</g>
<defs>
<clipPath id="clip0">
<rect width="70" height="70" fill="white"/>
</clipPath>
</defs>
</svg>
