<svg width="70" height="70" viewBox="0 0 70 70" fill="none" xmlns="http://www.w3.org/2000/svg">
<g clip-path="url(#clip0)">
<path d="M50.3457 19.6529C46.6699 15.9772 42.4046 12.226 37.6677 8.50352C37.2225 8.15338 36.5779 8.23077 36.2279 8.67619C35.8779 9.12149 35.9553 9.76612 36.4006 10.116C41.0733 13.7884 45.2774 17.485 48.8956 21.1034C57.4837 29.6915 64.4276 39.5357 67.0066 43.3564C65.7812 43.3442 64.0407 43.3647 61.9102 43.4885C60.248 40.9865 57.5445 37.244 53.5462 32.6076C53.176 32.1786 52.5286 32.1308 52.0998 32.5008C51.671 32.8706 51.6232 33.5183 51.9931 33.9471C55.4191 37.9196 57.8881 41.2477 59.5427 43.659C57.4466 43.8386 55.0836 44.1168 52.5379 44.5416C47.0596 45.4559 41.8796 46.8656 37.1421 48.7314C37.0307 48.7753 36.9197 48.8194 36.8087 48.8637C35.4709 46.8161 33.218 43.8016 29.7079 40.2914C26.1978 36.7813 23.1833 34.5283 21.1358 33.1905C21.8227 31.4739 22.4498 29.6979 23.0157 27.8647C23.1827 27.3235 22.8795 26.7495 22.3384 26.5824C21.7972 26.4153 21.2232 26.7186 21.0561 27.2598C20.5419 28.9255 19.9761 30.5416 19.3597 32.1066C18.7263 31.7502 18.3567 31.5793 18.3041 31.5554C17.7892 31.3211 17.1824 31.5483 16.9473 32.0629C16.7121 32.5775 16.9389 33.1856 17.4531 33.4215C17.4664 33.4275 17.863 33.6126 18.5689 34.0218C18.1839 34.9124 17.7817 35.7851 17.3624 36.6397C16.66 36.2338 16.2484 36.0432 16.1956 36.0193C15.6806 35.7852 15.0744 36.0123 14.8391 36.5268C14.6039 37.0412 14.8306 37.6494 15.3447 37.8853C15.357 37.8909 15.7416 38.0707 16.4231 38.4706C14.7927 41.5123 12.9346 44.3055 10.8585 46.8319C8.13794 47.0035 5.46673 48.1265 3.3923 50.2008C-1.13077 54.7242 -1.13077 62.0841 3.3923 66.6075C5.65363 68.8692 8.62439 70 11.5951 70C14.5658 70 17.5365 68.8692 19.7983 66.6076C20.1987 66.207 20.1987 65.5579 19.7983 65.1573C19.3977 64.757 18.7485 64.757 18.348 65.1573C14.6244 68.8812 8.56574 68.881 4.84234 65.1573C1.1188 61.4338 1.1188 55.3749 4.84234 51.6514C8.5656 47.9277 14.6243 47.9275 18.348 51.6514C20.8909 54.1942 21.7877 57.9031 20.6882 61.3305C20.5151 61.8699 20.812 62.4473 21.3514 62.6202C21.8905 62.7932 22.468 62.4965 22.6411 61.957C22.9397 61.0259 23.117 60.0779 23.1778 59.1324C25.8344 56.9512 28.6604 55.1209 31.5335 53.585C31.9296 54.2605 32.1076 54.6416 32.1129 54.6533C32.2849 55.0312 32.6574 55.2545 33.0471 55.2545C33.189 55.2545 33.3334 55.2248 33.4711 55.1622C33.9867 54.9276 34.2144 54.3195 33.98 53.8042C33.956 53.7517 33.7674 53.3438 33.3656 52.6478C34.2377 52.2208 35.1116 51.8197 35.9843 51.4428C36.3883 52.1406 36.5711 52.5323 36.5769 52.5451C36.7489 52.923 37.1214 53.1463 37.5111 53.1463C37.6531 53.1463 37.7974 53.1166 37.9351 53.054C38.4507 52.8194 38.6784 52.2113 38.444 51.6958C38.4202 51.6435 38.2512 51.2783 37.8996 50.6523C43.2927 48.5272 48.5357 47.2916 52.823 46.5734C55.7832 46.0774 58.51 45.7862 60.8445 45.6191C61.7868 47.0901 62.2258 47.9078 62.2369 47.9284C62.4209 48.276 62.7762 48.4742 63.1439 48.4742C63.3057 48.4742 63.4701 48.4356 63.6229 48.3546C64.1234 48.0895 64.3142 47.4689 64.0489 46.9684C64.0135 46.9013 63.739 46.3884 63.186 45.4839C66.6801 45.3314 68.849 45.4605 68.8873 45.4631C69.2719 45.4862 69.6387 45.2938 69.835 44.9618C70.0316 44.6295 70.0249 44.2154 69.8179 43.8896C69.7348 43.7589 61.3824 30.6898 50.3457 19.6529ZM23.0628 56.6028C22.6903 54.2235 21.5752 51.9779 19.7983 50.201C17.9932 48.396 15.7365 47.3114 13.3885 46.9471C15.1415 44.6767 16.733 42.216 18.1571 39.5761C19.8407 40.7274 22.1664 42.5317 24.8169 45.1824C27.4681 47.8335 29.2726 50.1597 30.4238 51.8431C27.7866 53.2661 25.3272 54.856 23.0628 56.6028ZM32.2635 50.8917C31.0575 49.1011 29.1385 46.6035 26.2671 43.732C23.396 40.8609 20.8986 38.942 19.1081 37.7359C19.5309 36.882 19.9369 36.0106 20.3263 35.1222C22.2674 36.42 25.0546 38.5388 28.2573 41.7418C31.4604 44.9447 33.5792 47.7321 34.8767 49.6731C33.9889 50.0623 33.1177 50.4687 32.2635 50.8917Z" fill="#33CC66"/>
<path d="M22.0702 7.76176C22.0971 7.77612 22.9125 8.21526 24.3772 9.15479C24.1117 12.8544 23.535 17.5429 22.3284 22.5956C22.1969 23.1466 22.5368 23.6997 23.0876 23.8313C23.1678 23.8504 23.2479 23.8596 23.3266 23.8596C23.7904 23.8596 24.2108 23.5428 24.3233 23.0721C25.4441 18.3787 26.0375 14.0347 26.3432 10.4622C30.2741 13.163 36.6455 18.031 44.3067 25.6922C45.8695 27.255 47.3954 28.8437 48.8418 30.4137C49.044 30.6333 49.3196 30.7445 49.5963 30.7445C49.8447 30.7445 50.0938 30.6548 50.2909 30.4732C50.7074 30.0894 50.7341 29.4407 50.3505 29.0241C48.8851 27.4333 47.3396 25.8244 45.7571 24.2416C37.2486 15.7334 30.3946 10.6613 26.5135 8.08633C26.6365 5.95817 26.6561 4.21787 26.6438 2.99069C27.9622 3.87922 29.9956 5.28524 32.4359 7.09211C32.8909 7.42926 33.5334 7.33342 33.8702 6.87815C34.2073 6.42301 34.1116 5.78084 33.6563 5.44383C29.2554 2.18541 26.1403 0.200257 26.1094 0.180432C25.7839 -0.0262863 25.3696 -0.033259 25.0378 0.163343C24.7056 0.359534 24.5118 0.725803 24.536 1.11067C24.5389 1.15619 24.6663 3.32032 24.5132 6.80965C23.627 6.26893 23.1155 5.99453 23.0309 5.94969C22.5309 5.68418 21.9106 5.87518 21.6451 6.37543C21.3798 6.87555 21.5703 7.49612 22.0702 7.76176Z" fill="#33CC66"/>
<path d="M45.6241 10.8534C45.7388 10.8947 45.8559 10.9141 45.9711 10.9141C46.3915 10.9141 46.7857 10.6537 46.9361 10.2355C48.7324 5.23962 47.6999 0.956362 47.6551 0.776576C47.5184 0.227924 46.9632 -0.105123 46.4146 0.030092C45.8657 0.16558 45.5303 0.721069 45.6645 1.27027C45.6738 1.30855 46.5831 5.15554 45.006 9.54148C44.8145 10.0745 45.0912 10.6619 45.6241 10.8534Z" fill="#33CC66"/>
<path d="M59.1448 24.3753C59.2952 24.7938 59.6895 25.0541 60.1097 25.0541C60.225 25.0541 60.342 25.0346 60.4566 24.9934C64.825 23.4228 68.6585 24.3186 68.7271 24.335C69.2765 24.4708 69.8318 24.1366 69.9685 23.5876C70.1055 23.0379 69.7711 22.4815 69.2215 22.3445C69.0416 22.2998 64.7583 21.267 59.7627 23.0634C59.2298 23.2551 58.9531 23.8424 59.1448 24.3753Z" fill="#33CC66"/>
<path d="M55.4962 15.5271C55.7586 15.5271 56.0211 15.4271 56.2214 15.2268L59.7282 11.7198C60.1286 11.3192 60.1286 10.6701 59.7282 10.2695C59.3276 9.86916 58.6783 9.86916 58.2779 10.2695L54.771 13.7764C54.3706 14.177 54.3706 14.8262 54.771 15.2268C54.9713 15.4271 55.2338 15.5271 55.4962 15.5271Z" fill="#33CC66"/>
<path d="M34.7891 23.5537C34.7891 24.12 35.2482 24.5791 35.8145 24.5791C36.3807 24.5791 36.8398 24.12 36.8398 23.5537C36.8398 22.9874 36.3807 22.5283 35.8145 22.5283C35.2482 22.5283 34.7891 22.9874 34.7891 23.5537Z" fill="#33CC66"/>
<path d="M29.0449 18.6665C29.0449 19.2328 29.504 19.6919 30.0703 19.6919C30.6366 19.6919 31.0957 19.2328 31.0957 18.6665C31.0957 18.1002 30.6366 17.6411 30.0703 17.6411C29.504 17.6411 29.0449 18.1002 29.0449 18.6665Z" fill="#33CC66"/>
<path d="M40.3125 28.6616C40.3125 29.2279 40.7716 29.687 41.3379 29.687C41.9042 29.687 42.3633 29.2279 42.3633 28.6616C42.3633 28.0953 41.9042 27.6362 41.3379 27.6362C40.7716 27.6362 40.3125 28.0953 40.3125 28.6616Z" fill="#33CC66"/>
<path d="M45.4199 34.1855C45.4199 34.7518 45.879 35.2109 46.4453 35.2109C47.0116 35.2109 47.4707 34.7518 47.4707 34.1855C47.4707 33.6193 47.0116 33.1602 46.4453 33.1602C45.879 33.1602 45.4199 33.6193 45.4199 34.1855Z" fill="#33CC66"/>
<path d="M51.332 40.9551C51.8983 40.9551 52.3574 40.496 52.3574 39.9297C52.3574 39.3634 51.8983 38.9043 51.332 38.9043C50.7657 38.9043 50.3066 39.3634 50.3066 39.9297C50.3066 40.496 50.7657 40.9551 51.332 40.9551Z" fill="#33CC66"/>
</g>
<defs>
<clipPath id="clip0">
<rect width="70" height="70" fill="white"/>
</clipPath>
</defs>
</svg>
