<svg width="70" height="70" viewBox="0 0 70 70" fill="none" xmlns="http://www.w3.org/2000/svg">
<g clip-path="url(#clip0)">
<path d="M6.54389 67.9499H42.8057C43.0884 67.9499 43.3483 67.8334 43.5381 67.6437C43.7282 67.4538 43.8443 67.1941 43.8443 66.9111V64.0276C43.8443 63.7408 43.7281 63.4813 43.5381 63.2912C43.3482 63.1012 43.0884 62.985 42.8057 62.985C30.7173 62.985 18.6286 62.985 6.54389 62.985C6.25705 62.985 5.99756 63.1012 5.80766 63.2912C5.62158 63.4813 5.50141 63.7408 5.50141 64.0276V66.9111C5.50141 67.1941 5.62158 67.4539 5.80766 67.6437C5.99756 67.8334 6.25705 67.9499 6.54389 67.9499ZM29.9652 53.3266C29.3993 53.3266 28.9379 52.8692 28.9379 52.3034C28.9379 51.7338 29.3993 51.2762 29.9652 51.2762H37.1547C37.7206 51.2762 38.182 51.7338 38.182 52.3034C38.182 52.8693 37.7206 53.3266 37.1547 53.3266H29.9652ZM29.9652 57.3109C29.3993 57.3109 28.9379 56.8496 28.9379 56.2837C28.9379 55.718 29.3993 55.2565 29.9652 55.2565H34.8445C35.4144 55.2565 35.8718 55.718 35.8718 56.2837C35.8718 56.8496 35.4144 57.3109 34.8445 57.3109H29.9652ZM36.1315 43.5324H30.9885V47.2958H36.1315V43.5324ZM29.9652 41.4823H37.1547C37.7206 41.4823 38.182 41.9396 38.182 42.5053V48.3189C38.182 48.8848 37.7206 49.346 37.1547 49.346H29.9652C29.3993 49.346 28.9379 48.8848 28.9379 48.3189V42.5053C28.938 41.9396 29.3994 41.4823 29.9652 41.4823ZM15.3962 10.9685C15.9117 10.0266 16.8961 9.3096 17.9271 9.03452C18.9544 8.75548 20.0897 8.87169 21.0858 9.44523L22.3225 10.1622C23.0741 9.3755 24.2368 8.60413 25.6477 7.99956C26.2795 7.72845 26.9656 7.4881 27.694 7.2904C27.8996 4.08503 30.3336 3.66257 32.5814 3.27115C33.434 3.12404 34.252 2.98062 34.6512 2.6782C34.9535 2.44947 35.2362 2.15101 35.5153 1.86431C36.4414 0.899211 37.3135 -0.003816 39.4453 1.21278e-05C41.0613 0.00384025 41.953 0.778899 42.8251 1.53878C43.3674 2.00773 43.8948 2.46888 44.5458 2.49978C45.6657 2.55023 46.379 2.05407 47.0844 1.55792C48.0804 0.860383 49.0724 0.1705 50.8632 0.279055C52.1617 0.360539 53.2857 0.903039 54.1926 1.75193C55.1188 2.62392 55.8089 3.82157 56.1963 5.15499C56.3515 5.69763 56.0414 6.26323 55.4988 6.41827C54.9559 6.57714 54.3901 6.26323 54.2311 5.72456C53.9443 4.73622 53.4481 3.86027 52.7894 3.24025C52.2235 2.70923 51.5298 2.37195 50.7429 2.32163C49.6539 2.25573 48.9562 2.74409 48.2547 3.23245C47.2624 3.92616 46.2664 4.62767 44.4605 4.54249C43.0883 4.48042 42.2979 3.79054 41.4877 3.08521C40.8946 2.57361 40.29 2.04642 39.4451 2.04259C38.1855 2.03876 37.6039 2.63937 36.9879 3.2829C36.6662 3.61622 36.3329 3.96116 35.8832 4.30583C35.077 4.9145 34.0268 5.10058 32.9261 5.29048C31.6743 5.50745 30.3332 5.73988 29.8872 6.84853C30.3409 6.79042 30.802 6.75159 31.271 6.72835C31.833 6.70894 32.3098 7.14712 32.333 7.71273C32.3526 8.27464 31.9142 8.75152 31.3485 8.77476C30.8991 8.79417 30.4571 8.833 30.023 8.89493C30.5659 9.77486 31.7827 9.98786 32.9261 10.1854C34.0268 10.3753 35.077 10.5614 35.8832 11.1699C36.3329 11.5149 36.6662 11.8598 36.9879 12.193C37.6039 12.8364 38.1855 13.4373 39.4451 13.4333C40.29 13.4295 40.8946 12.9063 41.4877 12.3906C42.2979 11.6854 43.0883 10.9955 44.4605 10.9334C46.2664 10.8482 47.2624 11.5497 48.2547 12.2435C48.9562 12.7318 49.6539 13.2202 50.7429 13.1543C51.5298 13.104 52.2235 12.7667 52.7894 12.2357C53.4481 11.6155 53.9443 10.7397 54.2311 9.75503C54.39 9.21239 54.9559 8.89863 55.4988 9.05749C56.0414 9.2124 56.3514 9.77814 56.1963 10.3208C55.8089 11.6579 55.1188 12.8517 54.1926 13.7238C53.2857 14.5726 52.1617 15.1152 50.8632 15.1966C49.0724 15.309 48.0806 14.6152 47.0844 13.9176C46.379 13.4216 45.6657 12.9254 44.5458 12.9759C43.8948 13.0069 43.3674 13.468 42.8251 13.9368C41.953 14.6967 41.0614 15.4718 39.4453 15.4756C37.3135 15.4794 36.4414 14.5766 35.5151 13.6113C35.2361 13.3245 34.9534 13.0262 34.6511 12.7974C34.2519 12.495 33.434 12.3516 32.5813 12.2043C30.6395 11.8672 28.5623 11.5067 27.8995 9.35568C27.3879 9.51085 26.9035 9.68517 26.45 9.8789C25.4964 10.2897 24.7096 10.7588 24.1591 11.22L25.0932 11.7626C26.0892 12.3361 26.756 13.2586 27.0313 14.2896C27.3023 15.2972 27.1939 16.4057 26.6514 17.3824C26.0274 18.6692 24.7405 20.4985 23.8842 21.6806C23.4035 22.3435 22.9229 22.9751 22.4347 23.572H25.6941C26.543 23.572 27.3179 23.9169 27.876 24.479C28.438 25.037 28.7868 25.8121 28.7868 26.661C28.7868 27.5136 28.438 28.2888 27.876 28.8468C27.5546 29.1724 27.159 29.4243 26.7173 29.5793V35.9704H35.9144C37.7128 35.9704 39.3483 36.703 40.5345 37.889C41.4878 38.8424 42.1505 40.0905 42.3715 41.4817H52.557C52.9949 41.4817 53.3632 41.749 53.5143 42.1329L56.2391 47.8845C56.4795 48.3922 56.2624 49.0044 55.7508 49.2447C55.6151 49.3106 55.4639 49.3455 55.3128 49.3455H42.4529V53.3298C42.4529 53.8997 41.9918 54.3569 41.4259 54.3569C40.86 54.3569 40.4027 53.8997 40.4027 53.3298V42.5048C40.4027 41.2723 39.8951 40.1524 39.0812 39.3384C38.271 38.5245 37.1472 38.0205 35.9145 38.0205H26.7174V60.9341H40.4027V57.977C40.4027 57.4111 40.8602 56.9498 41.4259 56.9498C41.9918 56.9498 42.4529 57.4111 42.4529 57.977V60.9341H42.8057C43.6543 60.9341 44.4295 61.279 44.9876 61.841C45.5496 62.3991 45.8947 63.1742 45.8947 64.0269V66.9104C45.8947 67.7593 45.5498 68.5344 44.9876 69.0926C44.4295 69.6545 43.6543 69.9995 42.8057 69.9995H6.54389C5.69131 69.9995 4.92008 69.6547 4.35803 69.0926C3.79994 68.5344 3.45117 67.7593 3.45117 66.9104V64.0269C3.45117 63.1742 3.79994 62.3991 4.35803 61.841C4.92008 61.2791 5.69131 60.9341 6.54389 60.9341H6.89662V37.3546C6.89662 36.7887 7.35408 36.3315 7.91982 36.3315C8.48557 36.3315 8.94686 36.7888 8.94686 37.3546V60.9347H24.6671V29.7541H8.94686V32.7115C8.94686 33.2774 8.4857 33.7345 7.91982 33.7345C7.35395 33.7345 6.89662 33.2772 6.89662 32.7115V29.5798C6.45475 29.4248 6.05949 29.1728 5.73766 28.8474C5.17588 28.2893 4.8308 27.5141 4.8308 26.6615C4.8308 25.8126 5.17574 25.0376 5.73766 24.4795C6.29574 23.9175 7.07121 23.5725 7.91982 23.5725H10.5824C10.7995 21.9406 11.3772 19.6308 12.0126 18.1232C12.9157 15.6503 14.0783 13.2512 15.3962 10.9685ZM16.8883 12.4838L18.3922 13.015C18.9271 13.2049 19.2061 13.79 19.02 14.321C18.8301 14.856 18.2448 15.1351 17.7139 14.945L15.9117 14.3094C15.2877 15.538 14.7413 16.7472 14.2837 17.9062L15.931 18.4914C16.4658 18.6774 16.7449 19.2627 16.5591 19.7974C16.3689 20.3286 15.7839 20.6078 15.2527 20.4216L13.5822 19.8285C13.1328 21.1928 12.8187 22.4563 12.6521 23.5725H19.7446C20.6672 22.5453 21.5236 21.4602 22.326 20.3401L20.0624 19.1542C19.5625 18.8906 19.3689 18.2743 19.6284 17.7744C19.892 17.2744 20.5083 17.0807 21.0082 17.3442L23.4887 18.6424C23.9498 17.9293 24.4035 17.1891 24.8452 16.4255C25.1282 15.9372 25.1979 15.3635 25.0545 14.821C24.9111 14.2938 24.5738 13.8212 24.07 13.5343L20.0624 11.2167C19.5587 10.9299 18.9812 10.8718 18.454 11.0112C17.9306 11.1508 17.458 11.4918 17.1672 11.9956C17.0744 12.1583 16.9814 12.321 16.8883 12.4838ZM11.6484 41.2032C11.6484 40.6373 12.1096 40.18 12.6755 40.18C13.2413 40.18 13.6987 40.6375 13.6987 41.2032V43.1681C13.6987 43.734 13.2412 44.1913 12.6755 44.1913C12.1097 44.1913 11.6484 43.7339 11.6484 43.1681V41.2032ZM19.9153 41.2032C19.9153 40.6373 20.3727 40.18 20.9385 40.18C21.508 40.18 21.9655 40.6375 21.9655 41.2032V43.1681C21.9655 43.734 21.508 44.1913 20.9385 44.1913C20.3726 44.1913 19.9153 43.7339 19.9153 43.1681V41.2032ZM15.7839 41.2032C15.7839 40.6373 16.2411 40.18 16.8071 40.18C17.373 40.18 17.8341 40.6375 17.8341 41.2032V43.1681C17.8341 43.734 17.373 44.1913 16.8071 44.1913C16.2409 44.1913 15.7839 43.7339 15.7839 43.1681V41.2032ZM17.8341 48.8849V51.5982C17.8341 52.1641 17.373 52.6252 16.8071 52.6252C16.2409 52.6252 15.7839 52.1641 15.7839 51.5982V48.8849C15.3925 49.0323 15.0437 49.2609 14.7569 49.5477C14.2295 50.0711 13.908 50.7996 13.908 51.5982C13.908 52.4003 14.2295 53.1251 14.7569 53.6523C15.2799 54.1754 16.0047 54.5009 16.8071 54.5009C17.6092 54.5009 18.334 54.1754 18.8573 53.6523C19.3844 53.1251 19.7099 52.4003 19.7099 51.5982C19.7099 50.7996 19.3844 50.0711 18.8573 49.5477C18.5705 49.2609 18.2216 49.0323 17.8341 48.8849ZM16.8071 46.6486C18.1751 46.6486 19.4114 47.2028 20.3068 48.0982C21.2059 48.9936 21.7603 50.2299 21.7603 51.5982C21.7603 52.9662 21.2059 54.2027 20.3068 55.1018C19.4114 55.9971 18.1751 56.5514 16.8071 56.5514C15.4388 56.5514 14.2025 55.9971 13.3071 55.1018C12.408 54.2027 11.8536 52.9662 11.8536 51.5982C11.8536 50.2299 12.408 48.9936 13.3071 48.0982C14.2025 47.2028 15.4388 46.6486 16.8071 46.6486ZM65.1649 69.0582C65.122 69.5893 64.6763 70 64.1454 70H54.3358C53.7856 70 53.3399 69.5699 53.3126 69.0273L51.9368 52.908C51.8864 52.3152 52.363 51.7997 52.9561 51.7997H56.9172C57.4831 51.7997 57.9443 52.2571 57.9443 52.8268C57.9443 53.3927 57.4831 53.85 56.9172 53.85H54.0723L54.394 57.6249C55.8396 58.3806 57.4169 58.9814 59.099 59.404C60.6183 59.7837 62.2152 60.0201 63.874 60.0822L64.4049 53.85H61.5643C60.9945 53.85 60.537 53.3925 60.537 52.8268C60.537 52.2571 60.9945 51.7997 61.5643 51.7997H65.5214C66.1377 51.7997 66.6103 52.3384 66.5406 52.9468C66.0833 58.3186 65.6261 63.6904 65.1649 69.0582ZM63.6997 62.1284C61.9363 62.0509 60.231 61.7991 58.6032 61.3921C57.2041 61.0392 55.863 60.5702 54.5994 59.9967L55.2777 67.9499H63.2037L63.6997 62.1284ZM51.9136 43.5324H42.4528V47.2958H53.6965L51.9136 43.5324ZM25.6941 25.6226C19.7679 25.6226 13.8458 25.6226 7.91982 25.6226C7.63709 25.6226 7.37719 25.739 7.18742 25.9287C6.99752 26.1188 6.88117 26.3784 6.88117 26.6613C6.88117 26.9481 6.99766 27.2077 7.18742 27.3976C7.37732 27.5875 7.63709 27.7039 7.91982 27.7039H25.6941C25.9768 27.7039 26.2407 27.5874 26.4265 27.3976C26.6167 27.2077 26.7327 26.9481 26.7327 26.6613C26.7327 26.3784 26.6165 26.1186 26.4265 25.9287C26.2407 25.739 25.9768 25.6226 25.6941 25.6226Z" fill="#33CC66"/>
</g>
<defs>
<clipPath id="clip0">
<rect width="70" height="70" fill="white"/>
</clipPath>
</defs>
</svg>
