<svg width="70" height="70" viewBox="0 0 70 70" fill="none" xmlns="http://www.w3.org/2000/svg">
<g clip-path="url(#clip0)">
<path d="M39.9968 30.3028C40.8508 29.4485 40.8472 28.0555 39.9968 27.2046L38.7107 25.9184C37.8693 25.0775 36.4774 25.0537 35.6124 25.9184C35.3341 26.1968 28.2299 33.301 27.9221 33.6087C27.0677 34.4632 27.0675 35.8525 27.9222 36.7069L29.2083 37.9931C30.0627 38.8475 31.4522 38.8474 32.3065 37.9931C35.0646 35.235 37.2954 33.0043 39.9968 30.3028ZM35.5247 31.8743C35.4921 31.9065 35.4534 31.9133 35.4265 31.9133C35.3994 31.9133 35.3603 31.9065 35.3275 31.8738L34.0414 30.5877C33.9889 30.5351 33.9888 30.4428 34.0413 30.3901L37.0627 27.3687C37.089 27.3425 37.1252 27.3292 37.1616 27.3292C37.1979 27.3292 37.234 27.3425 37.2604 27.3687L38.5465 28.6549C38.5993 28.7076 38.5993 28.8 38.5465 28.8526L35.5247 31.8743ZM30.856 36.543C30.8033 36.5956 30.7111 36.5955 30.6585 36.543L29.3724 35.2567C29.3196 35.2041 29.3196 35.1117 29.3724 35.059L32.4975 31.934C32.5282 31.9688 32.5579 32.0044 32.5913 32.0377L33.8773 33.3239C33.9106 33.3572 33.9461 33.3871 33.981 33.418L30.856 36.543Z" fill="#33CC66"/>
<path d="M25.4188 39.0459L24.2536 40.2111C23.853 40.6116 23.853 41.2608 24.2535 41.6613C24.4538 41.8616 24.7162 41.9617 24.9787 41.9617C25.2411 41.9617 25.5036 41.8616 25.7038 41.6613L26.869 40.4961C27.2696 40.0956 27.2696 39.4464 26.8691 39.0459C26.4685 38.6456 25.8192 38.6454 25.4188 39.0459Z" fill="#33CC66"/>
<path d="M6.01579 67.7349C8.56059 70.2797 12.7136 70.2923 15.2737 67.7626L27.8372 55.3493C29.5913 53.6162 32.4365 53.6251 34.1798 55.3684C35.9455 57.134 35.9372 59.9941 34.1607 61.7493L27.586 68.2453C27.1832 68.6433 27.1793 69.2926 27.5774 69.6954C27.9753 70.0982 28.6246 70.1023 29.0276 69.704L35.6022 63.208C38.1886 60.6524 38.2006 56.4889 35.6301 53.9181C33.0916 51.3796 28.9494 51.3673 26.3957 53.8904L13.8322 66.3037C12.0719 68.0432 9.21607 68.0346 7.46594 66.2846C5.70131 64.5197 5.70131 61.664 7.46608 59.8992L11.2529 56.1122C12.2878 57.0459 13.8628 56.9978 14.8387 56.0222L17.5017 53.359C18.8682 54.1292 20.6007 53.9638 21.8013 52.8801L33.672 42.1624C34.0923 41.7829 34.1254 41.1343 33.7458 40.714C33.3664 40.2936 32.7178 40.2608 32.2975 40.6401L20.4268 51.3577C19.7728 51.9484 18.7722 51.923 18.1489 51.2996L18.1305 51.2813C18.1304 51.281 18.1301 51.2809 18.13 51.2806L14.6345 47.785C14.6341 47.7846 14.6336 47.7842 14.6331 47.7838L14.6155 47.7661C13.9923 47.1429 13.9667 46.1423 14.5573 45.4881L36.5893 21.0858C36.6496 21.1585 44.7517 29.2607 44.8245 29.3215C44.8262 29.3229 44.8276 29.3246 44.8294 29.326L35.8543 37.4291C35.434 37.8087 35.4009 38.4572 35.7805 38.8775C36.1601 39.2979 36.8086 39.3308 37.2289 38.9515L47.0742 30.0626C47.8665 30.0183 48.6039 29.6904 49.167 29.1275L50.4484 27.8461C50.884 28.0151 51.3511 28.105 51.832 28.1061H51.8642C55.5578 28.1061 59.0446 26.6858 61.6852 24.1049C66.4739 19.4245 67.2855 11.9562 63.6147 6.3469C63.3045 5.873 62.669 5.74009 62.1952 6.05033C61.7213 6.36044 61.5884 6.99609 61.8986 7.46999C65.0343 12.2617 64.3416 18.6409 60.2516 22.6382C57.9963 24.8425 55.0188 26.0553 51.864 26.0553C51.8549 26.0553 51.8454 26.0553 51.8363 26.0553C51.3457 26.0542 50.8992 25.8569 50.5721 25.5297L40.3857 15.3433C40.0593 15.0173 39.861 14.571 39.86 14.0795C39.8526 10.8627 41.1012 7.83834 43.3758 5.56385C47.5827 1.35697 54.1527 0.925451 58.8442 4.28926C59.3042 4.61933 59.9452 4.51377 60.2753 4.0534C60.6052 3.59304 60.4996 2.95246 60.0393 2.62253C54.5276 -1.32962 46.8389 -0.799933 41.9254 4.11329C39.2623 6.7765 37.8004 10.3174 37.809 14.0839C37.8101 14.5646 37.9001 15.0314 38.0691 15.4667L36.7875 16.7483C36.2072 17.3287 35.8986 18.0773 35.8546 18.8387L13.0348 44.1137C11.9437 45.3224 11.7923 47.0586 12.5558 48.4133L9.89261 51.0763C8.90857 52.0604 8.88068 53.6403 9.80278 54.6619L6.01579 58.4489C3.45567 61.0092 3.45567 65.1748 6.01579 67.7349ZM38.2379 18.1986L39.2892 17.1471L48.7679 26.6257L47.7164 27.6772C47.2681 28.1257 46.5306 28.1326 46.0737 27.6883C46.0698 27.6844 46.0654 27.6812 46.0616 27.6772L38.2379 19.8535C38.2366 19.8522 38.2353 19.8507 38.234 19.8492C37.7837 19.394 37.783 18.6533 38.2379 18.1986ZM11.343 52.5266L13.9092 49.9605L15.9545 52.0058L13.3884 54.572C13.1721 54.7883 12.8203 54.7883 12.6037 54.572C12.1341 54.1024 11.8119 53.78 11.343 53.3113C11.1265 53.095 11.1265 52.7431 11.343 52.5266Z" fill="#33CC66"/>
</g>
<defs>
<clipPath id="clip0">
<rect width="70" height="70" fill="white"/>
</clipPath>
</defs>
</svg>
