<svg width="60" height="60" viewBox="0 0 60 60" fill="none" xmlns="http://www.w3.org/2000/svg">
<g clip-path="url(#clip0)">
<path d="M41.8658 11.2051C41.8658 8.07175 39.3165 5.52246 36.1831 5.52246C33.0493 5.52246 30.5 8.07175 30.5 11.2051C30.5 14.339 33.0493 16.8883 36.1831 16.8883C39.3165 16.8883 41.8658 14.339 41.8658 11.2051ZM32.2569 11.2051C32.2569 9.04037 34.0184 7.27936 36.1831 7.27936C38.3479 7.27936 40.1089 9.04037 40.1089 11.2051C40.1089 13.3704 38.3479 15.1314 36.1831 15.1314C34.0184 15.1314 32.2569 13.3699 32.2569 11.2051Z" fill="white"/>
<path d="M26.5023 8.19257C26.9875 8.19257 27.3808 7.79935 27.3808 7.31412C27.3808 6.82889 26.9875 6.43567 26.5023 6.43567H24.1929C23.7077 6.43567 23.3145 6.82889 23.3145 7.31412C23.3145 7.79935 23.7077 8.19257 24.1929 8.19257H26.5023Z" fill="white"/>
<path d="M6.82962 8.19257H18.5026C18.9878 8.19257 19.381 7.79935 19.381 7.31412C19.381 6.82889 18.9878 6.43567 18.5026 6.43567H6.82962C6.34439 6.43567 5.95117 6.82889 5.95117 7.31412C5.95117 7.79935 6.34439 8.19257 6.82962 8.19257Z" fill="white"/>
<path d="M6.82962 15.9745H9.83987C10.3251 15.9745 10.7183 15.5813 10.7183 15.0961C10.7183 14.6109 10.3251 14.2177 9.83987 14.2177H6.82962C6.34439 14.2177 5.95117 14.6109 5.95117 15.0961C5.95117 15.5813 6.34439 15.9745 6.82962 15.9745Z" fill="white"/>
<path d="M15.5308 14.2177C15.0456 14.2177 14.6523 14.6109 14.6523 15.0961C14.6523 15.5813 15.0456 15.9745 15.5308 15.9745H17.4337C17.9189 15.9745 18.3122 15.5813 18.3122 15.0961C18.3122 14.6109 17.9189 14.2177 17.4337 14.2177H15.5308Z" fill="white"/>
<path d="M6.82962 12.0836H26.5029C26.9882 12.0836 27.3814 11.6903 27.3814 11.2051C27.3814 10.7199 26.9882 10.3267 26.5029 10.3267H6.82962C6.34439 10.3267 5.95117 10.7199 5.95117 11.2051C5.95117 11.6903 6.34439 12.0836 6.82962 12.0836Z" fill="white"/>
<path d="M9.13263 26.6405H38.6845C40.4386 26.6405 41.8655 25.2132 41.8655 23.4591C41.8655 21.7049 40.4386 20.2781 38.6845 20.2781H9.13263C7.37848 20.2781 5.95117 21.7049 5.95117 23.4591C5.95117 25.2132 7.37848 26.6405 9.13263 26.6405ZM9.13263 22.035H38.6845C39.4695 22.035 40.1086 22.6736 40.1086 23.4591C40.1086 24.2446 39.4695 24.8836 38.6845 24.8836H9.13263C8.34711 24.8836 7.70807 24.2446 7.70807 23.4591C7.70807 22.6736 8.34711 22.035 9.13263 22.035Z" fill="white"/>
<path d="M9.13263 34.6985H38.6845C40.4386 34.6985 41.8655 33.2712 41.8655 31.5171C41.8655 29.7629 40.4386 28.3361 38.6845 28.3361H9.13263C7.37848 28.3361 5.95117 29.7629 5.95117 31.5171C5.95117 33.2712 7.37848 34.6985 9.13263 34.6985ZM9.13263 30.093H38.6845C39.4695 30.093 40.1086 30.732 40.1086 31.5171C40.1086 32.3026 39.4695 32.9416 38.6845 32.9416H9.13263C8.34711 32.9416 7.70807 32.3026 7.70807 31.5171C7.70807 30.732 8.34711 30.093 9.13263 30.093Z" fill="white"/>
<path d="M9.13263 42.7565H38.6845C40.4386 42.7565 41.8655 41.3297 41.8655 39.5755C41.8655 37.8214 40.4386 36.394 38.6845 36.394H9.13263C7.37848 36.394 5.95117 37.8214 5.95117 39.5755C5.95117 41.3297 7.37848 42.7565 9.13263 42.7565ZM9.13263 38.1509H38.6845C39.4695 38.1509 40.1086 38.79 40.1086 39.5755C40.1086 40.3606 39.4695 40.9996 38.6845 40.9996H9.13263C8.34711 40.9996 7.70807 40.3606 7.70807 39.5755C7.70807 38.79 8.34711 38.1509 9.13263 38.1509Z" fill="white"/>
<path d="M9.13263 50.8145H29.8625C31.6166 50.8145 33.0439 49.3876 33.0439 47.6335C33.0439 45.8793 31.6166 44.452 29.8625 44.452H9.13263C7.37848 44.452 5.95117 45.8793 5.95117 47.6335C5.95117 49.3876 7.37848 50.8145 9.13263 50.8145ZM9.13263 46.2089H29.8625C30.648 46.2089 31.2866 46.848 31.2866 47.6335C31.2866 48.419 30.648 49.0576 29.8625 49.0576H9.13263C8.34711 49.0576 7.70807 48.419 7.70807 47.6335C7.70807 46.848 8.34711 46.2089 9.13263 46.2089Z" fill="white"/>
<path d="M57.2507 46.9574H53.931V44.0254C53.931 43.2761 53.4787 42.6311 52.8337 42.3463L54.1209 36.4458C54.4904 34.7502 54.0422 32.9471 52.9207 31.6223C51.8518 30.3598 50.2904 29.6356 48.636 29.6356C48.3595 29.6356 48.0858 29.6576 47.8162 29.697V2.91824C47.8162 1.3092 46.507 0 44.8979 0H2.91824C1.3092 0 0 1.3092 0 2.91824V12.3427C0 12.8279 0.393219 13.2211 0.878449 13.2211C1.36368 13.2211 1.7569 12.8279 1.7569 12.3427V2.91824C1.7569 2.27783 2.27783 1.7569 2.91824 1.7569H44.8979C45.5383 1.7569 46.0593 2.27783 46.0593 2.91824V30.2623C45.4143 30.5956 44.8325 31.0538 44.3509 31.6223C43.6871 32.4069 43.2513 33.3582 43.0911 34.373C43.0151 34.8523 43.3424 35.3023 43.8213 35.3778C44.3015 35.4538 44.7505 35.1265 44.8265 34.6472C44.9364 33.95 45.2357 33.2964 45.6921 32.7576C46.4264 31.8901 47.4994 31.3925 48.636 31.3925C49.7726 31.3925 50.8456 31.8901 51.5799 32.7576C52.3503 33.6676 52.6584 34.9063 52.4043 36.0713L51.0695 42.1902H46.2025L45.3827 38.4311C45.2792 37.9573 44.8119 37.657 44.3372 37.76C43.8629 37.8635 43.5626 38.3318 43.6661 38.8055L44.4383 42.3463C43.7929 42.6311 43.3406 43.2761 43.3406 44.0254V46.9574H40.0214C38.5052 46.9574 37.2716 48.1906 37.2716 49.7067V51.9452C37.2716 53.4613 38.5052 54.6945 40.0214 54.6945H40.0681L40.6013 57.0612C40.6966 57.4832 40.8591 57.8737 41.0765 58.223H2.91824C2.27783 58.223 1.7569 57.702 1.7569 57.0616V16.3737C1.7569 15.8885 1.36368 15.4953 0.878449 15.4953C0.393219 15.4953 0 15.8885 0 16.3737V57.0616C0 58.6707 1.3092 59.9803 2.91824 59.9803L53.0347 59.9689C54.7897 59.9689 56.2852 58.7732 56.6707 57.0612L57.204 54.6945H57.2507C58.7663 54.6945 60 53.4613 60 51.9452V49.7067C60 48.1906 58.7663 46.9574 57.2507 46.9574ZM45.0975 44.0254C45.0975 43.9824 45.1328 43.9471 45.1758 43.9471H52.0963C52.1393 43.9471 52.1741 43.9824 52.1741 44.0254V46.9574H45.0975V44.0254ZM54.9568 56.6748C54.7527 57.5803 53.9626 58.212 53.0347 58.212H44.2374C43.3095 58.212 42.5194 57.5803 42.3152 56.6748L41.8694 54.6945H55.4027L54.9568 56.6748ZM58.2431 51.9452C58.2431 52.4922 57.7977 52.9376 57.2507 52.9376H40.0214C39.4743 52.9376 39.0289 52.4922 39.0289 51.9452V49.7067C39.0289 49.1592 39.4743 48.7143 40.0214 48.7143H57.2507C57.7982 48.7143 58.2431 49.1592 58.2431 49.7067V51.9452Z" fill="white"/>
</g>
<defs>
<clipPath id="clip0">
<rect width="60" height="60" fill="white"/>
</clipPath>
</defs>
</svg>
