<svg width="70" height="70" viewBox="0 0 70 70" fill="none" xmlns="http://www.w3.org/2000/svg">
<g clip-path="url(#clip0)">
<path d="M57.759 67.5061C57.5478 67.5061 57.334 67.4875 57.1189 67.4491C56.1653 67.2786 55.3354 66.7469 54.7817 65.9521C54.7717 65.9379 54.7618 65.9234 54.7521 65.9091C54.7378 65.9192 54.7236 65.9293 54.7093 65.9393C53.9145 66.493 52.9517 66.7041 51.9981 66.5335C50.9954 66.3539 50.1623 65.7763 49.6328 64.9924C49.6181 65.0028 49.6034 65.0131 49.5886 65.0237C48.7939 65.5775 47.8315 65.7886 46.8773 65.6177C45.924 65.4472 45.094 64.9155 44.5403 64.1208C44.53 64.106 44.5199 64.0911 44.5097 64.0762C43.7412 64.628 42.7591 64.8811 41.7568 64.702C40.0396 64.3949 38.8198 62.9192 38.7701 61.2408L25.534 53.5281C25.0446 53.2429 24.8791 52.6151 25.1643 52.1258C25.4493 51.6367 26.0771 51.4713 26.5665 51.7561L40.3512 59.7884C40.7231 60.0053 40.9201 60.4312 40.8442 60.855C40.6914 61.7102 41.2627 62.5303 42.1178 62.6833C42.9723 62.8367 43.7931 62.2648 43.9461 61.4097C44.1672 60.1736 43.8936 58.9252 43.1757 57.8948C42.8521 57.4301 42.9664 56.791 43.431 56.4673C43.8958 56.1437 44.5347 56.258 44.8584 56.7225C45.8893 58.2025 46.2822 59.9953 45.9648 61.7709C45.9646 61.7718 45.9645 61.7726 45.9642 61.7736C45.8911 62.1869 45.9828 62.6043 46.2229 62.949C46.4635 63.2942 46.8239 63.5252 47.2383 63.5993C47.653 63.673 48.0709 63.5817 48.4163 63.3412C48.7615 63.1006 48.9925 62.7402 49.0666 62.3258C49.3468 60.7598 49.1071 59.1887 48.3736 57.782C48.1118 57.2798 48.3066 56.6605 48.8088 56.3987C49.3104 56.137 49.9301 56.3314 50.1921 56.8338C51.1367 58.6453 51.4459 60.668 51.0861 62.6835C51.0858 62.6847 51.0857 62.6858 51.0854 62.6869C50.9326 63.5421 51.5039 64.3622 52.3591 64.5152C52.7731 64.5893 53.1916 64.4977 53.5369 64.2571C53.8821 64.0165 54.1132 63.6559 54.1873 63.2415C54.5229 61.3647 54.2801 59.4613 53.4848 57.7369C53.2477 57.2227 53.4722 56.6134 53.9866 56.3764C54.5006 56.1393 55.11 56.3638 55.3471 56.8781C56.3189 58.9852 56.6159 61.3107 56.2059 63.6026C56.2058 63.6034 56.2057 63.6044 56.2055 63.6052C56.1322 64.0187 56.224 64.4359 56.464 64.7807C56.7047 65.1259 57.0652 65.357 57.4796 65.4311C58.3344 65.5842 59.1549 65.0127 59.3079 64.1574C59.6985 61.9725 59.455 59.7406 58.6037 57.7031C58.3852 57.1807 58.6319 56.5799 59.1544 56.3616C59.6764 56.1429 60.2775 56.3898 60.4959 56.9123C61.2008 58.5993 61.5526 60.3988 61.5399 62.2123L62.5663 62.805C63.462 63.3221 64.5025 63.4495 65.4964 63.1642C66.4794 62.882 67.2878 62.2313 67.7755 61.3304C68.1576 60.4573 67.8787 59.3199 67.1594 58.815L66.3335 58.3381C60.1951 54.794 54.8263 49.8348 50.8075 43.9965C50.4863 43.53 50.6043 42.8916 51.0706 42.5704C51.5371 42.249 52.1757 42.3672 52.4967 42.8336C56.3437 48.4224 61.483 53.1696 67.3587 56.5622L68.2188 57.0587C68.2391 57.0704 68.2589 57.0827 68.2783 57.0958C69.859 58.1581 70.4524 60.4038 69.6295 62.2085C69.6209 62.2272 69.6119 62.2456 69.6021 62.2637C68.8528 63.6755 67.5955 64.6954 66.0622 65.1355C64.5285 65.576 62.9228 65.3791 61.5412 64.5813L61.3368 64.4633C61.3335 64.4819 61.3303 64.5003 61.327 64.5188C61.0134 66.2711 59.4812 67.5061 57.759 67.5061ZM3.7599 61.35C3.19361 61.35 2.73451 60.8911 2.73451 60.3247V57.2485H1.02553C0.459242 57.2485 0.000141853 56.7895 0.000141853 56.2231C0.000141853 55.6567 0.459242 55.1977 1.02553 55.1977H2.73451V52.1216C2.73451 51.5551 3.19361 51.0962 3.7599 51.0962C4.32619 51.0962 4.78529 51.5551 4.78529 52.1216V55.1977H6.49427C7.06056 55.1977 7.51966 55.6567 7.51966 56.2231C7.51966 56.7895 7.06056 57.2485 6.49427 57.2485H4.78529V60.3247C4.78529 60.8911 4.32619 61.35 3.7599 61.35ZM16.5167 57.3946C14.8204 57.3946 13.4405 56.0146 13.4405 54.3185C13.4405 52.6223 14.8204 51.2423 16.5167 51.2423C18.213 51.2423 19.5929 52.6223 19.5929 54.3185C19.5929 56.0146 18.213 57.3946 16.5167 57.3946ZM16.5167 53.2931C15.9512 53.2931 15.4913 53.753 15.4913 54.3185C15.4913 54.8839 15.9512 55.3439 16.5167 55.3439C17.0822 55.3439 17.5421 54.8839 17.5421 54.3185C17.5421 53.753 17.0822 53.2931 16.5167 53.2931ZM22.7074 51.7199C22.5322 51.7199 22.3546 51.6749 22.1921 51.5803L10.0004 44.4761C7.45376 42.9922 5.65331 40.4852 5.06078 37.5978C4.46824 34.7105 5.1357 31.6969 6.89212 29.3299L11.3076 23.3792L0.137544 4.03233C-0.1456 3.54193 0.022427 2.9148 0.512836 2.63165C1.00325 2.34865 1.63037 2.5164 1.91352 3.00695L13.4203 22.9369C13.6247 23.2909 13.5993 23.7324 13.3558 24.0606L8.53917 30.5519C7.13001 32.4512 6.59448 34.8689 7.06985 37.1856C7.54536 39.502 8.98979 41.5136 11.033 42.7041L23.2248 49.8083C23.7141 50.0935 23.8797 50.7213 23.5945 51.2106C23.4039 51.5375 23.0603 51.7199 22.7074 51.7199ZM41.8859 48.6654C41.3195 48.6654 40.8605 48.2065 40.8605 47.6401V44.5639H39.1515C38.5851 44.5639 38.1261 44.1049 38.1261 43.5385C38.1261 42.9721 38.5851 42.5131 39.1515 42.5131H40.8605V39.437C40.8605 38.8705 41.3195 38.4116 41.8859 38.4116C42.4523 38.4116 42.9113 38.8705 42.9113 39.437V42.5131H44.6203C45.1867 42.5131 45.6457 42.9721 45.6457 43.5385C45.6457 44.1049 45.1867 44.5639 44.6203 44.5639H42.9113V47.6401C42.9113 48.2063 42.4522 48.6654 41.8859 48.6654ZM49.6679 41.2956C49.3135 41.2956 48.969 41.1117 48.779 40.7828L27.5608 4.03233C27.2777 3.54193 27.4457 2.9148 27.9361 2.63165C28.4265 2.34865 29.0535 2.5164 29.3368 3.00695L50.5551 39.7574C50.8382 40.2478 50.6702 40.875 50.1798 41.1581C50.0183 41.2512 49.842 41.2956 49.6679 41.2956ZM66.2402 39.0548C65.6738 39.0548 65.2149 38.5959 65.2149 38.0294V34.9533H63.5059C62.9394 34.9533 62.4805 34.4943 62.4805 33.9279C62.4805 33.3615 62.9394 32.9025 63.5059 32.9025H65.2149V29.8263C65.2149 29.2599 65.6738 28.8009 66.2402 28.8009C66.8067 28.8009 67.2656 29.2599 67.2656 29.8263V32.9025H68.9746C69.541 32.9025 70 33.3615 70 33.9279C70 34.4943 69.541 34.9533 68.9746 34.9533H67.2656V38.0294C67.2656 38.5959 66.8067 39.0548 66.2402 39.0548ZM20.0394 33.359C19.8641 33.359 19.6864 33.314 19.5241 33.2194C17.8474 32.2424 16.6619 30.5917 16.2717 28.6907C15.8815 26.7897 16.321 24.8055 17.4774 23.247C17.8148 22.7923 18.4571 22.6973 18.9119 23.0344C19.3666 23.372 19.4617 24.0141 19.1243 24.4689C18.3151 25.5596 18.0076 26.9481 18.2806 28.2784C18.5537 29.6087 19.3831 30.7638 20.5564 31.4474C21.0458 31.7326 21.2113 32.3604 20.9261 32.8496C20.7358 33.1766 20.3924 33.359 20.0394 33.359ZM45.0463 21.1092C43.3501 21.1092 41.9701 19.7291 41.9701 18.033C41.9701 16.3369 43.3501 14.9568 45.0463 14.9568C46.7424 14.9568 48.1224 16.3369 48.1224 18.033C48.1224 19.7291 46.7424 21.1092 45.0463 21.1092ZM45.0463 17.0076C44.4808 17.0076 44.0209 17.4675 44.0209 18.033C44.0209 18.5985 44.4808 19.0584 45.0463 19.0584C45.6117 19.0584 46.0717 18.5985 46.0717 18.033C46.0717 17.4675 45.6117 17.0076 45.0463 17.0076Z" fill="#33CC66"/>
</g>
<defs>
<clipPath id="clip0">
<rect width="70" height="70" fill="white"/>
</clipPath>
</defs>
</svg>
