<svg width="60" height="60" viewBox="0 0 60 60" fill="none" xmlns="http://www.w3.org/2000/svg">
<g clip-path="url(#clip0)">
<path d="M33.4121 48.9914C35.4533 47.8089 36.8303 45.6021 36.8303 43.0782C36.8303 39.3119 33.7664 36.2478 30.0001 36.2478C26.2338 36.2478 23.1697 39.3119 23.1697 43.0782C23.1697 45.6021 24.5468 47.8089 26.5879 48.9914C24.2383 50.2244 22.6309 52.6872 22.6309 55.5199V59.121C22.6309 59.6064 23.0244 60 23.5098 60H36.4902C36.9757 60 37.3691 59.6064 37.3691 59.121V55.5199C37.3692 52.6872 35.7618 50.2244 33.4121 48.9914ZM24.9275 43.0782C24.9275 40.2812 27.203 38.0056 30.0001 38.0056C32.797 38.0056 35.0725 40.2812 35.0725 43.0782C35.0725 45.8752 32.797 48.1507 30.0001 48.1507C27.203 48.1507 24.9275 45.8751 24.9275 43.0782ZM35.6114 58.2421H24.3888V55.5199C24.3888 52.4258 26.906 49.9086 30.0001 49.9086C33.0941 49.9086 35.6114 52.4258 35.6114 55.5199V58.2421Z" fill="white"/>
<path d="M53.7732 48.9914C55.8144 47.8089 57.1916 45.6021 57.1916 43.0782C57.1916 39.3119 54.1275 36.2478 50.3612 36.2478C46.5949 36.2478 43.5309 39.3119 43.5309 43.0782C43.5309 45.6021 44.908 47.8089 46.9491 48.9914C44.5995 50.2244 42.9922 52.6872 42.9922 55.5199V59.121C42.9922 59.6064 43.3856 60 43.8711 60H46.8907C47.3762 60 47.7696 59.6064 47.7696 59.121C47.7696 58.6357 47.3762 58.2421 46.8907 58.2421H44.75V55.5199C44.75 52.4258 47.2672 49.9086 50.3613 49.9086C53.4554 49.9086 55.9727 52.4258 55.9727 55.5199V58.2421H50.9922C50.5067 58.2421 50.1133 58.6357 50.1133 59.121C50.1133 59.6064 50.5067 60 50.9922 60H56.8516C57.3371 60 57.7305 59.6064 57.7305 59.121V55.5199C57.7303 52.6872 56.1228 50.2244 53.7732 48.9914ZM45.2886 43.0782C45.2886 40.2812 47.5641 38.0056 50.3611 38.0056C53.1581 38.0056 55.4336 40.2812 55.4336 43.0782C55.4336 45.8752 53.1581 48.1508 50.3611 48.1508C47.5641 48.1507 45.2886 45.8751 45.2886 43.0782Z" fill="white"/>
<path d="M22.6328 8.87939C23.1765 8.87939 23.6172 8.43867 23.6172 7.89502C23.6172 7.35136 23.1765 6.91064 22.6328 6.91064C22.0892 6.91064 21.6484 7.35136 21.6484 7.89502C21.6484 8.43867 22.0892 8.87939 22.6328 8.87939Z" fill="white"/>
<path d="M19.6914 8.59195C20.0757 8.20758 20.0757 7.58441 19.6914 7.20004C19.307 6.81568 18.6838 6.81568 18.2995 7.20004C17.9151 7.58441 17.9151 8.20759 18.2995 8.59195C18.6838 8.97631 19.307 8.97631 19.6914 8.59195Z" fill="white"/>
<path d="M26.2656 8.87939C26.8093 8.87939 27.25 8.43867 27.25 7.89502C27.25 7.35136 26.8093 6.91064 26.2656 6.91064C25.722 6.91064 25.2812 7.35136 25.2812 7.89502C25.2812 8.43867 25.722 8.87939 26.2656 8.87939Z" fill="white"/>
<path d="M44.9402 35.707L44.3047 33.5652C44.534 33.3813 44.7502 33.1874 44.9536 32.985H49.1887C50.3195 32.985 51.2395 32.065 51.2395 30.9342V2.05078C51.2395 0.920039 50.3195 0 49.1887 0H10.8103C9.67953 0 8.75949 0.920039 8.75949 2.05078V4.60418C8.75949 5.08957 9.15301 5.48309 9.6384 5.48309C10.1238 5.48309 10.5173 5.08957 10.5173 4.60418V2.05078C10.5173 1.8893 10.6488 1.75781 10.8103 1.75781H17.2651C15.4191 3.14848 14.242 5.23969 14.242 7.575C14.242 9.765 15.2571 11.7947 17.0489 13.2314L16.4134 15.3732C16.2144 16.0441 16.841 16.6628 17.506 16.4659L22.0109 15.1293C22.2191 15.1431 22.4272 15.1501 22.6316 15.1501C27.2577 15.1501 31.0212 11.7519 31.0212 7.575C31.0212 5.23969 29.8441 3.14848 27.9982 1.75781H49.1886C49.3502 1.75781 49.4816 1.8893 49.4816 2.05078V30.9341C49.4816 31.0956 49.3502 31.2271 49.1886 31.2271H46.2692C46.8451 30.1586 47.1114 28.9978 47.1114 27.9088C47.1114 23.7319 43.3479 20.3338 38.7218 20.3338C32.575 20.3338 28.4525 26.1618 31.1807 31.2272H16.462C16.3562 28.85 15.0058 26.6888 12.9121 25.5407C14.7822 24.3959 15.9276 22.3661 15.9276 20.1724C15.9276 17.0133 13.5785 14.3747 10.5174 13.9445V8.70574C10.5174 8.22035 10.1239 7.82684 9.63851 7.82684C9.15312 7.82684 8.75961 8.22035 8.75961 8.70574V13.9459C5.70652 14.3749 3.34941 17.0029 3.34941 20.1723C3.34941 22.4421 4.55832 24.4346 6.36582 25.5407C4.24777 26.7019 2.80836 28.9528 2.80836 31.534V43.0759V43.0781C2.80836 43.0781 2.80836 43.0796 2.80836 43.0803C2.80836 45.5169 4.11617 47.7688 6.2266 48.9913C3.87699 50.2243 2.26953 52.6871 2.26953 55.5198V59.121C2.26953 59.6064 2.66305 59.9999 3.14844 59.9999H16.1289C16.6143 59.9999 17.0079 59.6064 17.0079 59.121V55.5198C17.0079 52.6873 15.4005 50.2245 13.0508 48.9913C15.1257 47.7893 16.469 45.5583 16.469 43.0781V32.9849H32.5007C34.0371 34.5185 36.257 35.4838 38.7222 35.4838C38.9266 35.4838 39.1348 35.4768 39.3429 35.4629L43.8478 36.7996C44.5164 36.9975 45.1382 36.3746 44.9402 35.707ZM29.2637 7.575C29.2637 10.7827 26.2886 13.3923 22.6318 13.3923C21.9985 13.3923 21.9233 13.3215 21.6659 13.3982L18.5598 14.3197L18.9092 13.142C19.0177 12.776 18.8777 12.3818 18.5626 12.1664C16.9341 11.0532 16 9.3798 16 7.575C16 4.36734 18.9751 1.75781 22.6319 1.75781C26.2886 1.75781 29.2637 4.36746 29.2637 7.575ZM5.10711 20.1724C5.10711 17.6739 7.13984 15.6411 9.6384 15.6411C12.137 15.6411 14.1697 17.6739 14.1697 20.1724C14.1697 22.671 12.137 24.7037 9.6384 24.7037C7.13984 24.7037 5.10711 22.671 5.10711 20.1724ZM15.2498 55.5199V58.2422H4.02711V55.5199C4.02711 52.4258 6.5443 49.9086 9.6384 49.9086C12.7325 49.9086 15.2498 52.4258 15.2498 55.5199ZM9.6384 48.1507C6.85426 48.1507 4.58949 45.8957 4.56687 43.1197C4.56676 43.1061 4.56582 43.0916 4.56582 43.0781C4.56582 40.281 6.84148 38.0055 9.63828 38.0055C12.4353 38.0055 14.7109 40.2811 14.7109 43.0781C14.711 45.8469 12.4607 48.1507 9.6384 48.1507ZM14.711 32.106V38.5086C11.9807 35.4772 7.26371 35.5168 4.56594 38.5086V31.5341C4.56594 28.7371 6.84137 26.4615 9.6384 26.4615C12.4354 26.4615 14.711 28.7371 14.711 31.5341V32.106ZM42.4446 33.4758L42.794 34.6535C38.6913 33.4363 39.9869 33.726 38.7219 33.726C36.4637 33.726 34.469 32.7298 33.2723 31.2183C33.2523 31.1931 33.2319 31.1681 33.2123 31.1428C32.6839 30.4525 32.3193 29.6579 32.1683 28.8023C32.1669 28.7944 32.1656 28.7864 32.1643 28.7783C31.5595 25.2546 34.6793 22.0916 38.7218 22.0916C42.6109 22.0916 45.7412 25.0498 45.3141 28.5396C45.3118 28.5587 45.3099 28.5778 45.3073 28.5969C45.1082 30.0845 44.2414 31.5089 42.7911 32.5002C42.4761 32.7156 42.3361 33.1098 42.4446 33.4758Z" fill="white"/>
<path d="M38.7227 27.2444C38.179 27.2444 37.7383 27.6851 37.7383 28.2288C37.7383 28.7724 38.179 29.2131 38.7227 29.2131C39.2663 29.2131 39.707 28.7724 39.707 28.2288C39.707 27.6851 39.2663 27.2444 38.7227 27.2444Z" fill="white"/>
<path d="M42.3555 29.2131C42.8991 29.2131 43.3398 28.7724 43.3398 28.2288C43.3398 27.6851 42.8991 27.2444 42.3555 27.2444C41.8118 27.2444 41.3711 27.6851 41.3711 28.2288C41.3711 28.7724 41.8118 29.2131 42.3555 29.2131Z" fill="white"/>
<path d="M35.2378 29.2041C35.7743 29.1171 36.1388 28.6116 36.0518 28.075C35.9648 27.5384 35.4593 27.174 34.9227 27.261C34.3862 27.3479 34.0217 27.8534 34.1087 28.39C34.1957 28.9266 34.7012 29.2911 35.2378 29.2041Z" fill="white"/>
</g>
<defs>
<clipPath id="clip0">
<rect width="60" height="60" fill="white"/>
</clipPath>
</defs>
</svg>
