<svg width="70" height="70" viewBox="0 0 70 70" fill="none" xmlns="http://www.w3.org/2000/svg">
<g clip-path="url(#clip0)">
<path d="M60.9779 33.5793H58.4824C57.0985 33.5793 55.9727 34.7052 55.9727 36.0892V38.5846C55.9727 39.9685 57.0985 41.0944 58.4824 41.0944H60.9779C62.3618 41.0944 63.4877 39.9685 63.4877 38.5846V36.0892C63.4877 34.7052 62.3617 33.5793 60.9779 33.5793ZM61.4381 38.5845C61.4381 38.8382 61.2317 39.0447 60.9779 39.0447H58.4824C58.2287 39.0447 58.0222 38.8382 58.0222 38.5845V36.0891C58.0222 35.8353 58.2287 35.6288 58.4824 35.6288H60.9779C61.2317 35.6288 61.4381 35.8353 61.4381 36.0891V38.5845Z" fill="#33CC66"/>
<path d="M68.9042 28.5635C68.194 27.848 67.2475 27.452 66.2396 27.4484L64.1036 27.4408L64.1502 14.5736C64.1537 13.6141 63.7826 12.711 63.1054 12.0311C62.4283 11.351 61.5267 10.9763 60.567 10.9757L56.9298 10.9738V4.17889C56.9298 2.75496 55.7716 1.59668 54.3476 1.59668H15.5269C14.103 1.59668 12.9447 2.75496 12.9447 4.17889V10.9513L9.50252 10.9493C9.50184 10.9493 9.50116 10.9493 9.50047 10.9493C7.5309 10.9493 5.92282 12.5513 5.91557 14.5214L5.86963 27.2302L3.88366 27.2231C3.87887 27.2231 3.8745 27.2231 3.86985 27.2231C1.79528 27.2231 0.103384 28.9073 0.0960016 30.9836L2.50409e-05 57.4943C-0.00749449 59.5754 1.67948 61.2746 3.76047 61.2821L12.5282 61.3138L10.8452 66.0084C10.6627 66.5177 10.7391 67.0863 11.0498 67.5293C11.3604 67.9723 11.8689 68.2379 12.41 68.24L57.5827 68.4035C57.5847 68.4035 57.5866 68.4035 57.5887 68.4035C58.1275 68.4035 58.6353 68.1418 58.948 67.7027C59.2617 67.2619 59.3425 66.6939 59.1636 66.1832L57.5146 61.4766L66.1164 61.5077C66.1212 61.5077 66.1256 61.5077 66.1303 61.5077C68.2049 61.5075 69.8968 59.8234 69.9042 57.7472L70 31.2362C70.0036 30.2282 69.6145 29.2789 68.9042 28.5635ZM56.9298 13.0234H56.93L60.566 13.0253C60.977 13.0255 61.3631 13.1861 61.6532 13.4774C61.9433 13.7688 62.1022 14.1554 62.1007 14.5664L62.0541 27.4334L56.9298 27.4149V13.0234ZM14.9942 4.17889C14.9942 3.88522 15.2332 3.64623 15.5269 3.64623H54.3478C54.6415 3.64623 54.8804 3.88522 54.8804 4.17889V27.4073L14.9942 27.263V4.17889ZM7.96526 14.5288C7.96827 13.6849 8.65692 12.9989 9.50061 12.9989C9.50088 12.9989 9.5013 12.9989 9.50157 12.9989L12.9448 13.0008V27.2558L7.91932 27.2376L7.96526 14.5288ZM10.1873 59.2556L10.2043 54.5573C10.2054 54.2439 10.4607 53.9899 10.7736 53.9899C10.7744 53.9899 10.7751 53.9899 10.7758 53.9899L15.1479 54.0058L14.2625 56.4757L13.2958 59.1724L13.262 59.2667L10.1873 59.2556ZM12.9565 66.1925L14.9464 60.6415C14.9465 60.6411 14.9468 60.6406 14.9471 60.6402L17.3239 54.0096L52.7717 54.1377L55.1007 60.7854C55.1008 60.7858 55.1011 60.7862 55.1012 60.7866L57.0511 66.352L12.9565 66.1925ZM59.7937 59.435L56.7955 59.4242L56.3938 58.2777L54.9476 54.1497L59.2433 54.1653C59.3954 54.1659 59.5382 54.2256 59.6454 54.3336C59.7525 54.4416 59.8112 54.5848 59.8106 54.7367L59.7937 59.435ZM67.8544 57.7397C67.8509 58.6885 67.0779 59.458 66.1299 59.458C66.1277 59.458 66.1257 59.458 66.1236 59.458L61.8431 59.4425L61.8601 54.744C61.8627 54.0445 61.5925 53.3859 61.0996 52.8895C60.6069 52.3929 59.9501 52.1182 59.2507 52.1156L53.5558 52.095C53.5381 52.094 53.5209 52.0907 53.5031 52.0906L16.6074 51.9572C16.606 51.9572 16.6048 51.9572 16.6037 51.9572C16.5866 51.9572 16.5702 51.9603 16.5532 51.9611L10.7834 51.9402C10.7802 51.9402 10.777 51.9402 10.7737 51.9402C9.33409 51.9402 8.16022 53.1089 8.15502 54.5496L8.13807 59.2481L3.76813 59.2324C2.81712 59.229 2.04629 58.4524 2.04985 57.5017L2.14583 30.9907C2.14924 30.0418 2.92225 29.2724 3.87026 29.2724C3.87245 29.2724 3.8745 29.2724 3.87655 29.2724L6.88627 29.2833C6.88641 29.2833 66.2318 29.498 66.2321 29.498C67.1831 29.5014 67.9539 30.2779 67.9503 31.2287L67.8544 57.7397Z" fill="#33CC66"/>
<path d="M41.1489 18.0896H20.5813C20.0153 18.0896 19.5566 18.5483 19.5566 19.1143C19.5566 19.6803 20.0153 20.139 20.5813 20.139H41.1488C41.7148 20.139 42.1735 19.6803 42.1735 19.1143C42.1735 18.5483 41.7149 18.0896 41.1489 18.0896Z" fill="#33CC66"/>
<path d="M49.8207 18.0896H46.8157C46.2497 18.0896 45.791 18.5483 45.791 19.1143C45.791 19.6803 46.2497 20.139 46.8157 20.139H49.8207C50.3865 20.1391 50.8454 19.6803 50.8454 19.1143C50.8454 18.5483 50.3867 18.0896 49.8207 18.0896Z" fill="#33CC66"/>
<path d="M23.6425 10.4058H20.5813C20.0153 10.4058 19.5566 10.8645 19.5566 11.4305C19.5566 11.9963 20.0153 12.4552 20.5813 12.4552H23.6425C24.2085 12.4552 24.6672 11.9965 24.6672 11.4305C24.6672 10.8645 24.2085 10.4058 23.6425 10.4058Z" fill="#33CC66"/>
<path d="M49.8216 10.4058H29.1907C28.6247 10.4058 28.166 10.8645 28.166 11.4305C28.166 11.9963 28.6247 12.4552 29.1907 12.4552H49.8216C50.3876 12.4552 50.8463 11.9965 50.8463 11.4305C50.8463 10.8645 50.3876 10.4058 49.8216 10.4058Z" fill="#33CC66"/>
</g>
<defs>
<clipPath id="clip0">
<rect width="70" height="70" fill="white"/>
</clipPath>
</defs>
</svg>
