<svg width="100" height="102" viewBox="0 0 100 102" fill="none" xmlns="http://www.w3.org/2000/svg">
<g clip-path="url(#clip0)">
<path d="M56.9097 35.4275L56.011 37.4457L50.4992 44.4806C50.4992 44.4806 46.7248 48.4017 48.8217 48.6324C50.9186 48.863 52.2965 44.9996 52.2965 44.9996L58.7669 38.8296L59.4858 36.0041L56.9097 35.4275Z" fill="#9F616A"/>
<path d="M59.6662 27.2393L58.7978 27.4733C58.7978 27.4733 54.8983 37.4437 55.2578 38.6546C55.6172 39.8656 57.2348 41.3648 57.9537 41.2495C58.6727 41.1342 59.6662 27.2393 59.6662 27.2393Z" fill="#33CC66"/>
<path d="M71.7992 78.4779C71.7992 78.4779 71.4178 80.3173 72.564 79.5811C73.7102 78.845 74.3078 77.4214 74.3078 77.4214L71.7992 78.4779Z" fill="#2F2E41"/>
<path d="M58.2271 36.9843C58.2271 36.9843 46.0652 78.2711 50.3788 79.4821C54.6924 80.693 61.0429 79.3667 60.983 78.5595C60.9231 77.7522 59.8447 61.7795 59.8447 61.7795C59.8447 61.7795 66.1353 82.9995 73.9237 78.0405C81.7121 73.0814 79.9747 72.1588 79.2558 71.8129C78.5369 71.4669 67.693 55.0328 67.7529 51.9767C67.8129 48.9205 67.6331 39.3484 66.3151 37.9069L58.2271 36.9843Z" fill="#2F2E41"/>
<path d="M85.0553 80.8117H11.2441V80.5415H85.1061L85.0553 80.8117Z" fill="#3F3D56"/>
<path d="M65.9525 22.305C65.4846 21.8977 65.1927 21.336 65.1348 20.7312C65.0769 20.1265 65.2572 19.5229 65.64 19.0401C65.5893 19.0858 65.5398 19.1333 65.4924 19.1838C65.0454 19.6603 64.8132 20.2881 64.847 20.9294C64.8807 21.5706 65.1777 22.1726 65.6724 22.6032C66.1672 23.0338 66.8194 23.2577 67.4856 23.2256C68.1519 23.1936 68.7776 22.9082 69.2253 22.4323C69.2727 22.3818 69.3168 22.3296 69.359 22.2765C68.8983 22.6915 68.2925 22.9248 67.6615 22.9301C67.0306 22.9354 66.4206 22.7123 65.9525 22.305Z" fill="#2F2E41"/>
<path d="M65.7175 22.8856C68.5796 22.8856 70.8998 20.6525 70.8998 17.8978C70.8998 15.1431 68.5796 12.9099 65.7175 12.9099C62.8554 12.9099 60.5352 15.1431 60.5352 17.8978C60.5352 20.6525 62.8554 22.8856 65.7175 22.8856Z" fill="#2F2E41"/>
<path d="M51.757 79.3091C51.757 79.3091 50.379 80.6347 51.757 80.6347C53.1349 80.6347 54.4529 79.7702 54.4529 79.7702L51.757 79.3091Z" fill="#2F2E41"/>
<path d="M62.4217 21.0115C62.4217 21.0115 63.3203 24.5866 62.6613 25.2786C62.0023 25.9705 60.5645 26.4895 60.5645 26.4895L60.8041 32.9478C60.8041 32.9478 63.56 32.0252 63.6798 31.9099C63.7996 31.7945 66.256 28.0464 66.256 28.0464L68.6524 25.8552C68.6524 25.8552 64.9978 24.183 66.0762 21.2998C67.1546 18.4167 62.4217 21.0115 62.4217 21.0115Z" fill="#9F616A"/>
<path d="M67.7137 19.8196C67.9893 18.1849 66.836 16.6448 65.1376 16.3795C63.4393 16.1142 61.8391 17.2243 61.5635 18.859C61.2879 20.4936 62.4412 22.0338 64.1396 22.299C65.8379 22.5643 67.4381 21.4542 67.7137 19.8196Z" fill="#9F616A"/>
<path d="M66.3153 37.9069C66.3153 37.9069 67.6933 33.5245 68.3523 32.9479C69.0113 32.3712 70.6289 26.9509 70.6289 26.9509C70.6289 26.9509 69.6104 25.6246 68.7717 25.6246C67.9329 25.6246 67.1541 25.913 66.1955 26.7779C65.7441 27.1852 64.9207 27.6334 64.1759 27.9936C63.9115 28.1236 63.6229 28.2016 63.3269 28.2231C63.0309 28.2445 62.7334 28.209 62.4518 28.1185C62.1702 28.028 61.9102 27.8845 61.6869 27.6962C61.4636 27.5079 61.2815 27.2787 61.1513 27.022C61.0023 26.7174 60.9533 26.4255 61.1031 26.2013C61.1031 26.2013 58.8864 26.7779 58.7666 27.5852C58.6467 28.3925 58.7666 30.0647 58.5868 30.4107C58.4071 30.7567 57.8679 31.2756 58.1075 33.4668C58.3472 35.658 57.8574 38.4289 57.8574 38.4289C60.0954 40.4843 63.1959 39.2155 66.3153 37.9069Z" fill="#33CC66"/>
<path d="M64.6087 18.3879C66.0646 18.3879 67.2448 17.6134 67.2448 16.658C67.2448 15.7026 66.0646 14.9281 64.6087 14.9281C63.1529 14.9281 61.9727 15.7026 61.9727 16.658C61.9727 17.6134 63.1529 18.3879 64.6087 18.3879Z" fill="#2F2E41"/>
<path d="M69.1022 16.5426C70.4919 16.5426 71.6185 15.4583 71.6185 14.1208C71.6185 12.7832 70.4919 11.6989 69.1022 11.6989C67.7125 11.6989 66.5859 12.7832 66.5859 14.1208C66.5859 15.4583 67.7125 16.5426 69.1022 16.5426Z" fill="#2F2E41"/>
<path d="M70.8991 15.8507C70.2681 15.8506 69.6602 15.6224 69.1959 15.2112C68.7315 14.8 68.4447 14.2359 68.3922 13.6307C68.3865 13.6973 68.3828 13.7645 68.3828 13.8325C68.3829 14.4746 68.6479 15.0903 69.1196 15.5444C69.5912 15.9985 70.2309 16.2537 70.898 16.254C71.5651 16.2543 72.205 15.9996 72.6771 15.5459C73.1491 15.0922 73.4147 14.4766 73.4153 13.8346V13.8325C73.4153 13.7645 73.4117 13.6973 73.4059 13.6307C73.3534 14.2359 73.0666 14.8 72.6023 15.2112C72.1379 15.6224 71.53 15.8506 70.8991 15.8507Z" fill="#2F2E41"/>
<path d="M64.998 52.8906H64.161L62.4883 66.9336L68.0053 66.7554L64.998 52.8906Z" fill="#33CC66"/>
<path opacity="0.2" d="M64.998 52.8906H64.161L62.4883 66.9336L68.0053 66.7554L64.998 52.8906Z" fill="black"/>
<path d="M64.7175 52.7111L63.6953 66.8446L76.217 67.7393L77.2392 53.9635L64.7175 52.7111Z" fill="#33CC66"/>
<path opacity="0.2" d="M68.9345 54.1432C69.0374 54.1432 69.1209 54.0628 69.1209 53.9636C69.1209 53.8645 69.0374 53.7841 68.9345 53.7841C68.8315 53.7841 68.748 53.8645 68.748 53.9636C68.748 54.0628 68.8315 54.1432 68.9345 54.1432Z" fill="black"/>
<path opacity="0.2" d="M72.8368 54.5898C72.9398 54.5898 73.0233 54.5094 73.0233 54.4103C73.0233 54.3111 72.9398 54.2308 72.8368 54.2308C72.7339 54.2308 72.6504 54.3111 72.6504 54.4103C72.6504 54.5094 72.7339 54.5898 72.8368 54.5898Z" fill="black"/>
<path d="M72.8839 54.4115H72.7913C72.7913 54.3731 72.8569 50.6 70.6056 50.2522C70.162 50.1842 69.7994 50.2807 69.5281 50.5393C68.5985 51.4266 68.983 53.9326 68.9868 53.9573L68.8955 53.9709C68.8788 53.8657 68.5008 51.3945 69.4638 50.4762C69.757 50.1953 70.1478 50.0901 70.621 50.1631C72.9507 50.522 72.8852 54.3731 72.8839 54.4115Z" fill="#3F3D56"/>
<path d="M70.8093 34.9084L70.5097 38.1376L71.1088 47.825C71.1088 47.825 72.4868 52.7264 70.3899 52.611C68.293 52.4957 69.0719 47.479 69.0719 47.479L68.1133 36.2347L70.8093 34.9084Z" fill="#9F616A"/>
<path d="M69.0721 26.1436L70.6298 26.9509C70.6298 26.9509 72.7266 40.6683 71.5284 41.9946C70.3302 43.3208 67.8739 43.8398 67.754 43.3208C67.6342 42.8018 67.2148 32.2559 67.2148 32.2559L69.0721 26.1436Z" fill="#33CC66"/>
</g>
<g clip-path="url(#clip1)">
<path d="M42.0888 8.84625H11.2656V69.2056H42.0888V8.84625Z" fill="#E6E6E6"/>
<path d="M41.0024 10.9733H12.3516V67.0788H41.0024V10.9733Z" fill="white"/>
<path d="M37.2355 20.8131H16.2083C16.038 20.8128 15.8747 20.7147 15.7544 20.5403C15.634 20.3659 15.5664 20.1295 15.5664 19.883C15.5664 19.6366 15.634 19.4002 15.7544 19.2258C15.8747 19.0514 16.038 18.9533 16.2083 18.9529H37.2355C37.32 18.9528 37.4037 18.9767 37.4818 19.0234C37.5598 19.0701 37.6308 19.1385 37.6906 19.2249C37.7503 19.3113 37.7978 19.4139 37.8301 19.5268C37.8625 19.6397 37.8791 19.7608 37.8791 19.883C37.8791 20.0053 37.8625 20.1263 37.8301 20.2392C37.7978 20.3522 37.7503 20.4548 37.6906 20.5411C37.6308 20.6275 37.5598 20.696 37.4818 20.7427C37.4037 20.7893 37.32 20.8133 37.2355 20.8131Z" fill="#E6E6E6"/>
<path d="M37.2355 30.3843H16.2083C16.038 30.384 15.8747 30.2858 15.7544 30.1114C15.634 29.937 15.5664 29.7007 15.5664 29.4542C15.5664 29.2077 15.634 28.9713 15.7544 28.797C15.8747 28.6226 16.038 28.5244 16.2083 28.5241H37.2355C37.32 28.5239 37.4037 28.5479 37.4818 28.5946C37.5598 28.6412 37.6308 28.7097 37.6906 28.7961C37.7503 28.8825 37.7978 28.9851 37.8301 29.098C37.8625 29.2109 37.8791 29.332 37.8791 29.4542C37.8791 29.5764 37.8625 29.6975 37.8301 29.8104C37.7978 29.9233 37.7503 30.0259 37.6906 30.1123C37.6308 30.1987 37.5598 30.2672 37.4818 30.3138C37.4037 30.3605 37.32 30.3844 37.2355 30.3843Z" fill="#E6E6E6"/>
<path d="M37.2355 39.9556H16.2083C16.038 39.9553 15.8747 39.8571 15.7544 39.6827C15.634 39.5083 15.5664 39.272 15.5664 39.0255C15.5664 38.779 15.634 38.5426 15.7544 38.3683C15.8747 38.1939 16.038 38.0957 16.2083 38.0954H37.2355C37.32 38.0952 37.4037 38.1192 37.4818 38.1658C37.5598 38.2125 37.6308 38.281 37.6906 38.3674C37.7503 38.4538 37.7978 38.5564 37.8301 38.6693C37.8625 38.7822 37.8791 38.9032 37.8791 39.0255C37.8791 39.1477 37.8625 39.2688 37.8301 39.3817C37.7978 39.4946 37.7503 39.5972 37.6906 39.6836C37.6308 39.77 37.5598 39.8385 37.4818 39.8851C37.4037 39.9318 37.32 39.9557 37.2355 39.9556Z" fill="#E6E6E6"/>
<path d="M37.2355 49.5269H16.2083C16.038 49.5265 15.8747 49.4284 15.7544 49.254C15.634 49.0796 15.5664 48.8432 15.5664 48.5968C15.5664 48.3503 15.634 48.1139 15.7544 47.9395C15.8747 47.7651 16.038 47.667 16.2083 47.6667H37.2355C37.32 47.6665 37.4037 47.6905 37.4818 47.7371C37.5598 47.7838 37.6308 47.8523 37.6906 47.9387C37.7503 48.0251 37.7978 48.1276 37.8301 48.2406C37.8625 48.3535 37.8791 48.4745 37.8791 48.5968C37.8791 48.719 37.8625 48.8401 37.8301 48.953C37.7978 49.0659 37.7503 49.1685 37.6906 49.2549C37.6308 49.3413 37.5598 49.4097 37.4818 49.4564C37.4037 49.5031 37.32 49.527 37.2355 49.5269Z" fill="#E6E6E6"/>
<path d="M37.2355 59.0981H16.2083C16.038 59.0978 15.8747 58.9996 15.7544 58.8253C15.634 58.6509 15.5664 58.4145 15.5664 58.168C15.5664 57.9215 15.634 57.6852 15.7544 57.5108C15.8747 57.3364 16.038 57.2382 16.2083 57.2379H37.2355C37.32 57.2378 37.4037 57.2617 37.4818 57.3084C37.5598 57.355 37.6308 57.4235 37.6906 57.5099C37.7503 57.5963 37.7978 57.6989 37.8301 57.8118C37.8625 57.9247 37.8791 58.0458 37.8791 58.168C37.8791 58.2903 37.8625 58.4113 37.8301 58.5242C37.7978 58.6371 37.7503 58.7397 37.6906 58.8261C37.6308 58.9125 37.5598 58.981 37.4818 59.0277C37.4037 59.0743 37.32 59.0983 37.2355 59.0981Z" fill="#E6E6E6"/>
<path d="M33.5624 20.8131H16.1163C16.0318 20.8133 15.9481 20.7893 15.87 20.7427C15.7919 20.696 15.721 20.6275 15.6612 20.5411C15.6014 20.4548 15.554 20.3522 15.5217 20.2392C15.4893 20.1263 15.4727 20.0053 15.4727 19.883C15.4727 19.7608 15.4893 19.6397 15.5217 19.5268C15.554 19.4139 15.6014 19.3113 15.6612 19.2249C15.721 19.1385 15.7919 19.0701 15.87 19.0234C15.9481 18.9767 16.0318 18.9528 16.1163 18.9529H33.5624C33.7327 18.9533 33.896 19.0514 34.0163 19.2258C34.1367 19.4002 34.2043 19.6366 34.2043 19.883C34.2043 20.1295 34.1367 20.3659 34.0163 20.5403C33.896 20.7147 33.7327 20.8128 33.5624 20.8131Z" fill="#33CC66"/>
<path d="M28.146 30.3843H16.1174C15.9469 30.3843 15.7834 30.2863 15.6629 30.1119C15.5423 29.9374 15.4746 29.7009 15.4746 29.4542C15.4746 29.2075 15.5423 28.9709 15.6629 28.7965C15.7834 28.6221 15.9469 28.5241 16.1174 28.5241H28.146C28.2305 28.5239 28.3141 28.5479 28.3922 28.5946C28.4703 28.6412 28.5413 28.7097 28.601 28.7961C28.6608 28.8825 28.7082 28.9851 28.7406 29.098C28.7729 29.2109 28.7896 29.332 28.7896 29.4542C28.7896 29.5764 28.7729 29.6975 28.7406 29.8104C28.7082 29.9233 28.6608 30.0259 28.601 30.1123C28.5413 30.1987 28.4703 30.2672 28.3922 30.3138C28.3141 30.3605 28.2305 30.3844 28.146 30.3843Z" fill="#33CC66"/>
<path d="M21.5337 39.9556H16.1163C16.0318 39.9557 15.9481 39.9318 15.87 39.8851C15.7919 39.8385 15.721 39.77 15.6612 39.6836C15.6014 39.5972 15.554 39.4946 15.5217 39.3817C15.4893 39.2688 15.4727 39.1477 15.4727 39.0255C15.4727 38.9032 15.4893 38.7822 15.5217 38.6693C15.554 38.5564 15.6014 38.4538 15.6612 38.3674C15.721 38.281 15.7919 38.2125 15.87 38.1658C15.9481 38.1192 16.0318 38.0952 16.1163 38.0954H21.5337C21.7041 38.0957 21.8673 38.1939 21.9877 38.3683C22.108 38.5426 22.1756 38.779 22.1756 39.0255C22.1756 39.272 22.108 39.5083 21.9877 39.6827C21.8673 39.8571 21.7041 39.9553 21.5337 39.9556Z" fill="#33CC66"/>
<path d="M35.2163 49.5269H16.1174C15.9469 49.5269 15.7834 49.4289 15.6629 49.2544C15.5423 49.08 15.4746 48.8434 15.4746 48.5968C15.4746 48.3501 15.5423 48.1135 15.6629 47.9391C15.7834 47.7647 15.9469 47.6667 16.1174 47.6667H35.2163C35.3868 47.6667 35.5503 47.7647 35.6708 47.9391C35.7913 48.1135 35.8591 48.3501 35.8591 48.5968C35.8591 48.8434 35.7913 49.08 35.6708 49.2544C35.5503 49.4289 35.3868 49.5269 35.2163 49.5269Z" fill="#33CC66"/>
<path d="M30.9914 59.0981H16.1163C16.0318 59.0983 15.9481 59.0743 15.87 59.0277C15.7919 58.981 15.721 58.9125 15.6612 58.8261C15.6014 58.7397 15.554 58.6371 15.5217 58.5242C15.4893 58.4113 15.4727 58.2903 15.4727 58.168C15.4727 58.0458 15.4893 57.9247 15.5217 57.8118C15.554 57.6989 15.6014 57.5963 15.6612 57.5099C15.721 57.4235 15.7919 57.355 15.87 57.3084C15.9481 57.2617 16.0318 57.2378 16.1163 57.2379H30.9914C31.0759 57.2378 31.1595 57.2617 31.2376 57.3084C31.3157 57.355 31.3866 57.4235 31.4464 57.5099C31.5062 57.5963 31.5536 57.6989 31.586 57.8118C31.6183 57.9247 31.635 58.0458 31.635 58.168C31.635 58.2903 31.6183 58.4113 31.586 58.5242C31.5536 58.6371 31.5062 58.7397 31.4464 58.8261C31.3866 58.9125 31.3157 58.981 31.2376 59.0277C31.1595 59.0743 31.0759 59.0983 30.9914 59.0981Z" fill="#33CC66"/>
</g>
<defs>
<clipPath id="clip0">
<rect width="85.1064" height="79.9612" fill="white" transform="translate(0 0.85022)"/>
</clipPath>
<clipPath id="clip1">
<rect width="98.9362" height="92.9549" fill="white" transform="translate(1.06445 8.84625)"/>
</clipPath>
</defs>
</svg>
