<svg width="91" height="102" viewBox="0 0 91 102" fill="none" xmlns="http://www.w3.org/2000/svg">
<path d="M49.6857 49.0272C53.7561 45.6263 56.5281 41.2933 57.6511 36.5761C58.7741 31.8589 58.1977 26.9694 55.9949 22.5259C53.792 18.0825 50.0615 14.2846 45.2753 11.6125C40.489 8.94043 34.8619 7.51422 29.1055 7.51422V31.8319L49.6857 49.0272Z" fill="#3F3D56"/>
<path d="M29.1049 7.51422C22.6358 7.51487 16.3514 9.31601 11.2439 12.6332C6.13646 15.9504 2.49707 20.5946 0.900477 25.8324C-0.696115 31.0702 -0.158932 36.6032 2.4272 41.5575C5.01333 46.5118 9.50103 50.6052 15.1816 53.1912L29.1049 31.8319V7.51422Z" fill="#33CC66"/>
<path d="M72.9219 92.758L73.2902 95.3219L75.3769 96.1423L77.7088 95.527L79.3044 96.1423L79.7955 93.7836L76.9724 91.1171L72.9219 92.758Z" fill="#FFB9B9"/>
<path d="M74.3927 94.7064C74.3927 94.7064 72.4897 92.8528 72.4593 93.7796C72.4288 94.7064 68.2556 97.8855 68.2556 97.8855C68.2556 97.8855 61.7503 99.5264 66.7827 100.552C71.8151 101.577 82.8619 98.6034 83.2301 97.9881C83.5983 97.3728 80.1616 92.6553 79.7933 93.0655C79.4251 93.4757 77.584 94.9115 74.3927 94.7064Z" fill="#2F2E41"/>
<path d="M69.7295 64.2481C69.7295 64.2481 68.9931 69.0681 69.7295 69.786C70.466 70.5039 70.0977 71.9396 69.7295 72.1447C69.3613 72.3498 70.2205 73.1703 70.8342 73.5805C71.4479 73.9907 72.3071 75.8366 72.3071 75.8366C72.3071 75.8366 75.6211 83.1179 75.6211 83.8358C75.6211 84.5537 77.094 86.092 76.9713 86.6047C76.8485 87.1175 77.8305 88.7584 77.7077 89.066C77.585 89.3737 79.3034 92.1426 78.8124 92.5528C78.3214 92.9631 71.5706 94.3988 71.9389 93.4758C72.3071 92.5528 72.5526 91.4248 72.3071 91.4248C72.0616 91.4248 70.9569 90.2967 71.2024 89.8865C71.4479 89.4763 63.8379 78.7081 63.8379 78.7081L69.7295 64.2481Z" fill="#2F2E41"/>
<path opacity="0.1" d="M74.3927 94.7064C74.3927 94.7064 72.4897 92.8528 72.4593 93.7796C72.4288 94.7064 68.2556 97.8855 68.2556 97.8855C68.2556 97.8855 61.7503 99.5264 66.7827 100.552C71.8151 101.577 82.8619 98.6034 83.2301 97.9881C83.5983 97.3728 80.1616 92.6553 79.7933 93.0655C79.4251 93.4757 77.584 94.9115 74.3927 94.7064Z" fill="black"/>
<path opacity="0.1" d="M69.7295 64.2481C69.7295 64.2481 68.9931 69.0681 69.7295 69.786C70.466 70.5039 70.0977 71.9396 69.7295 72.1447C69.3613 72.3498 70.2205 73.1703 70.8342 73.5805C71.4479 73.9907 72.3071 75.8366 72.3071 75.8366C72.3071 75.8366 75.6211 83.1179 75.6211 83.8358C75.6211 84.5537 77.094 86.092 76.9713 86.6047C76.8485 87.1175 77.8305 88.7584 77.7077 89.066C77.585 89.3737 79.3034 92.1426 78.8124 92.5528C78.3214 92.9631 71.5706 94.3988 71.9389 93.4758C72.3071 92.5528 72.5526 91.4248 72.3071 91.4248C72.0616 91.4248 70.9569 90.2967 71.2024 89.8865C71.4479 89.4763 63.8379 78.7081 63.8379 78.7081L69.7295 64.2481Z" fill="black"/>
<path d="M57.2096 91.4849L55.8594 94.3563L56.4732 98.3559L60.401 98.1508L62.6102 96.5099V93.0232L57.2096 91.4849Z" fill="#FFB9B9"/>
<path d="M57.946 94.9715C57.946 94.9715 56.5958 91.2796 55.8594 92.3052C55.3929 92.9638 54.9827 93.6492 54.632 94.3562C54.632 94.3562 48.6176 97.6379 47.022 97.6379C45.4263 97.6379 43.9534 99.2788 46.04 99.8941C48.1266 100.509 64.0831 101.33 64.3286 99.8941C64.574 98.4584 64.0831 93.8435 63.3466 94.3562C62.6102 94.869 58.8052 95.9971 57.946 94.9715Z" fill="#2F2E41"/>
<path d="M54.8775 49.5404C54.8775 49.5404 52.2999 53.2323 52.0544 53.6425C51.809 54.0528 50.4588 56.7191 53.0364 57.7447C55.614 58.7702 57.8233 50.2583 57.8233 50.2583L54.8775 49.5404Z" fill="#FFB9B9"/>
<path d="M57.5782 43.5923C57.5782 43.5923 53.6505 49.9507 54.3869 50.1558C55.1234 50.3609 58.0692 51.5915 58.0692 51.5915L59.4193 45.1306L57.5782 43.5923Z" fill="#575A88"/>
<path opacity="0.1" d="M57.5782 43.5923C57.5782 43.5923 53.6505 49.9507 54.3869 50.1558C55.1234 50.3609 58.0692 51.5915 58.0692 51.5915L59.4193 45.1306L57.5782 43.5923Z" fill="black"/>
<path d="M57.8228 48.9253C57.8228 48.9253 56.9636 54.2581 57.3318 55.3862C57.7 56.5143 57.0863 73.4356 57.5773 74.3585C58.0683 75.2815 58.4365 81.2296 58.4365 81.9475C58.4365 82.6654 57.4546 88.5109 57.2091 89.0237C56.9636 89.5364 56.2271 91.2799 56.5954 92.1003C56.9636 92.9207 61.996 94.9718 62.7325 94.2539C63.4689 93.536 62.8552 91.2799 63.4689 91.1773C64.0826 91.0747 64.8191 86.2547 64.8191 86.2547L68.8695 67.3849C68.8695 67.3849 76.4796 51.5917 74.7612 50.0534C73.0428 48.5151 57.8228 48.9253 57.8228 48.9253Z" fill="#2F2E41"/>
<path d="M62.3659 12.5179C65.6875 12.5179 68.3803 10.2681 68.3803 7.49283C68.3803 4.71753 65.6875 2.46771 62.3659 2.46771C59.0443 2.46771 56.3516 4.71753 56.3516 7.49283C56.3516 10.2681 59.0443 12.5179 62.3659 12.5179Z" fill="#FFB9B9"/>
<path d="M60.1562 11.5957C60.1562 11.5957 62.1201 15.9029 61.8746 16.8259C61.6292 17.7489 67.6435 15.1851 67.6435 15.1851C67.6435 15.1851 67.2753 10.16 67.6435 8.82676C68.0117 7.49356 60.1562 11.5957 60.1562 11.5957Z" fill="#FFB9B9"/>
<path d="M76.648 39.6553C76.6211 40.5157 76.6039 41.0285 76.6039 41.0285C76.6039 41.0285 76.9721 45.746 76.3584 47.2843C75.7447 48.8225 75.7447 49.9506 75.3764 50.9762C75.2684 51.2746 73.7992 51.4346 71.7359 51.5054C69.8432 51.57 67.451 51.5607 65.1545 51.5166C61.3519 51.4428 57.8071 51.2726 57.2106 51.1813C55.8605 50.9762 57.4561 49.2328 56.9651 48.3098C56.4742 47.3868 57.8243 35.5932 57.8243 35.5932C57.8243 35.5932 57.7016 28.9272 58.3153 26.3634C58.929 23.7995 61.2611 19.6974 61.7521 19.1846C62.2431 18.6718 61.8748 18.3642 60.7701 17.7489C59.6655 17.1335 60.7701 14.7748 60.7701 14.7748C62.8568 13.3391 68.1347 13.134 68.1347 13.134C68.1347 13.134 76.2356 20.1076 76.7266 21.5433C77.0236 22.4109 76.9168 29.3415 76.7867 34.6927C76.7364 36.7059 76.6836 38.4965 76.648 39.6553Z" fill="#575A88"/>
<path d="M66.2922 52.4119C66.2922 52.4119 61.628 60.4111 65.3103 60.9239C68.9925 61.4366 70.8337 53.6426 70.8337 53.6426L66.2922 52.4119Z" fill="#FFB9B9"/>
<path d="M56.7422 4.94651C56.5295 4.08464 57.3178 3.27899 58.1481 2.73756C59.9563 1.56584 62.181 0.932004 64.4693 0.936548C66.0789 0.943853 67.7401 1.29962 68.9567 2.18024C70.3758 3.2074 71.0231 4.8546 70.9039 6.42013C70.7848 7.98566 69.9699 9.47049 68.8707 10.7423C68.3432 11.3526 67.4959 11.9845 66.653 11.7185C66.3231 11.5894 66.0401 11.3897 65.8326 11.1395C65.2919 10.579 64.8208 9.97398 64.4264 9.33386C64.1247 8.84402 63.8634 8.32772 63.4358 7.90838C63.0082 7.48904 62.3656 7.17365 61.7124 7.24895C61.1729 7.31115 60.6436 7.62849 60.1291 7.4794C59.5566 7.31352 59.4182 6.70187 59.3727 6.19704C59.3227 5.64369 59.3581 5.00271 59.1742 4.47955C58.9731 4.56928 56.841 5.35947 56.7422 4.94651Z" fill="#2F2E41"/>
<path opacity="0.1" d="M76.6479 39.6553C75.2732 43.7974 72.1199 50.7782 71.9395 51.0787C71.8941 51.1556 71.8229 51.3063 71.7358 51.5053C69.8431 51.5699 67.4508 51.5607 65.1543 51.5166C65.5103 50.7392 65.9252 49.9885 65.9252 49.7455C65.9252 49.2327 68.871 36.0033 68.871 36.0033C68.871 36.0033 66.5389 30.1578 64.4522 25.2352C62.3656 20.3127 70.6507 21.2869 70.6507 21.2869C75.0694 20.3639 75.8672 21.9535 75.8672 21.9535C75.8672 21.9535 76.2563 30.5988 76.7866 34.6927C76.9228 35.7418 77.0677 36.4915 77.2174 36.7212C77.4138 37.0217 77.1487 38.1518 76.6479 39.6553Z" fill="black"/>
<path d="M68.87 17.954C68.87 17.954 63.2238 19.9025 65.3104 24.8251C67.3971 29.7476 69.7291 35.5932 69.7291 35.5932C69.7291 35.5932 66.7833 48.8226 66.7833 49.3353C66.7833 49.8481 64.9422 52.6171 65.6787 53.1298C66.4151 53.6426 71.3248 54.6681 71.4475 54.1553C71.8237 52.974 72.2744 51.8101 72.7977 50.6685C73.0432 50.2583 78.812 37.4392 78.0756 36.3111C77.3391 35.183 76.7254 21.5434 76.7254 21.5434C76.7254 21.5434 73.2887 17.031 68.87 17.954Z" fill="#575A88"/>
<path d="M56.3687 56.6602L34.6744 39.6511L21.8652 61.7551C26.1355 63.7022 30.9237 64.7196 35.7885 64.7135C43.8256 64.7135 51.1018 61.0608 56.3687 56.6602Z" fill="#575A89"/>
<path opacity="0.1" d="M56.3687 56.6602L34.6744 39.6511L21.8652 61.7551C26.1355 63.7022 30.9237 64.7196 35.7885 64.7135C43.8256 64.7135 51.1018 61.0608 56.3687 56.6602Z" fill="black"/>
<path d="M54.5875 57.9632L34.0072 40.768L20.084 62.1273C25.6031 64.6362 31.9454 65.5863 38.1639 64.8358C44.3825 64.0853 50.1437 61.6745 54.5875 57.9632Z" fill="#575A89"/>
<path d="M20.9277 100.722L90.0004 100.888" stroke="#3F3D56" stroke-width="2" stroke-miterlimit="10"/>
</svg>
