<svg width="100" height="101" viewBox="0 0 100 101" fill="none" xmlns="http://www.w3.org/2000/svg">
<path d="M31.4081 100.5C37.2243 100.5 41.9393 96.5943 41.9393 91.7759C41.9393 86.9576 37.2243 83.0515 31.4081 83.0515C25.5919 83.0515 20.877 86.9576 20.877 91.7759C20.877 96.5943 25.5919 100.5 31.4081 100.5Z" fill="#33CC66"/>
<path d="M52.0121 16.2906C55.0466 16.2906 57.5066 14.2527 57.5066 11.7388C57.5066 9.22483 55.0466 7.18689 52.0121 7.18689C48.9776 7.18689 46.5176 9.22483 46.5176 11.7388C46.5176 14.2527 48.9776 16.2906 52.0121 16.2906Z" fill="#F2F2F2"/>
<path d="M26.8285 66.3611C29.863 66.3611 32.323 64.3231 32.323 61.8092C32.323 59.2953 29.863 57.2573 26.8285 57.2573C23.794 57.2573 21.334 59.2953 21.334 61.8092C21.334 64.3231 23.794 66.3611 26.8285 66.3611Z" fill="#F2F2F2"/>
<path d="M66.2074 75.8445C69.2419 75.8445 71.7019 73.8065 71.7019 71.2926C71.7019 68.7787 69.2419 66.7407 66.2074 66.7407C63.1729 66.7407 60.7129 68.7787 60.7129 71.2926C60.7129 73.8065 63.1729 75.8445 66.2074 75.8445Z" fill="#F2F2F2"/>
<path d="M30.2793 0.738938C13.8205 0.835252 0.344266 11.9157 0.110465 25.5498C0.1083 25.6756 0.107303 26.5607 0.107433 27.7184C0.107541 29.4158 0.921473 31.0436 2.3702 32.2438C3.81893 33.4441 5.78381 34.1185 7.83269 34.1187H7.83271C8.84837 34.1185 9.85403 33.9525 10.7922 33.6303C11.7304 33.308 12.5828 32.8357 13.3006 32.2404C14.0183 31.6451 14.5875 30.9385 14.9755 30.1609C15.3635 29.3833 15.5628 28.55 15.5619 27.7086C15.5611 26.9211 15.5607 26.376 15.5607 26.3426C15.5601 24.2355 16.2217 22.1645 17.4804 20.3334C18.739 18.5024 20.5513 16.9743 22.739 15.8995C24.9268 14.8247 27.4145 14.2402 29.9577 14.2035C32.5008 14.1668 35.0116 14.6792 37.2432 15.6902C39.4748 16.7013 41.3502 18.1761 42.685 19.9698C44.0199 21.7634 44.7681 23.814 44.8561 25.9199C44.9442 28.0258 44.369 30.1144 43.1871 31.9802C42.0053 33.8461 40.2575 35.4249 38.1157 36.5614L38.1184 36.5641C38.1184 36.5641 27.1229 42.4284 23.7706 50.473L23.7735 50.4736C23.184 52.1216 22.8853 53.8316 22.8867 55.5504C22.8867 56.257 22.9369 62.4392 23.0338 67.4569C23.0677 69.1883 23.9218 70.8391 25.4119 72.0534C26.9019 73.2677 28.9085 73.948 30.9986 73.9476H30.9986C32.0488 73.9476 33.0887 73.7755 34.0583 73.4413C35.028 73.107 35.9083 72.6173 36.6486 72.0002C37.389 71.383 37.9747 70.6507 38.3721 69.8454C38.7695 69.04 38.9707 68.1775 38.9642 67.3074C38.9306 62.7121 38.9124 57.3613 38.9124 56.9729C38.9124 52.0332 44.6645 47.1115 49.3894 43.9019C54.8303 40.206 58.7456 35.1694 60.3183 29.4878C60.6662 28.3181 60.8581 27.1203 60.8904 25.9158C60.8904 22.5942 60.097 19.3053 58.556 16.2388C57.0149 13.1723 54.7566 10.3887 51.9112 8.04843C49.0658 5.70816 45.6895 3.85745 41.9769 2.60295C38.2643 1.34845 34.2888 0.714943 30.2793 0.738938Z" fill="#33CC66"/>
<path d="M99.8792 100.69H14.2691C14.2371 100.69 14.2064 100.67 14.1838 100.634C14.1611 100.599 14.1484 100.551 14.1484 100.5C14.1484 100.45 14.1611 100.402 14.1838 100.366C14.2064 100.331 14.2371 100.311 14.2691 100.311H99.8792C99.9113 100.311 99.9421 100.331 99.9648 100.366C99.9875 100.402 100 100.45 100 100.5C100 100.551 99.9875 100.599 99.9648 100.635C99.9421 100.67 99.9113 100.69 99.8792 100.69Z" fill="#3F3D56"/>
<path d="M76.5205 39.6181C80.3137 39.6181 83.3886 37.0707 83.3886 33.9282C83.3886 30.7858 80.3137 28.2384 76.5205 28.2384C72.7273 28.2384 69.6523 30.7858 69.6523 33.9282C69.6523 37.0707 72.7273 39.6181 76.5205 39.6181Z" fill="#2F2E41"/>
<path d="M63.8295 98.2489H61.0229L59.6875 89.2802H63.8301L63.8295 98.2489Z" fill="#A0616A"/>
<path d="M59.0195 97.5842H64.4325V100.408H55.6113C55.6113 100.037 55.6995 99.6698 55.8708 99.3272C56.042 98.9846 56.2931 98.6734 56.6096 98.4112C56.926 98.149 57.3017 97.941 57.7152 97.7991C58.1287 97.6573 58.5719 97.5842 59.0195 97.5842Z" fill="#2F2E41"/>
<path d="M85.5795 98.2489H82.7729L81.4375 89.2802H85.5801L85.5795 98.2489Z" fill="#A0616A"/>
<path d="M80.7675 97.5842H86.1805V100.408H77.3594C77.3594 100.037 77.4475 99.6698 77.6188 99.3272C77.7901 98.9846 78.0411 98.6734 78.3576 98.4112C78.6741 98.149 79.0498 97.941 79.4633 97.7991C79.8768 97.6573 80.32 97.5842 80.7675 97.5842Z" fill="#2F2E41"/>
<path d="M75.4784 39.6514C78.5839 39.6514 81.1014 37.5658 81.1014 34.9931C81.1014 32.4204 78.5839 30.3348 75.4784 30.3348C72.373 30.3348 69.8555 32.4204 69.8555 34.9931C69.8555 37.5658 72.373 39.6514 75.4784 39.6514Z" fill="#A0616A"/>
<path d="M78.8308 54.6787L81.3468 49.8898C81.9579 48.7664 82.133 47.5135 81.848 46.3041C81.563 45.0947 80.832 43.9884 79.7557 43.1379C79.5347 42.9568 79.2999 42.7877 79.0528 42.6315C77.8114 41.8269 76.2815 41.3884 74.7054 41.3854C73.6456 41.3888 72.5992 41.5816 71.6376 41.9506C71.5551 41.9809 71.4751 42.0132 71.3926 42.0454C71.2346 42.108 71.079 42.1763 70.9279 42.2464C69.9423 42.7153 69.1035 43.3694 68.4791 44.1561C67.8548 44.9428 67.4624 45.8401 67.3335 46.7756L66.2231 54.4834C65.9439 55.0884 55.9805 76.9374 59.465 93.6181C59.5021 93.7963 59.6069 93.9599 59.7643 94.0851C59.9216 94.2104 60.1232 94.2906 60.3395 94.3142L63.872 94.7125C64.13 94.7417 64.3917 94.6889 64.6045 94.5647C64.8173 94.4404 64.9654 94.254 65.019 94.043L70.9462 70.6369C70.9831 70.4914 71.0779 70.3605 71.2152 70.2649C71.3526 70.1693 71.5247 70.1146 71.7039 70.1096C71.8832 70.1046 72.0594 70.1495 72.2042 70.2372C72.3491 70.3248 72.4542 70.4502 72.5029 70.5932L80.8775 95.2075C80.9372 95.3863 81.066 95.544 81.2443 95.6564C81.4225 95.7688 81.6403 95.8296 81.8643 95.8296C81.9311 95.8292 81.9977 95.8242 82.0635 95.8144L86.3789 95.1259C86.6297 95.0871 86.8541 94.972 87.0078 94.8032C87.1616 94.6345 87.2337 94.4242 87.21 94.2137C86.5758 88.355 83.2058 59.0087 78.8308 54.6787Z" fill="#2F2E41"/>
<path d="M53.6249 38.8696C53.5859 39.1466 53.6206 39.4272 53.7267 39.6919C53.8328 39.9565 54.0076 40.1986 54.2388 40.4012C54.4701 40.6038 54.7521 40.7619 55.0651 40.8644C55.3781 40.9669 55.7144 41.0113 56.0503 40.9945L59.1934 47.2519L61.5709 44.3322L58.2217 38.8377C58.1502 38.372 57.875 37.9442 57.4482 37.6354C57.0215 37.3266 56.4728 37.1582 55.9062 37.1622C55.3396 37.1661 54.7944 37.3421 54.3739 37.6568C53.9535 37.9715 53.6869 38.403 53.6249 38.8696L53.6249 38.8696Z" fill="#A0616A"/>
<path d="M75.1667 60.9799C75.5009 60.9468 75.8222 60.8534 76.1081 60.7063C76.394 60.5592 76.6375 60.3619 76.8215 60.1284C77.0054 59.8949 77.1253 59.6308 77.1727 59.3548C77.2201 59.0788 77.1939 58.7975 77.0959 58.5307L83.7088 54.5405L79.7275 53.3054L74.0581 57.2839C73.5281 57.45 73.0901 57.7714 72.827 58.1872C72.564 58.603 72.4942 59.0843 72.6308 59.5398C72.7675 59.9954 73.1011 60.3936 73.5685 60.659C74.0359 60.9244 74.6045 61.0386 75.1667 60.9799Z" fill="#A0616A"/>
<path d="M64.3853 51.4233C64.1318 51.423 63.8789 51.4024 63.6302 51.3616C63.0287 51.2667 62.4646 51.0508 61.9876 50.7327C61.5106 50.4147 61.1353 50.0043 60.8949 49.5378L56.4915 45.0896C56.3984 44.9956 56.3306 44.8861 56.2927 44.7686C56.2548 44.6511 56.2477 44.5283 56.2718 44.4083C56.2959 44.2883 56.3506 44.174 56.4324 44.073C56.5141 43.9719 56.621 43.8866 56.7458 43.8225L59.8787 42.216C59.9944 42.1566 60.1231 42.1169 60.2574 42.099C60.3917 42.0811 60.529 42.0854 60.6612 42.1117C60.7935 42.1379 60.9182 42.1857 61.0281 42.2521C61.1381 42.3185 61.231 42.4023 61.3016 42.4986L64.4052 46.7345L70.3488 43.0956C70.822 42.89 71.3687 42.8324 71.889 42.9331C72.4093 43.0339 72.8684 43.2864 73.1826 43.6445C73.4967 44.0026 73.6449 44.4424 73.6 44.8835C73.5551 45.3246 73.3201 45.7375 72.938 46.047L67.0058 50.53C66.3087 51.1024 65.3668 51.4235 64.3853 51.4233Z" fill="#2F2E41"/>
<path d="M80.4464 58.1132C80.4384 58.1132 80.4303 58.1132 80.4222 58.113C80.2777 58.1101 80.1356 58.0821 80.0051 58.0308C79.8745 57.9795 79.7584 57.906 79.6642 57.8152L76.8789 55.1233C76.7841 55.0316 76.7137 54.9243 76.6726 54.8084C76.6316 54.6926 76.6206 54.5708 76.6405 54.4512C76.6604 54.3316 76.7108 54.2168 76.7882 54.1145C76.8656 54.0122 76.9684 53.9247 77.0896 53.8577L82.3052 50.9772L77.5803 46.2712C77.3054 45.8916 77.2046 45.4428 77.2962 45.0067C77.3878 44.5706 77.6658 44.1763 78.0793 43.896C78.4928 43.6156 79.0143 43.4679 79.5484 43.4798C80.0826 43.4917 80.5937 43.6623 80.9885 43.9607L86.7311 48.6098C87.1831 48.9518 87.5281 49.3796 87.7365 49.8564C87.945 50.3333 88.0107 50.8449 87.9279 51.3474C87.8452 51.8498 87.6165 52.3282 87.2615 52.7413C86.9065 53.1545 86.4357 53.4901 85.8897 53.7193L81.1962 57.8452C81.0998 57.9298 80.9836 57.9972 80.8546 58.0433C80.7257 58.0893 80.5868 58.1131 80.4464 58.1132Z" fill="#2F2E41"/>
<path d="M74.0479 48.1945C74.0032 48.1944 73.9585 48.1921 73.9142 48.1874C73.7202 48.1679 73.5371 48.1027 73.3865 47.9995C73.236 47.8963 73.1243 47.7595 73.0647 47.6054L70.9717 42.2893C70.9193 42.1549 70.9273 42.0093 70.9944 41.8795C71.0615 41.7496 71.1831 41.6442 71.3366 41.5829L71.4045 41.5563C71.4661 41.532 71.5271 41.5081 71.5894 41.4851C72.5654 41.1101 73.6278 40.9145 74.7036 40.9117C76.1003 40.9139 77.4658 41.2538 78.6325 41.8898C78.7889 41.976 78.8982 42.1097 78.9368 42.2621C78.9754 42.4144 78.9402 42.5732 78.8389 42.7043L74.9126 47.8C74.8205 47.921 74.6929 48.0207 74.5417 48.0897C74.3904 48.1587 74.2205 48.1947 74.0479 48.1945Z" fill="#E6E6E6"/>
<path d="M81.9369 31.3882C83.1781 31.3882 84.1843 30.5547 84.1843 29.5264C84.1843 28.4981 83.1781 27.6646 81.9369 27.6646C80.6956 27.6646 79.6895 28.4981 79.6895 29.5264C79.6895 30.5547 80.6956 31.3882 81.9369 31.3882Z" fill="#2F2E41"/>
<path d="M74.2317 27.4797C72.653 27.4797 71.139 27.9993 70.0227 28.924C68.9064 29.8488 68.2793 31.1031 68.2793 32.4109V34.4972H71.3767L72.8581 32.4109L73.3025 34.4972H82.7024L80.1841 32.4109C80.1841 31.1031 79.557 29.8488 78.4407 28.924C77.3244 27.9993 75.8104 27.4797 74.2317 27.4797Z" fill="#2F2E41"/>
<path d="M83.0918 28.2509C83.3403 27.6071 83.8549 27.0565 84.545 26.6959C85.235 26.3353 86.0565 26.1878 86.8649 26.2793C88.2971 26.4776 89.4295 27.4314 90.1042 28.4966C90.7789 29.5618 91.0905 30.7541 91.5441 31.8968C91.9977 33.0396 92.641 34.1886 93.7861 34.9284C94.9312 35.6681 96.6884 35.8688 97.8131 35.1078C97.6846 35.9009 97.2584 36.6405 96.5947 37.2219C95.9311 37.8033 95.0636 38.1971 94.115 38.3477C93.1663 38.4983 92.1845 38.398 91.3085 38.061C90.4324 37.724 89.7064 37.1674 89.2331 36.4698C88.6397 35.5952 88.4865 34.57 88.3105 33.5773C88.1345 32.5846 87.9059 31.5574 87.1974 30.7437C86.4889 29.9299 85.1627 29.3984 84.0372 29.7691L83.0918 28.2509Z" fill="#2F2E41"/>
<path d="M10.0147 31.0914C7.96583 31.0912 6.00094 30.4168 4.5522 29.2165C3.10345 28.0163 2.28951 26.3884 2.28939 24.691C2.28928 23.5334 2.29028 22.6483 2.29241 22.5224C2.35751 18.5572 3.56292 14.6621 5.80864 11.16C2.11897 15.3445 0.0902124 20.3755 0.00302667 25.557C0.000902123 25.6829 -0.000103738 26.568 8.44166e-06 27.7256C0.000129851 29.423 0.814073 31.0508 2.26281 32.2511C3.71155 33.4514 5.67645 34.1257 7.72533 34.1259C9.40895 34.1254 11.0463 33.6696 12.3888 32.8279C13.7312 31.9861 14.7053 30.8043 15.163 29.4621C13.7485 30.5129 11.9147 31.0933 10.0147 31.0914Z" fill="#3F3D56"/>
<path d="M30.8045 14.2252C33.1731 14.3189 35.4789 14.8875 37.5239 15.882C39.5689 16.8766 41.2919 18.2675 42.5451 19.9353C43.7983 21.6031 44.5441 23.4979 44.7186 25.4571C44.8932 27.4163 44.4911 29.3813 43.547 31.1834C44.9126 29.8547 45.9163 28.2978 46.4897 26.6186C47.0631 24.9395 47.1928 23.1776 46.8698 21.4532C46.5468 19.7288 45.7787 18.0824 44.6181 16.6262C43.4574 15.17 41.9313 13.9382 40.1439 13.0149C38.3565 12.0916 36.3498 11.4984 34.2606 11.2758C32.1713 11.0532 30.0488 11.2064 28.0375 11.725C26.0262 12.2436 24.1736 13.1154 22.6059 14.2809C21.0382 15.4464 19.7923 16.8783 18.9531 18.4789C20.4035 17.0654 22.2264 15.9468 24.2812 15.2092C26.336 14.4717 28.5678 14.1351 30.8045 14.2252Z" fill="#3F3D56"/>
<path d="M33.1805 70.9202C31.0904 70.9206 29.0839 70.2402 27.5939 69.026C26.1038 67.8117 25.2497 66.1608 25.2158 64.4295C25.1189 59.4118 25.0687 53.2296 25.0687 52.523C25.0673 50.8042 25.366 49.0942 25.9555 47.4462L25.9527 47.4456C26.3008 46.6184 26.7212 45.8133 27.2105 45.0367C25.7083 46.6952 24.5128 48.5298 23.6633 50.4802L23.6661 50.4808C23.0766 52.1288 22.778 53.8388 22.7793 55.5576C22.7793 56.2642 22.8295 62.4464 22.9264 67.4641C22.9603 69.1954 23.8144 70.8463 25.3045 72.0606C26.7945 73.2748 28.801 73.9551 30.8912 73.9548C32.6145 73.9545 34.2913 73.4914 35.67 72.6348C37.0488 71.7783 38.0551 70.5745 38.5381 69.204C37.0736 70.3103 35.1624 70.9225 33.1805 70.9202Z" fill="#3F3D56"/>
<path d="M29.0883 98.3723C27.5923 97.8325 26.2682 97.0121 25.2204 95.9757C24.1727 94.9394 23.4301 93.7155 23.0511 92.4007C22.6721 91.0858 22.6672 89.716 23.0367 88.3993C23.4062 87.0826 24.14 85.8551 25.1802 84.8136C23.9742 85.5431 22.9692 86.4768 22.232 87.5527C21.4948 88.6286 21.0422 89.8221 20.9044 91.0539C20.7665 92.2858 20.9464 93.5278 21.4323 94.6976C21.9182 95.8675 22.6988 96.9383 23.7224 97.8391C24.746 98.7399 25.9892 99.45 27.3694 99.9223C28.7496 100.395 30.2353 100.618 31.7279 100.579C33.2204 100.539 34.6857 100.237 36.0265 99.6921C37.3673 99.1473 38.5529 98.3726 39.5046 97.4193C38.0202 98.3181 36.2774 98.879 34.4498 99.0463C32.6223 99.2135 30.7737 98.9811 29.0883 98.3723Z" fill="#3F3D56"/>
</svg>
