<svg width="100" height="101" viewBox="0 0 100 101" fill="none" xmlns="http://www.w3.org/2000/svg">
<g clip-path="url(#clip0)">
<path d="M100 65.3553L82.0949 55.287C82.0949 55.287 71.8385 41.8625 70.1001 33.2708C68.3617 24.6791 60.539 9.37518 60.539 9.37518V1.32048C60.539 1.32048 51.4994 -1.36442 50.8041 6.01905C50.1087 13.4025 52.7163 22.9339 52.7163 22.9339C52.7163 22.9339 55.3239 35.016 49.4134 38.1036L27.8574 65.3553C27.8574 65.3553 48.5442 79.9881 64.7111 81.8675L100 100.796V65.3553Z" fill="#FFB8B8"/>
<path d="M6.90964 26.7598H6.3194C1.00151 26.7598 -1.98775 31.6082 1.50657 34.7039C2.63125 35.7002 4.34069 36.3901 6.90964 36.4255V26.7598Z" fill="#FFB8B8"/>
<path d="M6.90964 36.4256H6.3194C1.00151 36.4256 -1.98775 41.2739 1.50657 44.3696C2.63125 45.366 4.34069 46.0558 6.90964 46.0912V36.4256Z" fill="#FFB8B8"/>
<path d="M6.90964 46.0911H6.3194C1.00151 46.0911 -1.98775 50.9394 1.50657 54.0351C2.63125 55.0315 4.34069 55.7213 6.90964 55.7567V46.0911Z" fill="#FFB8B8"/>
<path d="M6.90964 55.7568H6.3194C1.00151 55.7568 -1.98775 60.6052 1.50657 63.7009C2.63125 64.6973 4.34069 65.3871 6.90964 65.4225V55.7568Z" fill="#FFB8B8"/>
<path d="M53.0632 24.452H52.5459V13.5072C52.5459 12.6754 52.3337 11.8516 51.9215 11.0831C51.5092 10.3145 50.905 9.61623 50.1433 9.02801C49.3816 8.43979 48.4773 7.97319 47.4821 7.65485C46.4869 7.33651 45.4202 7.17267 44.343 7.17267H14.3161C13.2389 7.17267 12.1722 7.33651 11.177 7.65485C10.1818 7.97319 9.27754 8.43979 8.51584 9.02801C7.75413 9.61623 7.14992 10.3145 6.73769 11.0831C6.32546 11.8516 6.11328 12.6754 6.11328 13.5072V73.5512C6.11328 74.3831 6.32546 75.2068 6.73769 75.9753C7.14992 76.7439 7.75413 77.4422 8.51584 78.0304C9.27754 78.6186 10.1818 79.0852 11.177 79.4036C12.1722 79.7219 13.2389 79.8857 14.3161 79.8857H44.343C45.4202 79.8857 46.4869 79.7219 47.4821 79.4036C48.4773 79.0852 49.3816 78.6186 50.1433 78.0304C50.905 77.4422 51.5092 76.7439 51.9215 75.9753C52.3337 75.2068 52.5459 74.3831 52.5459 73.5512V32.2427H53.0632V24.452Z" fill="#3F3D56"/>
<path d="M50.8004 13.5516V73.5068C50.7991 74.208 50.5967 74.9003 50.2077 75.534C49.8188 76.1676 49.253 76.7269 48.551 77.1717C48.3957 77.2699 48.2338 77.3618 48.066 77.4469C47.0617 77.9638 45.8813 78.239 44.6744 78.2376H14.503C14.0139 78.2382 13.5265 78.1932 13.0515 78.1033C11.7182 77.8522 10.5327 77.2627 9.68506 76.4292C8.83744 75.5957 8.37678 74.5666 8.37695 73.5068V13.5516C8.3771 12.2969 9.02257 11.0937 10.1714 10.2065C11.3202 9.31937 12.8783 8.82092 14.503 8.8208H18.164C17.9838 9.16202 17.915 9.53224 17.9637 9.89884C18.0124 10.2654 18.1771 10.6172 18.4433 10.923C18.7095 11.2289 19.069 11.4794 19.4902 11.6527C19.9114 11.826 20.3813 11.9165 20.8585 11.9165H38.0598C38.5369 11.9161 39.0065 11.8252 39.4274 11.6519C39.8484 11.4785 40.2077 11.228 40.474 10.9223C40.7402 10.6167 40.9052 10.2652 40.9544 9.89874C41.0035 9.53231 40.9355 9.16216 40.7561 8.8208H44.6744C46.2991 8.82091 47.8572 9.31937 49.006 10.2065C50.1548 11.0937 50.8003 12.2969 50.8004 13.5516Z" fill="#33CC66"/>
<path d="M23.2578 54.0013C23.2578 54.0013 26.2195 60.3545 23.916 63.9122C21.6124 67.47 27.5358 71.536 27.5358 71.536C27.5358 71.536 43.0023 65.437 41.0279 62.3875C39.0534 59.338 35.7627 55.272 36.4208 52.7307L23.2578 54.0013Z" fill="#FFB8B8"/>
<path d="M29.0148 56.4155C34.8305 56.4155 39.5452 52.7747 39.5452 48.2835C39.5452 43.7924 34.8305 40.1516 29.0148 40.1516C23.199 40.1516 18.4844 43.7924 18.4844 48.2835C18.4844 52.7747 23.199 56.4155 29.0148 56.4155Z" fill="#FFB8B8"/>
<path d="M49.4901 76.8188C49.2133 77.0917 48.8985 77.3402 48.5514 77.5599C48.3961 77.6581 48.2342 77.75 48.0664 77.8351C47.0946 78.3345 45.9299 78.4915 44.6748 78.4915H18.0254L18.4861 68.6138L21.4483 63.5313C22.1133 63.9341 22.825 64.2886 23.5743 64.5905C23.7516 64.6643 23.9394 64.7382 24.1358 64.8106C26.9103 65.8457 31.4457 66.7559 35.8421 64.2213C37.2258 63.4239 38.5957 62.2842 39.8942 60.7001L48.1029 64.2938L48.534 68.1869L49.4901 76.8188Z" fill="white"/>
<path d="M24.765 59.7281L24.353 63.0534L24.1358 64.8107L23.8107 67.4271L22.4217 78.6258H14.5034C14.0143 78.6265 13.5269 78.5814 13.0518 78.4915L9.92969 67.3425L10.0201 67.2969L24.765 59.7281Z" fill="#2F2E41"/>
<path d="M50.7996 62.013V73.895C50.7983 74.5963 50.5959 75.2886 50.207 75.9222C49.818 76.5559 49.2522 77.1152 48.5502 77.5599C48.3949 77.6582 48.233 77.7501 48.0652 77.8351C47.0609 78.3521 45.8805 78.6272 44.6736 78.6258H34.0781C34.3093 74.871 34.7178 71.2061 35.1959 68.0137C35.401 66.6538 35.6183 65.3799 35.8409 64.2213C36.5571 60.4866 37.3254 57.9507 37.8765 57.6084L41.5201 59.465L50.7996 62.013Z" fill="#2F2E41"/>
<path d="M17.4982 76.4912L17.1193 78.6256H14.503C14.0139 78.6263 13.5265 78.5813 13.0515 78.4914C11.7182 78.2403 10.5327 77.6508 9.68506 76.8173C8.83744 75.9838 8.37678 74.9546 8.37695 73.8949V73.4653L9.60077 67.3423L10.0197 67.2967L11.9041 67.0886L17.4982 76.4912Z" fill="#2F2E41"/>
<path d="M50.8012 63.5621V73.895C50.7999 74.5962 50.5975 75.2885 50.2086 75.9222C49.8196 76.5558 49.2538 77.1151 48.5518 77.5599C48.3965 77.6581 48.2346 77.75 48.0668 77.8351L46.457 72.425L48.5344 68.1869L50.8012 63.5621Z" fill="#2F2E41"/>
<path d="M39.0587 40.9287C37.4664 38.9318 34.9738 37.4603 32.0608 36.7974L29.9213 38.1192L30.7531 36.5775C30.0536 36.4951 29.3456 36.4635 28.6385 36.4831L26.7135 38.3945L27.5102 36.5486C24.1839 36.8761 21.0216 38.2752 19.1048 40.4096C16.6547 43.1378 16.2413 46.9318 18.651 49.6813C19.3125 48.1114 20.1154 46.6384 20.7769 45.0685C20.9296 45.1189 21.508 45.1157 22.3443 45.0744L23.1492 43.6242L23.374 45.013C25.8685 44.8452 29.5685 44.4767 31.9334 44.1391L31.7035 43.0737L33.0793 43.9591C33.8038 43.8302 34.234 43.7135 34.1985 43.6242C35.9573 45.8138 37.7 47.2124 39.4588 49.402C40.1265 46.3135 41.3051 43.7462 39.0587 40.9287Z" fill="#2F2E41"/>
<path d="M38.4746 49.1292C38.8683 49.1292 39.1874 48.6363 39.1874 48.0282C39.1874 47.4202 38.8683 46.9272 38.4746 46.9272C38.0809 46.9272 37.7617 47.4202 37.7617 48.0282C37.7617 48.6363 38.0809 49.1292 38.4746 49.1292Z" fill="#FFB8B8"/>
<path d="M61.6678 76.7662C68.9164 76.7662 74.7925 66.6087 74.7925 54.0788C74.7925 41.5489 68.9164 31.3914 61.6678 31.3914C54.4191 31.3914 48.543 41.5489 48.543 54.0788C48.543 66.6087 54.4191 76.7662 61.6678 76.7662Z" fill="#FFB8B8"/>
<path opacity="0.2" d="M14.465 25.7531C13.7774 25.7531 13.1052 25.5956 12.5335 25.3006C11.9617 25.0056 11.5161 24.5863 11.2529 24.0957C10.9898 23.6051 10.9209 23.0652 11.0551 22.5444C11.1892 22.0236 11.5204 21.5452 12.0066 21.1697C12.4928 20.7942 13.1123 20.5385 13.7868 20.4349C14.4612 20.3313 15.1603 20.3845 15.7956 20.5877C16.4308 20.7909 16.9738 21.135 17.3559 21.5765C17.7379 22.0181 17.9418 22.5372 17.9418 23.0682C17.9408 23.78 17.5741 24.4625 16.9223 24.9658C16.2705 25.4691 15.3868 25.7523 14.465 25.7531ZM14.465 20.6518C13.8462 20.6518 13.2412 20.7935 12.7266 21.059C12.212 21.3245 11.811 21.7019 11.5741 22.1435C11.3373 22.585 11.2754 23.0709 11.3961 23.5396C11.5168 24.0084 11.8148 24.4389 12.2525 24.7769C12.6901 25.1148 13.2476 25.3449 13.8546 25.4382C14.4616 25.5314 15.0907 25.4836 15.6625 25.3007C16.2343 25.1178 16.723 24.8081 17.0668 24.4107C17.4106 24.0133 17.5941 23.5461 17.5941 23.0682C17.5932 22.4275 17.2632 21.8133 16.6766 21.3603C16.09 20.9073 15.2946 20.6525 14.465 20.6518Z" fill="black"/>
<path opacity="0.2" d="M13.0742 22.7997C13.3623 22.7997 13.5958 22.6194 13.5958 22.397C13.5958 22.1746 13.3623 21.9943 13.0742 21.9943C12.7862 21.9943 12.5527 22.1746 12.5527 22.397C12.5527 22.6194 12.7862 22.7997 13.0742 22.7997Z" fill="black"/>
<path opacity="0.2" d="M15.6817 22.7997C15.9697 22.7997 16.2032 22.6194 16.2032 22.397C16.2032 22.1746 15.9697 21.9943 15.6817 21.9943C15.3936 21.9943 15.1602 22.1746 15.1602 22.397C15.1602 22.6194 15.3936 22.7997 15.6817 22.7997Z" fill="black"/>
<path opacity="0.2" d="M15.6818 24.008H13.0742C13.0281 24.008 12.9839 23.9938 12.9513 23.9687C12.9187 23.9435 12.9004 23.9093 12.9004 23.8737C12.9004 23.8381 12.9187 23.8039 12.9513 23.7787C12.9839 23.7535 13.0281 23.7394 13.0742 23.7394H15.6818C15.7279 23.7394 15.7721 23.7535 15.8047 23.7787C15.8373 23.8039 15.8556 23.8381 15.8556 23.8737C15.8556 23.9093 15.8373 23.9435 15.8047 23.9687C15.7721 23.9938 15.7279 24.008 15.6818 24.008Z" fill="black"/>
<path opacity="0.2" d="M44.7131 25.7531C44.0255 25.7531 43.3533 25.5956 42.7815 25.3006C42.2098 25.0056 41.7641 24.5863 41.501 24.0957C41.2378 23.6051 41.169 23.0652 41.3031 22.5444C41.4373 22.0236 41.7684 21.5452 42.2547 21.1697C42.7409 20.7942 43.3604 20.5385 44.0348 20.4349C44.7093 20.3313 45.4083 20.3845 46.0436 20.5877C46.6789 20.7909 47.2219 21.135 47.604 21.5765C47.986 22.0181 48.1899 22.5372 48.1899 23.0682C48.1889 23.78 47.8222 24.4625 47.1704 24.9658C46.5186 25.4692 45.6349 25.7523 44.7131 25.7531ZM44.7131 20.6518C44.0942 20.6518 43.4893 20.7935 42.9747 21.059C42.4601 21.3245 42.059 21.7019 41.8222 22.1435C41.5854 22.585 41.5234 23.0709 41.6441 23.5396C41.7649 24.0084 42.0629 24.4389 42.5005 24.7769C42.9381 25.1148 43.4957 25.3449 44.1027 25.4382C44.7096 25.5314 45.3388 25.4836 45.9106 25.3007C46.4823 25.1178 46.971 24.8081 47.3149 24.4107C47.6587 24.0133 47.8422 23.5461 47.8422 23.0682C47.8413 22.4276 47.5113 21.8134 46.9247 21.3604C46.3381 20.9073 45.5427 20.6525 44.7131 20.6518Z" fill="black"/>
<path opacity="0.2" d="M43.3223 22.7997C43.6103 22.7997 43.8438 22.6194 43.8438 22.397C43.8438 22.1746 43.6103 21.9943 43.3223 21.9943C43.0343 21.9943 42.8008 22.1746 42.8008 22.397C42.8008 22.6194 43.0343 22.7997 43.3223 22.7997Z" fill="black"/>
<path opacity="0.2" d="M45.9297 22.7997C46.2177 22.7997 46.4512 22.6194 46.4512 22.397C46.4512 22.1746 46.2177 21.9943 45.9297 21.9943C45.6417 21.9943 45.4082 22.1746 45.4082 22.397C45.4082 22.6194 45.6417 22.7997 45.9297 22.7997Z" fill="black"/>
<path opacity="0.2" d="M45.9281 24.2764C45.8977 24.2764 45.8678 24.2703 45.8415 24.2585C45.4775 24.0803 45.0554 23.9857 44.6245 23.9857C44.1935 23.9857 43.7714 24.0803 43.4074 24.2585C43.3876 24.2674 43.3658 24.2731 43.3431 24.2754C43.3204 24.2777 43.2974 24.2766 43.2753 24.272C43.2532 24.2674 43.2325 24.2596 43.2144 24.2488C43.1963 24.238 43.1811 24.2246 43.1697 24.2093C43.1583 24.194 43.1509 24.1771 43.1479 24.1596C43.145 24.1421 43.1465 24.1243 43.1525 24.1073C43.1585 24.0902 43.1687 24.0743 43.1827 24.0603C43.1967 24.0463 43.2141 24.0346 43.2339 24.0258C43.6511 23.8249 44.1328 23.7184 44.6245 23.7184C45.1161 23.7184 45.5979 23.8249 46.015 24.0258C46.0482 24.0406 46.0742 24.0634 46.0888 24.0907C46.1035 24.118 46.1061 24.1483 46.0962 24.1769C46.0863 24.2055 46.0644 24.2307 46.034 24.2487C46.0036 24.2667 45.9664 24.2765 45.9281 24.2764Z" fill="black"/>
<path d="M29.762 28.5194C28.3659 28.5194 27.0011 28.1997 25.8403 27.6007C24.6795 27.0017 23.7747 26.1504 23.2405 25.1543C22.7062 24.1582 22.5664 23.0622 22.8388 22.0048C23.1111 20.9473 23.7834 19.976 24.7706 19.2137C25.7578 18.4513 27.0156 17.9321 28.3849 17.7218C29.7542 17.5115 31.1735 17.6194 32.4633 18.032C33.7532 18.4446 34.8556 19.1433 35.6313 20.0397C36.4069 20.9362 36.8209 21.9901 36.8209 23.0682C36.8188 24.5135 36.0744 25.899 34.751 26.921C33.4277 27.9429 31.6335 28.5177 29.762 28.5194ZM29.762 18.1622C28.5055 18.1622 27.2772 18.4499 26.2325 18.989C25.1877 19.5281 24.3735 20.2943 23.8926 21.1908C23.4118 22.0872 23.286 23.0737 23.5311 24.0254C23.7762 24.977 24.3813 25.8512 25.2698 26.5373C26.1582 27.2235 27.2902 27.6907 28.5226 27.88C29.755 28.0693 31.0323 27.9722 32.1932 27.6008C33.3541 27.2295 34.3463 26.6007 35.0443 25.7939C35.7424 24.9871 36.115 24.0386 36.115 23.0682C36.1131 21.7675 35.4432 20.5205 34.2522 19.6008C33.0612 18.681 31.4463 18.1637 29.762 18.1622V18.1622Z" fill="white"/>
<path d="M26.9397 22.5223C27.5245 22.5223 27.9985 22.1563 27.9985 21.705C27.9985 21.2536 27.5245 20.8877 26.9397 20.8877C26.3549 20.8877 25.8809 21.2536 25.8809 21.705C25.8809 22.1563 26.3549 22.5223 26.9397 22.5223Z" fill="white"/>
<path d="M32.2327 22.5223C32.8174 22.5223 33.2915 22.1563 33.2915 21.705C33.2915 21.2536 32.8174 20.8877 32.2327 20.8877C31.6479 20.8877 31.1738 21.2536 31.1738 21.705C31.1738 22.1563 31.6479 22.5223 32.2327 22.5223Z" fill="white"/>
<path d="M29.7658 25.7289C28.8164 25.7289 27.8099 25.4632 26.7465 24.9319C26.6681 24.8926 26.6131 24.8308 26.5937 24.7602C26.5742 24.6896 26.5919 24.616 26.6427 24.5554C26.6936 24.4948 26.7735 24.4523 26.865 24.4372C26.9564 24.4221 27.0519 24.4357 27.1304 24.4749C29.0011 25.4109 30.5951 25.4177 32.0044 24.4956C32.0759 24.449 32.1683 24.4262 32.2615 24.4322C32.3547 24.4381 32.441 24.4724 32.5015 24.5275C32.5619 24.5826 32.5916 24.6539 32.584 24.7258C32.5764 24.7978 32.5321 24.8644 32.4608 24.9112C31.6281 25.4563 30.7273 25.7289 29.7658 25.7289Z" fill="white"/>
<path d="M41.4086 32.0625H36.8203V31.5175H40.7027V28.5193H41.4086V32.0625Z" fill="white"/>
<path d="M18.8211 17.617H18.1152V14.0737H22.7035V14.6189H18.8211V17.617Z" fill="white"/>
</g>
<defs>
<clipPath id="clip0">
<rect width="100" height="99.9516" fill="white" transform="translate(0 0.844482)"/>
</clipPath>
</defs>
</svg>
