<svg width="100" height="101" viewBox="0 0 100 101" fill="none" xmlns="http://www.w3.org/2000/svg">
<g clip-path="url(#clip0)">
<path d="M46.893 97.8458C46.893 99.3733 36.3825 99.536 23.4465 100.612C10.5226 101.686 0 99.3733 0 97.8458C0 96.3182 10.571 93.2446 23.4465 95.0799C36.3825 96.9238 46.893 96.3182 46.893 97.8458Z" fill="#E6E6E6"/>
<path d="M96.3326 0.935714H68.5415C67.2004 0.935712 65.8993 1.54273 64.8519 2.65699C63.8045 3.77125 63.0733 5.32645 62.7783 7.06693L48.736 89.9319C48.5829 90.8358 48.5802 91.7732 48.7281 92.6786C48.8761 93.584 49.1711 94.4353 49.5925 95.173C50.014 95.9106 50.5516 96.5167 51.1676 96.9487C51.7837 97.3807 52.4634 97.6282 53.159 97.6738L81.7284 99.5465C83.2582 99.6468 84.7632 99.0031 85.9625 97.7356C87.1618 96.4681 87.9735 94.6634 88.2461 92.6582L96.2117 34.0717L96.8043 34.297L98.3285 23.1927L97.7185 22.9898L99.942 6.63618C100.037 5.93572 100.015 5.21594 99.8773 4.52814C99.7395 3.84034 99.4893 3.20146 99.1446 2.65706C98.7999 2.11265 98.3691 1.67612 97.8831 1.37858C97.397 1.08104 96.8676 0.929826 96.3326 0.935712L96.3326 0.935714Z" fill="#3F3D56"/>
<path d="M72.1995 2.72125H68.9554C68.0238 2.72125 67.1202 3.14515 66.3946 3.92257C65.669 4.69999 65.1651 5.78417 64.9665 6.99514L51.4878 89.1841C51.4102 89.6573 51.4103 90.1472 51.4881 90.6203C51.5658 91.0935 51.7194 91.5387 51.9383 91.9257C52.1573 92.3126 52.4364 92.6322 52.7567 92.8624C53.0769 93.0927 53.4308 93.2283 53.7941 93.26L82.271 95.743C83.0744 95.8131 83.8691 95.4872 84.5033 94.8274C85.1376 94.1677 85.5671 93.2203 85.7098 92.1662L97.2112 7.2159C97.2856 6.66607 97.2685 6.1012 97.1609 5.56115C97.0533 5.02111 96.858 4.51906 96.5887 4.09042C96.3193 3.66179 95.9826 3.31702 95.6021 3.08044C95.2217 2.84387 94.8069 2.72125 94.387 2.72125H91.3095C91.0116 2.72125 90.7221 2.85189 90.4857 3.09294C90.2492 3.33399 90.0792 3.672 90.0017 4.05465C89.9334 4.39246 89.7832 4.69086 89.5745 4.90367C89.3658 5.11647 89.1101 5.2318 88.8472 5.23179H74.2372C73.7223 5.2318 73.2264 4.97322 72.8486 4.50776C72.4708 4.04231 72.2389 3.40428 72.1995 2.72125V2.72125Z" fill="white"/>
<path d="M41.7168 44.9974L44.2277 51.6106L51.7353 56.1514C52.537 57.954 55.0847 58.092 55.27 56.9263C55.4778 55.6185 52.1762 53.5136 52.1762 53.5136L45.8967 47.8629L45.3473 42.9984L41.7168 44.9974Z" fill="#A0616A"/>
<path d="M42.0138 89.3771L41.5508 94.3056L44.2365 94.552L44.5143 89.3771H42.0138Z" fill="#A0616A"/>
<path d="M42.383 93.5664C42.1429 93.2286 41.9214 92.8682 41.7203 92.4881C41.3354 91.7795 40.9939 95.4145 40.9939 95.4145C40.9939 95.4145 40.6234 96.893 40.716 97.6323C40.8086 98.3716 42.9387 98.3716 43.3091 98.2483C43.6796 98.1251 45.5318 98.2483 45.5318 98.2483H48.3101C50.7179 96.7698 48.3101 95.7841 48.3101 95.7841C47.5692 95.6609 45.0687 92.5807 45.0687 92.5807L44.5131 91.2254C44.1426 91.1022 43.7722 92.9503 43.7722 92.9503L42.383 93.5664Z" fill="#2F2E41"/>
<path d="M35.0686 89.4389L34.6055 94.3673L37.2912 94.6138L37.5691 89.4389H35.0686Z" fill="#A0616A"/>
<path d="M35.4377 93.628C35.1976 93.2903 34.9761 92.9299 34.775 92.5498C34.3901 91.8412 34.0486 95.4762 34.0486 95.4762C34.0486 95.4762 33.6781 96.8315 33.7707 97.5708C33.8633 98.31 35.9934 98.31 36.3638 98.1868C36.7343 98.0636 38.5865 98.31 38.5865 98.31H41.3648C43.7726 96.8315 41.3648 95.8458 41.3648 95.8458C40.6239 95.7226 38.1234 92.6424 38.1234 92.6424L37.5677 91.2871C37.1973 91.1639 36.8269 93.012 36.8269 93.012L35.4377 93.628Z" fill="#2F2E41"/>
<path d="M38.1235 57.6509C37.7531 58.2669 37.9383 60.3615 37.9383 60.3615C37.9383 60.3615 37.29 67.138 37.5679 67.7541C37.8457 68.3701 37.3826 68.863 37.1048 69.7254C36.827 70.5879 36.5491 72.6825 36.5491 72.6825C34.9748 74.4074 35.0674 82.2928 35.0674 82.2928L34.5117 89.3158C34.6969 90.055 37.29 90.1782 37.6605 90.055C38.0309 89.9318 39.1422 78.8429 39.1422 78.8429L41.6427 72.5592C41.6427 72.5592 41.4575 89.3157 41.4575 90.055C41.4575 90.7943 43.958 90.4247 44.5136 90.4247C45.0693 90.4247 45.0693 78.1037 45.0693 78.1037L45.625 74.9002L48.5885 60.2383V58.5133L48.1254 57.6509C48.1254 57.6509 38.494 57.0348 38.1235 57.6509Z" fill="#2F2E41"/>
<path d="M42.199 29.6822C43.7846 29.6822 45.07 27.9722 45.07 25.8627C45.07 23.7533 43.7846 22.0432 42.199 22.0432C40.6135 22.0432 39.3281 23.7533 39.3281 25.8627C39.3281 27.9722 40.6135 29.6822 42.199 29.6822Z" fill="#A0616A"/>
<path d="M43.6349 27.6492C43.053 29.3732 43.3976 31.7812 44.561 34.4257L39.8379 31.4687L40.5788 30.6062L40.3936 28.142L43.6349 27.6492Z" fill="#A0616A"/>
<path d="M43.6346 31.5919C44.2531 32.0811 44.6231 32.9799 44.8354 33.8945C45.2287 35.5879 45.4653 37.3386 45.5403 39.1081L45.7646 44.4057L48.5429 58.4516C46.135 61.1622 44.7459 60.5461 41.5045 58.3283C38.2632 56.1106 37.8927 59.0676 37.8927 59.0676C37.8927 59.0676 37.6149 58.9444 37.8927 58.5748C38.1706 58.2051 37.8927 58.5748 37.6149 58.2051C37.3371 57.8355 37.6149 58.2051 37.7075 57.8355C37.8001 57.4659 37.7075 57.7123 37.6149 57.5891C37.5223 57.4659 37.9853 56.357 37.9853 56.357L37.2445 47.1163L36.3184 34.0561C37.4297 32.2079 40.5784 30.6062 40.5784 30.6062L43.4494 33.3168C44.3755 33.8096 43.6346 31.8383 43.6346 31.8383L43.6346 31.5919Z" fill="#33CC66"/>
<path d="M34.7904 41.8799L34.4199 49.2725L39.1431 58.2668C39.1431 60.3613 39.9765 60.8542 39.9765 60.8542C40.2922 60.1838 40.5708 59.4838 40.81 58.7596C41.2731 57.4043 40.5322 56.2954 40.5322 56.2954L37.2908 47.1779L38.68 42.6192L34.7904 41.8799Z" fill="#A0616A"/>
<path d="M36.3639 34.1176C34.7895 34.8569 34.5117 42.8655 34.5117 42.8655C36.3639 41.5102 38.5866 43.728 38.5866 43.728C38.5866 43.728 39.0496 41.6334 39.6053 38.9228C39.7731 38.1604 39.7931 37.3538 39.6636 36.5783C39.534 35.8028 39.2591 35.0834 38.8644 34.4873C38.8644 34.4873 37.9383 33.3784 36.3639 34.1176Z" fill="#33CC66"/>
<path d="M39.5587 27.0332C39.9242 26.6442 40.4228 27.3513 40.4228 27.3513L40.7151 23.8504C40.7151 23.8504 42.5426 24.1421 43.7121 23.7531C44.8816 23.3641 45.0644 25.1632 45.0644 25.1632C45.1247 24.4367 45.1369 23.7045 45.1009 22.9751C45.0278 22.0999 44.0776 21.2247 42.3964 20.6412C40.7152 20.0577 39.838 22.5862 39.838 22.5862C38.6685 23.3641 39.1932 27.4222 39.5587 27.0332Z" fill="#2F2E41"/>
<path d="M88.3603 60.1792C88.4161 60.182 88.4708 60.1581 88.5145 60.112C88.5582 60.0658 88.5881 60.0004 88.5988 59.9275L94.9842 13.688C94.9903 13.644 94.9891 13.5988 94.9806 13.5554C94.9722 13.5121 94.9567 13.4718 94.9354 13.4372C94.914 13.4027 94.8872 13.3747 94.8569 13.3554C94.8265 13.336 94.7934 13.3257 94.7597 13.3252L65.7085 12.8749H65.7059C65.6534 12.8752 65.6026 12.8991 65.5617 12.9427C65.5207 12.9863 65.4921 13.047 65.4804 13.115L57.9528 57.8537C57.9455 57.8974 57.9454 57.9427 57.9526 57.9865C57.9598 58.0302 57.9741 58.0713 57.9945 58.107C58.0149 58.1426 58.0409 58.1719 58.0707 58.1927C58.1005 58.2135 58.1334 58.2255 58.167 58.2276L88.3603 60.1792Z" fill="#E6E6E6"/>
<path d="M63.077 63.1328C63.0509 63.1328 63.0256 63.1446 63.0052 63.1661C62.9848 63.1877 62.9705 63.2179 62.9646 63.2517L62.6964 64.7815C62.6926 64.8032 62.6924 64.8257 62.6957 64.8474C62.6991 64.8692 62.706 64.8897 62.7159 64.9076C62.7258 64.9255 62.7385 64.9403 62.7532 64.951C62.7678 64.9618 62.784 64.9681 62.8006 64.9697L77.9577 66.4029C77.9858 66.4053 78.0136 66.3941 78.036 66.3713C78.0583 66.3485 78.0737 66.3157 78.0793 66.279L78.3373 64.509C78.3405 64.4875 78.3401 64.4654 78.3363 64.4441C78.3325 64.4228 78.3253 64.4029 78.3152 64.3856C78.3051 64.3683 78.2924 64.354 78.2778 64.3438C78.2633 64.3336 78.2472 64.3277 78.2308 64.3264L63.084 63.1331C63.0817 63.133 63.0793 63.1328 63.077 63.1328Z" fill="#E6E6E6"/>
<path d="M81.4931 72.0873C81.5204 72.0901 81.5475 72.0799 81.5698 72.0586C81.592 72.0373 81.6078 72.0062 81.6144 71.9709L81.9429 70.1971C81.9469 70.1754 81.9473 70.1527 81.944 70.1307C81.9408 70.1087 81.9339 70.0879 81.924 70.0698C81.9141 70.0517 81.9013 70.0367 81.8866 70.0259C81.8718 70.015 81.8555 70.0086 81.8387 70.007L62.4825 68.206C62.4562 68.2032 62.4301 68.2126 62.4084 68.2326C62.3867 68.2525 62.3709 68.2818 62.3637 68.3155L62.0224 69.8482C62.0175 69.8702 62.0163 69.8933 62.019 69.9159C62.0217 69.9384 62.0281 69.96 62.0378 69.9788C62.0475 69.9977 62.0603 70.0134 62.0752 70.0248C62.0901 70.0363 62.1067 70.0432 62.1238 70.045L81.4931 72.0873Z" fill="#E6E6E6"/>
<path d="M80.454 77.7728C80.4813 77.7757 80.5085 77.7656 80.5308 77.7443C80.553 77.7229 80.5688 77.6918 80.5754 77.6564L80.9038 75.8826C80.9078 75.8609 80.9082 75.8382 80.905 75.8162C80.9017 75.7942 80.8949 75.7734 80.8849 75.7553C80.875 75.7372 80.8622 75.7222 80.8475 75.7114C80.8327 75.7005 80.8164 75.6941 80.7996 75.6925L61.4434 73.8915C61.4172 73.8887 61.391 73.8981 61.3693 73.918C61.3477 73.938 61.3319 73.9673 61.3246 74.001L60.9833 75.5337C60.9784 75.5557 60.9772 75.5788 60.9799 75.6014C60.9826 75.624 60.989 75.6455 60.9987 75.6643C61.0085 75.6832 61.0212 75.6989 61.0361 75.7104C61.051 75.7218 61.0676 75.7287 61.0848 75.7305L80.454 77.7728Z" fill="#E6E6E6"/>
<path d="M71.5378 87.5265C71.5654 87.5303 71.593 87.5207 71.6157 87.4994C71.6383 87.4781 71.6543 87.4465 71.6607 87.4107L72.3552 83.7149C72.3593 83.6933 72.3598 83.6708 72.3566 83.6489C72.3535 83.627 72.3469 83.6063 72.3371 83.5882C72.3274 83.5701 72.3148 83.555 72.3003 83.5439C72.2857 83.5329 72.2695 83.5262 72.2528 83.5244L60.3661 82.1942C60.3383 82.1917 60.3108 82.2023 60.2883 82.2242C60.2659 82.2462 60.2501 82.278 60.2436 82.314L59.6512 85.861C59.6476 85.8822 59.6475 85.9043 59.6509 85.9256C59.6542 85.947 59.6609 85.9671 59.6706 85.9847C59.6802 86.0024 59.6926 86.017 59.7068 86.0278C59.721 86.0386 59.7368 86.0453 59.7531 86.0473L71.5378 87.5265Z" fill="#33CC66"/>
</g>
<defs>
<clipPath id="clip0">
<rect width="100" height="99.9516" fill="white" transform="translate(0 0.935547)"/>
</clipPath>
</defs>
</svg>
