<svg width="100" height="101" viewBox="0 0 100 101" fill="none" xmlns="http://www.w3.org/2000/svg">
<g clip-path="url(#clip0)">
<path d="M54.5848 28.5738C59.6701 28.5738 63.7926 23.7992 63.7926 17.9095C63.7926 12.0198 59.6701 7.24524 54.5848 7.24524C49.4994 7.24524 45.377 12.0198 45.377 17.9095C45.377 23.7992 49.4994 28.5738 54.5848 28.5738Z" fill="#A0616A"/>
<path d="M47.7105 23.2417C47.7105 23.2417 49.4453 38.388 46.7763 40.0881C44.1074 41.7882 62.6565 41.9428 62.6565 41.9428C62.6565 41.9428 58.5196 28.8057 60.3879 24.7872L47.7105 23.2417Z" fill="#A0616A"/>
<path d="M76.2019 42.0194L74.6592 50.155L71.3974 67.3675L71.2997 68.3102L70.174 79.223L69.4252 86.4726L68.9231 91.3424C65.8704 93.1595 63.6579 94.4139 63.6579 94.4139C63.6579 94.4139 63.4675 93.3088 63.1608 91.8949C61.0183 92.6388 57.054 93.873 53.6945 94.1195C54.9179 95.6988 55.4801 97.1823 54.7175 98.2772C52.4161 101.578 42.9148 94.6633 39.5916 92.0849C39.5142 92.7022 39.4849 93.3264 39.5039 93.9498L36.9608 91.6846L37.2125 86.4726L37.637 77.6538L38.1704 66.5946C38.0022 66.121 37.8612 65.6351 37.7484 65.14C36.9696 61.9322 36.0242 55.5266 35.2992 50.155C34.7157 45.8319 34.2775 42.1789 34.1848 41.4016C34.1723 41.3001 34.166 41.2478 34.166 41.2478L48.2439 34.0432C49.2444 36.7304 53.9162 37.5382 53.9162 37.5382C57.7865 37.2293 60.8205 34.8655 60.8205 34.8655L76.2019 42.0194Z" fill="#D0CDE1"/>
<path d="M64.7255 91.3234C64.7255 91.3234 64.1294 91.5598 63.1603 91.8948C61.0178 92.6388 57.0535 93.8729 53.694 94.1194C50.8016 94.334 48.3574 93.8178 47.9104 91.6323C47.7188 90.6926 47.9905 89.9196 48.5828 89.2844C50.3508 87.3861 54.9687 86.706 58.6313 86.4725C59.6655 86.4072 60.6222 86.3768 61.4185 86.3652C62.7709 86.3449 63.6574 86.3768 63.6574 86.3768L63.6787 86.4725L64.7255 91.3234Z" fill="#A0616A"/>
<path d="M46.9238 7.82207L45.2022 7.02381C45.2022 7.02381 48.802 2.43379 53.8104 2.83294L52.4017 1.03682C52.4017 1.03682 55.845 -0.559688 58.9753 3.63118C60.6208 5.83422 62.5246 8.4238 63.7115 11.3409H65.5553L64.7857 13.3033L67.479 15.2657L64.7146 14.9132C64.8794 15.9878 64.9046 17.0849 64.7896 18.1682C64.6711 19.2518 64.1936 20.2397 63.4581 20.9233C63.4581 20.9233 61.3229 15.8047 61.3229 15.0064V17.0021C61.3229 17.0021 59.6013 15.206 59.6013 14.0086L58.6622 15.4056L58.1927 13.2103L52.4018 15.4056L53.3408 13.6095L49.741 14.2082L51.1497 12.0129C51.1497 12.0129 47.0804 14.6073 46.9238 16.8025C46.7673 18.9977 45.5762 21.0779 45.5762 21.0779C45.5762 21.0779 42.385 10.8155 46.9238 7.82207Z" fill="#2F2E41"/>
<path d="M86.2102 79.4216C85.2724 80.5992 82.9484 82.3727 80.131 84.2928C79.083 85.0063 77.9673 85.7416 76.8291 86.4725C74.1132 88.2171 71.2696 89.9457 68.9231 91.3423C65.8703 93.1594 63.6578 94.4138 63.6578 94.4138C63.6578 94.4138 63.4674 93.3088 63.1607 91.8948C62.75 90.0023 62.1314 87.5558 61.4865 86.4725C61.464 86.4348 61.4415 86.4 61.4189 86.3652C61.2311 86.0795 61.042 85.9127 60.8555 85.9127L70.174 79.2229L74.2009 76.3312L71.2996 68.3101L67.6609 58.2486L69.8572 50.155L72.0647 42.0193H76.2018C76.2018 42.0193 77.5717 45.4824 79.3234 50.3116C79.5851 51.0338 79.8556 51.7864 80.131 52.5638C83.7347 62.7152 88.2274 76.891 86.2102 79.4216Z" fill="#D0CDE1"/>
<path d="M54.7179 98.2773C52.4165 101.578 42.9152 94.6633 39.592 92.0849C38.8682 91.5236 38.4375 91.1683 38.4375 91.1683L41.4777 86.4725L42.4406 84.9861C42.4406 84.9861 43.3021 85.5154 44.5755 86.3768C44.6219 86.4087 44.6682 86.4406 44.7158 86.4725C45.8139 87.2194 47.1925 88.1954 48.5837 89.2845C50.5032 90.7884 52.444 92.504 53.6949 94.1195C54.9183 95.6988 55.4805 97.1823 54.7179 98.2773Z" fill="#A0616A"/>
<path d="M44.5746 86.3769C44.2348 86.3754 43.8955 86.4074 43.5604 86.4726C40.6817 87.0455 39.8327 90.0633 39.5911 92.0849C39.5137 92.7023 39.4844 93.3265 39.5034 93.9499L36.9603 91.6847L36.0337 90.8595C33.8036 89.9589 31.8165 88.3593 30.0935 86.4726C28.5988 84.8069 27.258 82.9654 26.0929 80.9778C24.9324 79.0188 23.8978 76.9636 22.9976 74.8289C22.7464 74.2332 22.6114 73.5808 22.6021 72.9179C22.5928 72.2551 22.7094 71.598 22.9438 70.9931L26.0929 62.8647L30.6958 50.9846C30.7296 50.7018 30.7667 50.4253 30.8072 50.1551C31.7201 44.0932 34.1655 41.4016 34.1655 41.4016H36.0337L37.2833 50.1551L38.836 61.0302L37.7479 65.1401L35.2336 74.6317L37.6365 77.6539L44.5746 86.3769Z" fill="#D0CDE1"/>
<path d="M46.6888 61.0388L48.2859 63.1968C48.8792 63.0658 49.4989 62.9118 50.1371 62.7389L49.6784 61.0388L50.8 62.5543C57.5613 60.6283 65.9418 56.8838 65.9418 56.8838C65.9418 56.8838 56.8942 57.6521 50.1387 55.9428C47.1497 55.1865 44.0744 56.9026 42.8479 60.1488C42.1349 62.0356 42.2469 63.6703 44.7754 63.6703C45.6298 63.6534 46.4818 63.5606 47.3239 63.3927L46.6888 61.0388Z" fill="#33CC66"/>
<path d="M83.0983 96.5081V97.3884C83.0987 97.63 83.0601 97.8695 82.9843 98.0946C82.9507 98.195 82.9101 98.292 82.8629 98.3847C82.7136 98.6748 82.5019 98.915 82.2484 99.0818C81.9948 99.2486 81.7082 99.3362 81.4166 99.336H25.502C25.2104 99.3362 24.9238 99.2486 24.6702 99.0818C24.4167 98.915 24.205 98.6748 24.0557 98.3847C24.0085 98.292 23.9679 98.195 23.9343 98.0946C23.8585 97.8695 23.8199 97.63 23.8203 97.3884V96.5081C23.8203 96.2523 23.8637 95.999 23.9482 95.7627C24.0327 95.5264 24.1566 95.3116 24.3127 95.1308C24.4689 94.9499 24.6543 94.8064 24.8583 94.7086C25.0624 94.6107 25.2811 94.5604 25.502 94.5605H28.725V94.1501C28.725 94.1394 28.7268 94.1288 28.7303 94.119C28.7338 94.1091 28.739 94.1001 28.7455 94.0926C28.752 94.0851 28.7597 94.0791 28.7683 94.075C28.7768 94.0709 28.7859 94.0688 28.7951 94.0688H30.4767C30.486 94.0688 30.4951 94.0709 30.5036 94.075C30.5121 94.0791 30.5198 94.0851 30.5264 94.0926C30.5329 94.1001 30.538 94.1091 30.5416 94.119C30.5451 94.1288 30.5469 94.1394 30.5469 94.1501V94.5605H31.5974V94.1501C31.5974 94.1394 31.5992 94.1288 31.6027 94.119C31.6062 94.1091 31.6114 94.1001 31.6179 94.0926C31.6244 94.0851 31.6322 94.0791 31.6407 94.075C31.6492 94.0709 31.6583 94.0688 31.6675 94.0688H33.3492C33.3584 94.0688 33.3675 94.0709 33.376 94.075C33.3845 94.0791 33.3923 94.0851 33.3988 94.0926C33.4053 94.1001 33.4105 94.1091 33.414 94.119C33.4175 94.1288 33.4193 94.1394 33.4193 94.1501V94.5605H34.4711V94.1501C34.4711 94.1394 34.4729 94.1288 34.4764 94.119C34.4799 94.1091 34.4851 94.1001 34.4916 94.0926C34.4981 94.0851 34.5058 94.0791 34.5144 94.075C34.5229 94.0709 34.532 94.0688 34.5412 94.0688H36.2228C36.2321 94.0688 36.2412 94.0709 36.2497 94.075C36.2582 94.0791 36.2659 94.0851 36.2725 94.0926C36.279 94.1001 36.2841 94.1091 36.2877 94.119C36.2912 94.1288 36.293 94.1394 36.293 94.1501V94.5605H37.3435V94.1501C37.3435 94.1394 37.3453 94.1288 37.3488 94.119C37.3523 94.1091 37.3575 94.1001 37.364 94.0926C37.3705 94.0851 37.3783 94.0791 37.3868 94.075C37.3953 94.0709 37.4044 94.0688 37.4136 94.0688H39.0953C39.1045 94.0688 39.1136 94.0709 39.1221 94.075C39.1306 94.0791 39.1384 94.0851 39.1449 94.0926C39.1514 94.1001 39.1566 94.1091 39.1601 94.119C39.1636 94.1288 39.1654 94.1394 39.1654 94.1501V94.5605H40.2159V94.1501C40.2159 94.1394 40.2177 94.1288 40.2213 94.119C40.2248 94.1091 40.2299 94.1001 40.2365 94.0926C40.243 94.0851 40.2507 94.0791 40.2592 94.075C40.2677 94.0709 40.2769 94.0688 40.2861 94.0688H41.9677C41.9769 94.0688 41.986 94.0709 41.9946 94.075C42.0031 94.0791 42.0108 94.0851 42.0173 94.0926C42.0238 94.1001 42.029 94.1091 42.0325 94.119C42.036 94.1288 42.0378 94.1394 42.0378 94.1501V94.5605H43.0896V94.1501C43.0896 94.1394 43.0914 94.1288 43.0949 94.119C43.0985 94.1091 43.1036 94.1001 43.1101 94.0926C43.1166 94.0851 43.1244 94.0791 43.1329 94.075C43.1414 94.0709 43.1505 94.0688 43.1597 94.0688H44.8414C44.8506 94.0688 44.8597 94.0709 44.8682 94.075C44.8767 94.0791 44.8845 94.0851 44.891 94.0926C44.8975 94.1001 44.9027 94.1091 44.9062 94.119C44.9097 94.1288 44.9115 94.1394 44.9115 94.1501V94.5605H45.9621V94.1501C45.962 94.1394 45.9638 94.1288 45.9674 94.119C45.9709 94.1091 45.976 94.1001 45.9826 94.0926C45.9891 94.0851 45.9968 94.0791 46.0053 94.075C46.0138 94.0709 46.023 94.0688 46.0322 94.0688H59.2048C59.214 94.0688 59.2231 94.0709 59.2316 94.075C59.2401 94.0791 59.2479 94.0851 59.2544 94.0926C59.2609 94.1001 59.2661 94.1091 59.2696 94.119C59.2731 94.1288 59.2749 94.1394 59.2749 94.1501V94.5605H60.3267V94.1501C60.3267 94.1394 60.3285 94.1288 60.332 94.119C60.3355 94.1091 60.3407 94.1001 60.3472 94.0926C60.3537 94.0851 60.3615 94.0791 60.37 94.075C60.3785 94.0709 60.3876 94.0688 60.3968 94.0688H62.0785C62.097 94.0691 62.1147 94.0777 62.1279 94.0929C62.141 94.108 62.1484 94.1286 62.1486 94.1501V94.5605H63.1991V94.1501C63.1991 94.1394 63.2009 94.1288 63.2044 94.119C63.208 94.1091 63.2131 94.1001 63.2196 94.0926C63.2262 94.0851 63.2339 94.0791 63.2424 94.075C63.2509 94.0709 63.26 94.0688 63.2693 94.0688H64.9509C64.9601 94.0688 64.9692 94.0709 64.9777 94.075C64.9863 94.0791 64.994 94.085 65.0005 94.0926C65.007 94.1001 65.0122 94.1091 65.0157 94.119C65.0192 94.1288 65.021 94.1394 65.021 94.1501V94.5605H66.0716V94.1501C66.0716 94.1394 66.0734 94.1288 66.0769 94.119C66.0804 94.1091 66.0856 94.1001 66.0921 94.0926C66.0986 94.0851 66.1063 94.0791 66.1148 94.075C66.1234 94.0709 66.1325 94.0688 66.1417 94.0688H67.8233C67.8325 94.0688 67.8417 94.0709 67.8502 94.075C67.8587 94.0791 67.8664 94.0851 67.8729 94.0926C67.8795 94.1001 67.8846 94.1091 67.8881 94.119C67.8917 94.1288 67.8935 94.1394 67.8935 94.1501V94.5605H68.9453V94.1501C68.9452 94.1394 68.947 94.1288 68.9506 94.119C68.9541 94.1091 68.9592 94.1001 68.9658 94.0926C68.9723 94.0851 68.98 94.0791 68.9885 94.075C68.997 94.0709 69.0062 94.0688 69.0154 94.0688H70.697C70.7154 94.0691 70.733 94.0778 70.7459 94.093C70.7588 94.1082 70.766 94.1287 70.7659 94.1501V94.5605H71.8177V94.1501C71.8177 94.1394 71.8195 94.1288 71.823 94.119C71.8265 94.1091 71.8317 94.1001 71.8382 94.0926C71.8447 94.0851 71.8524 94.0791 71.861 94.075C71.8695 94.0709 71.8786 94.0688 71.8878 94.0688H73.5694C73.5787 94.0688 73.5878 94.0709 73.5963 94.075C73.6048 94.0791 73.6125 94.0851 73.6191 94.0926C73.6256 94.1001 73.6307 94.1091 73.6343 94.119C73.6378 94.1288 73.6396 94.1394 73.6396 94.1501V94.5605H74.6901V94.1501C74.6901 94.1394 74.6919 94.1288 74.6954 94.119C74.6989 94.1091 74.7041 94.1001 74.7106 94.0926C74.7171 94.0851 74.7249 94.0791 74.7334 94.075C74.7419 94.0709 74.751 94.0688 74.7602 94.0688H76.4419C76.4511 94.0688 76.4602 94.0709 76.4687 94.075C76.4772 94.0791 76.485 94.0851 76.4915 94.0926C76.498 94.1001 76.5032 94.1091 76.5067 94.119C76.5102 94.1288 76.512 94.1394 76.512 94.1501V94.5605H81.4167C81.6375 94.5604 81.8562 94.6107 82.0603 94.7086C82.2643 94.8064 82.4497 94.9499 82.6059 95.1308C82.762 95.3116 82.8859 95.5264 82.9704 95.7627C83.0549 95.999 83.0983 96.2523 83.0983 96.5081Z" fill="#3F3D56"/>
<path d="M99.3586 98.0944H7.57617V98.3845H99.3586V98.0944Z" fill="#3F3D56"/>
<path d="M78.5968 59.4362H57.7557V58.9387H48.3055V59.4362H27.3785C27.0046 59.4362 26.646 59.6082 26.3817 59.9144C26.1173 60.2206 25.9688 60.6359 25.9688 61.069V94.1209C25.9687 94.5539 26.1173 94.9692 26.3817 95.2754C26.646 95.5816 27.0046 95.7536 27.3785 95.7536H78.5968C78.9707 95.7536 79.3293 95.5816 79.5937 95.2754C79.8581 94.9692 80.0066 94.5539 80.0066 94.1209V61.069C80.0066 60.8545 79.9701 60.6422 79.8993 60.4441C79.8284 60.246 79.7246 60.0661 79.5937 59.9144C79.4628 59.7628 79.3074 59.6426 79.1363 59.5605C78.9653 59.4785 78.782 59.4362 78.5968 59.4362Z" fill="#3F3D56"/>
<path d="M53.0288 74.601C54.7577 74.601 56.1592 72.9778 56.1592 70.9755C56.1592 68.9732 54.7577 67.35 53.0288 67.35C51.3 67.35 49.8984 68.9732 49.8984 70.9755C49.8984 72.9778 51.3 74.601 53.0288 74.601Z" stroke="#D0CDE1" stroke-width="2" stroke-miterlimit="10"/>
<path d="M52.0269 75.9062C53.7557 75.9062 55.1572 74.283 55.1572 72.2807C55.1572 70.2784 53.7557 68.6552 52.0269 68.6552C50.298 68.6552 48.8965 70.2784 48.8965 72.2807C48.8965 74.283 50.298 75.9062 52.0269 75.9062Z" fill="#D0CDE1"/>
<path d="M13.5783 96.6292H10.0723V100.69H13.5783V96.6292Z" fill="#D0CDE1"/>
<path d="M11.4512 93.439V98.3697H15.7085V93.439H11.4512ZM15.5232 98.155H11.6352V93.6536H15.5232V98.155Z" fill="#3F3D56"/>
<path d="M94.7189 96.6292H91.2129V100.69H94.7189V96.6292Z" fill="#D0CDE1"/>
<path d="M92.5898 93.439V98.3697H96.8472V93.439H92.5898ZM96.6618 98.155H92.7739V93.6536H96.6618V98.155Z" fill="#3F3D56"/>
<path d="M11.8428 34.1095C17.3295 34.1095 21.7774 28.9581 21.7774 22.6035C21.7774 16.2489 17.3295 11.0975 11.8428 11.0975C6.35608 11.0975 1.9082 16.2489 1.9082 22.6035C1.9082 28.9581 6.35608 34.1095 11.8428 34.1095Z" fill="#33CC66"/>
<path d="M15.3055 8.93043C14.406 8.79793 13.4956 8.79793 12.596 8.93043C10.592 9.23517 8.70559 10.1993 7.16052 11.7085C5.61546 13.2177 4.47664 15.2086 3.87919 17.4449C3.60747 18.464 3.45359 19.5204 3.42159 20.5864C3.41708 20.7345 3.41406 20.8845 3.41406 21.0344C3.41685 24.2699 4.52786 27.372 6.50327 29.6599C8.47868 31.9478 11.1571 33.2345 13.9508 33.2377C14.175 33.2377 14.3993 33.229 14.6206 33.2133C15.14 33.1756 15.6562 33.0928 16.165 32.9658C18.5944 32.3607 20.761 30.7808 22.2822 28.5051C23.8034 26.2294 24.5813 23.4042 24.4784 20.5287C24.3756 17.6532 23.3987 14.9122 21.7202 12.79C20.0418 10.6678 17.7698 9.30075 15.3055 8.93043H15.3055ZM17.2487 32.258H17.2472C16.3987 32.5934 15.5154 32.7968 14.6206 32.8629C14.3993 32.8803 14.175 32.8891 13.9508 32.8891C11.2371 32.8852 8.63556 31.635 6.71672 29.4127C4.79788 27.1903 3.71842 24.1773 3.7151 21.0344C3.7151 20.8845 3.71811 20.7345 3.72262 20.5864C3.82611 17.5235 4.94856 14.6256 6.85501 12.4995C8.76147 10.3734 11.3041 9.18379 13.9508 9.17972C16.3757 9.17988 18.7219 10.1771 20.5712 11.9937C22.4206 13.8104 23.6531 16.3284 24.049 19.0992C24.445 21.8701 23.9787 24.7137 22.7334 27.1236C21.488 29.5334 19.5443 31.353 17.2487 32.258H17.2487Z" fill="#3F3D56"/>
<path d="M14.1018 9.87708H13.8008V12.3177H14.1018V9.87708Z" fill="#3F3D56"/>
<path d="M7.24407 13.0218L7.03125 13.2683L8.52095 14.9936L8.73377 14.7472L7.24407 13.0218Z" fill="#3F3D56"/>
<path d="M4.31641 20.8599V21.2087H6.42375V20.8599H4.31641Z" fill="#3F3D56"/>
<path d="M7.03132 28.8006L7.24414 29.0471L8.73384 27.3218L8.52103 27.0753L7.03132 28.8006Z" fill="#3F3D56"/>
<path d="M19.1661 14.7477L19.3789 14.9941L20.8686 13.2688L20.6558 13.0223L19.1661 14.7477Z" fill="#3F3D56"/>
<path d="M21.4766 20.8599V21.2087H23.5839V20.8599H21.4766Z" fill="#3F3D56"/>
<path d="M19.3788 27.0748L19.166 27.3213L20.6557 29.0466L20.8685 28.8001L19.3788 27.0748Z" fill="#3F3D56"/>
<path d="M14.1018 29.7512H13.8008V32.1919H14.1018V29.7512Z" fill="#3F3D56"/>
<path d="M14.4016 20.337C14.2713 20.2239 14.1129 20.1627 13.95 20.1627C13.7872 20.1627 13.6287 20.2239 13.4984 20.337C13.4093 20.4154 13.3358 20.5153 13.2832 20.6297C13.2165 20.7771 13.1877 20.9435 13.2001 21.1092C13.2125 21.2749 13.2656 21.4331 13.3532 21.565C13.4408 21.6969 13.5591 21.797 13.6943 21.8535C13.8295 21.91 13.9758 21.9206 14.1159 21.8839C14.2561 21.8472 14.3843 21.7648 14.4853 21.6465C14.5863 21.5282 14.656 21.3788 14.686 21.2161C14.716 21.0535 14.7052 20.8842 14.6548 20.7284C14.6044 20.5726 14.5165 20.4368 14.4016 20.337H14.4016ZM13.95 21.5567C13.8304 21.5563 13.7157 21.5011 13.6311 21.4032C13.5465 21.3052 13.4988 21.1725 13.4984 21.034C13.499 20.9282 13.5268 20.8251 13.5782 20.7377C13.6223 20.6638 13.6822 20.6043 13.752 20.5649C13.8217 20.5256 13.8991 20.5078 13.9766 20.5132C14.0541 20.5186 14.1291 20.547 14.1943 20.5958C14.2595 20.6446 14.3127 20.712 14.3488 20.7915C14.3849 20.8711 14.4027 20.9601 14.4004 21.0499C14.3981 21.1397 14.3758 21.2273 14.3357 21.3042C14.2956 21.3812 14.2391 21.4449 14.1715 21.4891C14.1039 21.5333 14.0276 21.5566 13.95 21.5567V21.5567Z" fill="#3F3D56"/>
<path d="M15.3051 5.86743H12.5957V9.00543H15.3051V5.86743Z" fill="#3F3D56"/>
<path d="M13.9505 6.39043C15.9456 6.39043 17.5631 5.72699 17.5631 4.90859C17.5631 4.0902 15.9456 3.42676 13.9505 3.42676C11.9553 3.42676 10.3379 4.0902 10.3379 4.90859C10.3379 5.72699 11.9553 6.39043 13.9505 6.39043Z" fill="#3F3D56"/>
<path d="M14.4012 14.4098H13.498V20.3371H14.4012V14.4098Z" fill="#3F3D56"/>
<path d="M28.2986 32.7068H0V33.0556H28.2986V32.7068Z" fill="#3F3D56"/>
<path d="M18.8562 87.715C18.973 92.3484 16.6355 94.0464 13.7019 94.1457C13.6338 94.148 13.5659 94.1494 13.4984 94.1499C13.3624 94.1511 13.2277 94.1485 13.0943 94.142C10.4412 94.0145 8.34108 92.3834 8.23242 88.0743C8.11998 83.615 12.899 77.8209 13.2576 77.3923L13.2582 77.3919C13.2719 77.3756 13.2788 77.3674 13.2788 77.3674C13.2788 77.3674 18.7393 83.082 18.8562 87.715Z" fill="#D0CDE1"/>
<path d="M13.4913 93.4435L15.3548 90.2339L13.4951 93.7887L13.499 94.1499C13.363 94.1511 13.2282 94.1485 13.0948 94.142L13.1873 89.4997L13.1847 89.4638L13.1881 89.4569L13.197 89.0182L11.1562 85.5867L13.1946 88.6899L13.2018 88.7826L13.2716 85.2751L11.509 81.7174L13.2766 84.659L13.2582 77.3924L13.2582 77.3682L13.2588 77.3919L13.3758 83.119L14.9823 80.7927L13.3811 83.6124L13.4162 86.7498L14.8944 83.6878L13.4216 87.211L13.4411 88.9556L15.5909 84.6903L13.4476 89.5642L13.4913 93.4435Z" fill="#3F3D56"/>
<path d="M99.9968 87.715C100.114 92.3484 97.7761 94.0464 94.8426 94.1457C94.7744 94.148 94.7066 94.1494 94.639 94.1499C94.503 94.1511 94.3683 94.1485 94.2349 94.142C91.5818 94.0145 89.4817 92.3834 89.373 88.0743C89.2606 83.615 94.0397 77.8209 94.3982 77.3923L94.3989 77.3919C94.4125 77.3756 94.4195 77.3674 94.4195 77.3674C94.4195 77.3674 99.88 83.082 99.9968 87.715Z" fill="#D0CDE1"/>
<path d="M94.63 93.4435L96.4935 90.2339L94.6338 93.7887L94.6377 94.1499C94.5016 94.1511 94.3669 94.1485 94.2335 94.142L94.3259 89.4997L94.3234 89.4638L94.3268 89.4569L94.3357 89.0182L92.2949 85.5867L94.3333 88.6899L94.3405 88.7826L94.4103 85.2751L92.6476 81.7174L94.4153 84.659L94.3969 77.3924L94.3969 77.3682L94.3975 77.3919L94.5145 83.119L96.121 80.7927L94.5198 83.6124L94.5548 86.7498L96.0331 83.6878L94.5603 87.211L94.5798 88.9556L96.7296 84.6903L94.5863 89.5642L94.63 93.4435Z" fill="#3F3D56"/>
</g>
<defs>
<clipPath id="clip0">
<rect width="100" height="99.9516" fill="white" transform="translate(0 0.738281)"/>
</clipPath>
</defs>
</svg>
