<svg width="70" height="70" viewBox="0 0 70 70" fill="none" xmlns="http://www.w3.org/2000/svg">
<g clip-path="url(#clip0)">
<path d="M67.0129 68.7987L66.142 63.7943C65.6338 60.8723 63.9501 58.3335 61.484 56.7317L61.9066 52.7094C61.9658 52.1461 61.5571 51.6416 60.9938 51.5824C60.4307 51.523 59.9262 51.932 59.867 52.495L58.2756 67.6432C58.2573 67.8176 58.1111 67.9489 57.9357 67.9489H12.0653C11.8899 67.9489 11.7436 67.8176 11.7254 67.6431L9.27815 44.3476C9.2642 44.2161 9.326 44.1258 9.36401 44.0835C9.40201 44.0413 9.48569 43.9704 9.61803 43.9704H60.3828C60.5153 43.9704 60.5989 44.0413 60.6369 44.0835C60.6749 44.1258 60.7365 44.2161 60.7227 44.3476L60.3674 47.7305C60.3082 48.2936 60.7168 48.7982 61.2801 48.8573C61.8438 48.9169 62.348 48.5079 62.407 47.9446L62.7623 44.5617C62.9088 43.337 61.8758 41.9098 60.3828 41.9195H48.8731C49.6507 40.9216 50.6523 39.3089 51.1173 38.1378H52.1587C55.7395 38.1378 58.6528 35.225 58.6528 31.6446C58.6528 29.4184 57.1868 27.5285 55.1695 26.8882L57.2575 22.4572C57.7678 21.3743 58.0376 20.169 58.0376 18.9717C58.0376 15.075 55.5855 11.5369 51.9362 10.1678C51.8137 10.1218 51.7384 10.0026 51.7439 9.86533C51.8501 7.12221 50.0037 4.49886 46.6106 2.64796C43.4926 0.940486 39.3693 0 35.0005 0C31.3887 0 27.9566 0.636561 25.0754 1.84078C24.553 2.05925 24.3064 2.65986 24.5249 3.1824C24.7432 3.7048 25.3435 3.9513 25.8665 3.73296C28.4991 2.63251 31.6576 2.05078 35.0005 2.05078C42.9672 2.05078 49.6977 5.52493 49.6977 9.63715C49.6977 9.68568 49.6968 9.73353 49.6949 9.78166C49.6534 10.8043 50.2647 11.7313 51.2159 12.0882C54.0696 13.1589 55.9868 15.9252 55.9868 18.9723C55.9868 19.8692 55.7846 20.772 55.4025 21.5833L53.0099 26.6605L52.4003 26.6653C52.3382 24.531 51.7835 21.1402 50.6467 18.2719C49.9884 16.6112 48.6492 15.2883 46.9725 14.6424C45.1319 13.9192 43.0138 14.1658 41.1966 15.1417C40.6742 15.3602 40.4275 15.9608 40.646 16.4833C40.8644 17.0057 41.4648 17.2522 41.9876 17.0339C43.0669 16.4326 44.8303 15.949 46.2355 16.5561C47.3961 17.0033 48.2857 17.8809 48.7402 19.0275C49.8007 21.7031 50.3555 25.0917 50.3555 27.0562C50.3555 31.6576 50.2952 34.3404 49.481 36.6948C48.9145 38.4173 47.611 40.296 46.2669 41.9198H45.1807C44.3173 41.9176 43.724 41.2191 42.828 40.0804C41.8244 38.8044 40.5752 37.2164 38.3486 37.2164C37.0856 37.2164 36.3427 37.7172 35.8002 38.0828C35.4649 38.3088 35.2853 38.4239 35.0686 38.4422C34.8519 38.4238 34.6724 38.3087 34.337 38.0828C33.7945 37.7172 33.0517 37.2164 31.7886 37.2164C29.562 37.2164 28.3128 38.8044 27.3091 40.0804C26.4134 41.2191 25.82 41.9176 24.9565 41.9198H23.7334C23.2858 41.3755 22.8442 40.8045 22.4178 40.214C19.7794 36.5608 19.6451 33.9803 19.6451 27.056C19.6451 25.0915 20.2 21.7031 21.2604 19.0274C21.7149 17.8807 22.6044 17.003 23.7651 16.5559C24.9146 16.1131 26.2039 16.1694 27.3017 16.7107C29.8119 17.9682 33.497 18.5347 36.8066 18.241C37.3708 18.1929 37.7893 17.6964 37.741 17.1322C37.6929 16.5678 37.1955 16.1485 36.6322 16.1977C33.9886 16.475 30.3074 15.9648 28.2086 14.8713C26.5987 14.0776 24.7104 13.9941 23.0279 14.6421C21.3512 15.288 20.0121 16.6109 19.3538 18.2716C18.2169 21.14 17.6623 24.5307 17.6002 26.665L16.9906 26.6604L14.598 21.5832C14.2157 20.7719 14.0137 19.8689 14.0137 18.972C14.0137 15.9251 15.9309 13.1587 18.7846 12.0881C19.7357 11.7311 20.347 10.8042 20.3055 9.78043C20.2553 8.65742 20.8075 7.3225 21.9669 6.19048C22.37 5.7929 22.3747 5.14362 21.9771 4.74044C21.5794 4.33712 20.9305 4.33247 20.5271 4.73005C19.0386 6.19745 18.2518 7.89426 18.2518 9.63715C18.2518 9.71453 18.2533 9.79082 18.2563 9.86465C18.2619 10.0031 18.1865 10.1222 18.0641 10.1682C14.4148 11.5373 11.9628 15.0754 11.9628 18.9723C11.9628 20.1694 12.2325 21.3746 12.7429 22.4575L14.8308 26.8884C12.8136 27.5288 11.3475 29.4187 11.3475 31.6449C11.3475 35.2252 14.2609 38.138 17.8416 38.138H18.883C19.3469 39.2653 20.1705 40.6735 21.1273 41.9198H9.61803C8.38497 41.902 7.07274 43.0781 7.23858 44.562L8.51827 56.7436C6.04981 58.3456 4.36462 60.8854 3.85617 63.8095L2.988 68.7988C2.89093 69.3567 3.26445 69.8876 3.82253 69.9848C3.88201 69.9952 3.94107 70.0001 3.99945 70.0001C4.48863 70.0001 4.92175 69.6488 5.00843 69.1503L5.87659 64.1609C6.22372 62.1647 7.2528 60.3927 8.76709 59.1115L9.68584 67.8575C9.81395 69.0788 10.8369 69.9999 12.0653 69.9999H57.9357C59.164 69.9999 60.1871 69.0788 60.3152 67.8575L61.2351 59.1003C62.7472 60.3812 63.7748 62.1518 64.1217 64.1459L64.9926 69.1503C65.0793 69.6488 65.5124 70 66.0016 70C66.0599 70 66.119 69.9949 66.1786 69.9847C66.7364 69.8876 67.1101 69.3566 67.0129 68.7987ZM56.602 31.6447C56.602 34.0943 54.6088 36.0871 52.1587 36.0871H51.7852C52.2793 34.0481 52.3821 31.7615 52.4016 28.7159L53.6635 28.7061C55.2839 28.7066 56.602 30.0247 56.602 31.6447ZM17.8423 36.0871C15.3922 36.0871 13.399 34.0943 13.399 31.6447C13.399 30.0247 14.7169 28.7066 16.3373 28.7061L17.5992 28.7159C17.6188 31.7615 17.7216 34.0481 18.2157 36.0871H17.8423ZM28.9215 41.3482C29.9399 40.0533 30.6412 39.2671 31.789 39.2671C32.4253 39.2671 32.7466 39.4835 33.1912 39.7832C33.5192 40.0116 34.229 40.4669 35.1051 40.4938C35.9359 40.4646 36.4965 40.0867 36.9467 39.7832C37.3913 39.4835 37.7126 39.2671 38.3489 39.2671C39.4966 39.2671 40.1979 40.0532 41.2164 41.3482C41.3647 41.5367 41.5161 41.7291 41.6729 41.9198H28.4651C28.6218 41.7291 28.7731 41.5367 28.9215 41.3482Z" fill="#33CC66"/>
<path d="M40.1953 28.2275V30.2779C40.1953 30.8442 40.6543 31.3033 41.2207 31.3033C41.7871 31.3033 42.2461 30.8442 42.2461 30.2779V28.2275C42.2461 27.6613 41.7871 27.2021 41.2207 27.2021C40.6543 27.2021 40.1953 27.6613 40.1953 28.2275Z" fill="#33CC66"/>
<path d="M27.7539 28.2275V30.2779C27.7539 30.8442 28.2129 31.3033 28.7793 31.3033C29.3457 31.3033 29.8047 30.8442 29.8047 30.2779V28.2275C29.8047 27.6613 29.3457 27.2021 28.7793 27.2021C28.2129 27.2021 27.7539 27.6613 27.7539 28.2275Z" fill="#33CC66"/>
<path d="M32.6911 35.156C33.4358 35.5353 34.2528 35.7251 35.0697 35.7251C35.8866 35.7251 36.7037 35.5353 37.4484 35.156C37.9529 34.899 38.1537 34.2816 37.8965 33.777C37.6396 33.2723 37.0222 33.0719 36.5174 33.3287C35.6109 33.7905 34.5283 33.7905 33.6217 33.3287C33.1173 33.0718 32.4997 33.2723 32.2427 33.777C31.9858 34.2814 32.1866 34.8989 32.6911 35.156Z" fill="#33CC66"/>
<path d="M35.0018 61.2712C34.3967 61.2712 33.8037 61.1705 33.2394 60.9722C32.7045 60.7844 32.1198 61.0653 31.9319 61.5994C31.7441 62.1337 32.025 62.719 32.5592 62.9069C33.3426 63.1822 34.1644 63.3219 35.0017 63.3219C39.0617 63.3219 42.3646 60.0194 42.3646 55.96C42.3646 51.9007 39.0617 48.5981 35.0017 48.5981C30.9417 48.5981 27.6387 51.9007 27.6387 55.96C27.6387 57.104 27.8942 58.2006 28.3981 59.2194C28.6492 59.7269 29.2638 59.9351 29.7719 59.6839C30.2795 59.4328 30.4873 58.8177 30.2363 58.3101C29.8735 57.5765 29.6895 56.7857 29.6895 55.9599C29.6895 53.0314 32.0726 50.6488 35.0017 50.6488C37.9307 50.6488 40.3139 53.0314 40.3139 55.9599C40.3139 58.8884 37.9309 61.2712 35.0018 61.2712Z" fill="#33CC66"/>
<path d="M45.1172 24.8083C45.1172 24.2421 44.6582 23.783 44.0918 23.783H38.3496C37.7832 23.783 37.3242 24.2421 37.3242 24.8083C37.3242 25.3746 37.7832 25.8337 38.3496 25.8337H44.0918C44.6581 25.8337 45.1172 25.3746 45.1172 24.8083Z" fill="#33CC66"/>
<path d="M32.5391 24.8083C32.5391 24.2421 32.0801 23.783 31.5137 23.783H25.7715C25.2051 23.783 24.7461 24.2421 24.7461 24.8083C24.7461 25.3746 25.2051 25.8337 25.7715 25.8337H31.5137C32.08 25.8337 32.5391 25.3746 32.5391 24.8083Z" fill="#33CC66"/>
</g>
<defs>
<clipPath id="clip0">
<rect width="70" height="70" fill="white"/>
</clipPath>
</defs>
</svg>
