<svg width="70" height="70" viewBox="0 0 70 70" fill="none" xmlns="http://www.w3.org/2000/svg">
<g clip-path="url(#clip0)">
<path d="M62.8854 26.2829C62.8847 26.2691 62.8853 26.2554 62.8841 26.2417C62.8838 26.2384 62.8831 26.2308 62.8826 26.2252C62.8826 26.225 62.8826 26.2249 62.8826 26.2249C62.8512 25.8853 62.3687 21.3343 58.7522 16.3108C56.6039 13.3269 53.7872 10.7908 50.3805 8.77298C47.0412 6.79517 43.1228 5.31818 38.7016 4.35994C38.7287 4.17694 38.7432 3.98997 38.7432 3.79958C38.7432 1.70434 37.0388 0 34.9439 0C32.8489 0 31.1446 1.70434 31.1446 3.79931C31.1446 3.99038 31.1591 4.17817 31.1865 4.36171C26.7652 5.31941 22.8464 6.79517 19.5074 8.77284C16.1006 10.7906 13.284 13.3267 11.1357 16.3107C7.52326 21.3284 7.03778 25.8748 7.00548 26.2235C7.00534 26.2246 7.00534 26.2256 7.0052 26.2267C7.00479 26.2316 7.00411 26.2387 7.00383 26.2417C7.00274 26.2543 7.00315 26.2669 7.0026 26.2795C7.00178 26.2963 7 26.3128 7 26.3297V29.8831C7 31.8917 8.63412 33.5258 10.6429 33.5258H23.3589C24.382 33.5258 25.3072 33.1012 25.9696 32.4199C26.6319 33.1014 27.5571 33.5258 28.5803 33.5258H32.0921V36.2712C32.0921 36.8383 32.5518 37.2977 33.1187 37.2977C33.6856 37.2977 34.1452 36.8383 34.1452 36.2712V33.8286H35.7427V49.0003H34.1452V42.6362C34.1452 42.0691 33.6856 41.6096 33.1187 41.6096C32.5518 41.6096 32.0921 42.0691 32.0921 42.6362V49.0003H26.567C25.6235 49.0003 24.8561 49.7678 24.8561 50.7112V53.4442C24.8561 54.3876 25.6235 55.1551 26.567 55.1551H32.0921V64.7122H30.6735C29.73 64.7122 28.9626 65.4796 28.9626 66.4231V68.2891C28.9626 69.2326 29.73 70 30.6735 70H39.2143C40.1578 70 40.9252 69.2326 40.9252 68.2891V66.4231C40.9252 65.4796 40.1578 64.7122 39.2143 64.7122H37.7958V55.1551H43.3206C44.2641 55.1551 45.0315 54.3876 45.0315 53.4442V50.7112C45.0315 49.7678 44.2641 49.0003 43.3206 49.0003H37.7958V33.5258H41.2964C42.3224 33.5258 43.25 33.0988 43.9126 32.414C44.5753 33.0988 45.5029 33.5258 46.5288 33.5258H59.2449C61.2535 33.5258 62.8876 31.8917 62.8876 29.8831V26.3297C62.8879 26.314 62.8861 26.2985 62.8854 26.2829ZM34.9439 2.05309C35.9068 2.05309 36.6901 2.83641 36.6901 3.79931C36.6901 4.7622 35.9068 5.54552 34.9439 5.54552C33.981 5.54552 33.1977 4.7622 33.1977 3.79931C33.1977 2.83641 33.9811 2.05309 34.9439 2.05309ZM33.7931 7.41986C34.1563 7.53551 34.5428 7.59847 34.9439 7.59847C35.3442 7.59847 35.7299 7.53579 36.0926 7.42054C37.424 9.03221 39.2451 11.6682 40.6729 15.35C41.2812 16.9189 41.7633 18.5466 42.1216 20.1948C42.2898 20.9686 42.4309 21.7481 42.5456 22.5315C42.6794 23.4453 42.7739 24.338 42.8373 25.2569C42.8384 25.2723 42.8392 25.2877 42.8403 25.3031H27.048C27.0498 25.2764 27.0514 25.2495 27.0533 25.2229C27.0914 24.6718 27.0714 24.1962 27.1943 23.6781C27.3403 23.063 27.3576 22.393 27.4634 21.7671C27.6677 20.5585 27.9363 19.3607 28.2705 18.1815C28.8257 16.2229 29.5618 14.3143 30.4835 12.4986C30.7977 11.8797 31.1333 11.2717 31.4915 10.677C32.3057 9.32567 33.1124 8.24109 33.7931 7.41986ZM23.3589 31.4727H10.6429C9.76633 31.4727 9.05309 30.7596 9.05309 29.8831V27.3563H24.9375V29.8831C24.9375 29.9321 24.9393 29.9805 24.9412 30.029C24.8672 30.8374 24.1863 31.4727 23.3589 31.4727ZM25.9191 19.0609C25.7796 19.6456 25.6513 20.249 25.5362 20.871C25.5323 20.8923 25.5287 20.9142 25.5247 20.9357C25.4581 21.3002 24.9334 25.3032 24.9889 25.3032H9.2391C9.57717 23.7424 10.4814 20.7336 12.802 17.5101C14.7838 14.7573 17.392 12.4119 20.5538 10.5392C23.8134 8.60846 27.674 7.17718 32.0609 6.26931C32.0638 6.27259 32.0667 6.27601 32.0696 6.2793C31.4419 7.05085 30.7305 8.01676 30.0032 9.17935C29.9307 9.29528 29.8581 9.41094 29.7854 9.53084C29.4037 10.1598 29.0062 10.869 28.6101 11.6552C28.6041 11.6671 28.5981 11.6795 28.592 11.6915C27.955 12.9603 27.4004 14.2751 26.9299 15.6174C26.5432 16.7206 26.1884 17.9322 25.9191 19.0609ZM38.8723 66.7653V67.9469H31.0158V66.7653H38.8723ZM34.1452 64.7122V55.1551H35.7427V64.7122H34.1452ZM42.9786 51.0534V53.102H26.9092V51.0534H42.9786ZM42.8862 29.8831C42.8862 30.7596 42.1731 31.4727 41.2965 31.4727H28.5804C27.7531 31.4727 27.0722 30.8374 26.9982 30.029C27.0001 29.9805 27.0019 29.932 27.0019 29.8831V27.3566H42.8863V29.8831H42.8862ZM44.8751 24.9765C44.8708 24.9175 44.8667 24.8582 44.8622 24.7995C44.762 23.5032 44.5927 22.1911 44.3588 20.9115C44.3566 20.8995 44.3545 20.8871 44.3524 20.8751C44.0682 19.3445 43.688 17.8275 43.2043 16.3454C42.9894 15.6871 42.7559 15.0345 42.5017 14.3902C42.4679 14.3044 42.4338 14.2193 42.3997 14.1347C42.2564 13.78 42.1033 13.4183 41.9463 13.0656C41.8247 12.7925 41.7003 12.5227 41.5717 12.2535C41.397 11.8882 41.2137 11.5223 41.0251 11.1636C40.4062 9.98662 39.7091 8.84456 38.9411 7.7593C38.7448 7.482 38.5439 7.20811 38.3378 6.93806C38.2483 6.82077 37.974 6.33514 37.8248 6.27191C37.8255 6.27109 37.8263 6.27026 37.827 6.26931C42.1817 7.17034 46.0177 8.58738 49.2617 10.4963C52.4191 12.3542 55.0283 14.6819 57.0169 17.4147C58.7877 19.848 59.7319 22.1633 60.2122 23.6773C60.4139 24.3128 60.553 24.8645 60.648 25.3031H44.8989C44.8918 25.1934 44.883 25.0854 44.8751 24.9765ZM60.8348 29.8831C60.8348 30.7596 60.1217 31.4727 59.2452 31.4727H46.529C45.6525 31.4727 44.9394 30.7596 44.9394 29.8831V27.3563H60.8349V29.8831H60.8348Z" fill="#33CC66"/>
<path d="M59.6534 47.1296H57.4407C56.1392 47.1296 55.0803 48.1885 55.0803 49.49V57.0836C55.0803 57.3353 54.8756 57.54 54.6238 57.54H47.0303C45.7288 57.54 44.6699 58.5989 44.6699 59.9004V63.4469V68.9734C44.6699 69.5404 45.1294 69.9999 45.6965 69.9999C46.2635 69.9999 46.723 69.5404 46.723 68.9734V64.4734H59.9606V68.9734C59.9606 69.5404 60.4201 69.9999 60.9872 69.9999C61.5543 69.9999 62.0137 69.5404 62.0137 68.9734V63.4469V57.0757C62.0137 56.5087 61.5543 56.0492 60.9872 56.0492C60.4201 56.0492 59.9606 56.5087 59.9606 57.0757V62.4203H46.723V59.9004C46.723 59.7309 46.8608 59.5931 47.0303 59.5931H54.6238C56.0076 59.5931 57.1334 58.4673 57.1334 57.0836V49.49C57.1334 49.3206 57.2712 49.1827 57.4407 49.1827H59.6534C59.8228 49.1827 59.9606 49.3206 59.9606 49.49V50.6427C59.9606 51.2098 60.4201 51.6693 60.9872 51.6693C61.5543 51.6693 62.0137 51.2098 62.0137 50.6427V49.49C62.0137 48.1885 60.9548 47.1296 59.6534 47.1296Z" fill="#33CC66"/>
<path d="M22.9717 57.54H15.3782C15.1265 57.54 14.9217 57.3353 14.9217 57.0836V49.49C14.9217 48.1885 13.8628 47.1296 12.5613 47.1296H10.3486C9.04713 47.1296 7.98828 48.1885 7.98828 49.49V63.4469V68.9734C7.98828 69.5404 8.4479 69.9999 9.01482 69.9999C9.58175 69.9999 10.0414 69.5404 10.0414 68.9734V64.4734H23.279V68.9734C23.279 69.5404 23.7386 69.9999 24.3055 69.9999C24.8725 69.9999 25.3321 69.5404 25.3321 68.9734V63.4469V59.9004C25.3321 58.5989 24.2731 57.54 22.9717 57.54ZM23.279 62.4203H10.0414V49.49C10.0414 49.3206 10.1792 49.1827 10.3486 49.1827H12.5613C12.7308 49.1827 12.8686 49.3206 12.8686 49.49V57.0836C12.8686 58.4673 13.9944 59.5931 15.3782 59.5931H22.9717C23.1412 59.5931 23.279 59.7309 23.279 59.9004V62.4203Z" fill="#33CC66"/>
</g>
<defs>
<clipPath id="clip0">
<rect width="70" height="70" fill="white"/>
</clipPath>
</defs>
</svg>
