<svg width="60" height="60" viewBox="0 0 60 60" fill="none" xmlns="http://www.w3.org/2000/svg">
<g clip-path="url(#clip0)">
<path d="M22.4126 6.54541C18.7519 6.54541 15.7734 9.52361 15.7734 13.1846C15.7734 16.8454 18.7516 19.8237 22.4126 19.8237C26.0734 19.8237 29.0516 16.8455 29.0516 13.1846C29.0516 9.52361 26.0733 6.54541 22.4126 6.54541ZM22.4126 18.0414C19.7346 18.0414 17.5556 15.8626 17.5556 13.1844C17.5556 10.5062 19.7344 8.32748 22.4126 8.32748C25.0908 8.32748 27.2694 10.5063 27.2694 13.1844C27.2694 15.8625 25.0907 18.0414 22.4126 18.0414Z" fill="white"/>
<path d="M6.73484 35.8737C3.07402 35.8737 0.0957031 38.8519 0.0957031 42.5128C0.0957031 46.1736 3.07391 49.1519 6.73484 49.1519C10.3957 49.1519 13.3739 46.1737 13.3739 42.5128C13.374 38.852 10.3957 35.8737 6.73484 35.8737ZM6.73484 47.3695C4.05676 47.3695 1.87789 45.1908 1.87789 42.5126C1.87789 39.8345 4.05664 37.6556 6.73484 37.6556C9.41305 37.6556 11.5917 39.8344 11.5917 42.5126C11.5918 45.1908 9.41305 47.3695 6.73484 47.3695Z" fill="white"/>
<path d="M56.0652 34.7604C55.3044 34.7604 54.5946 34.9827 53.9974 35.366C53.851 33.3818 52.1896 31.812 50.1685 31.812C49.1466 31.812 48.2164 32.2135 47.5277 32.8668C46.8484 31.7827 45.643 31.0603 44.2719 31.0603C43.5157 31.0603 42.8096 31.2801 42.2148 31.6591V24.4606C42.2133 22.3452 40.491 20.6241 38.3756 20.6241C37.3502 20.6241 36.3864 21.0236 35.6612 21.7488C34.9359 22.4741 34.5364 23.4381 34.5364 24.4633V36.2094C33.9906 35.5293 33.25 35.0349 32.3945 34.7899C31.3014 34.4768 30.1515 34.6084 29.1569 35.1602C28.1625 35.7119 27.4424 36.6178 27.1294 37.711C26.8162 38.8041 26.9477 39.9538 27.4993 40.9476C28.1183 42.0642 28.2541 44.6853 28.2541 45.6056C28.2548 45.7498 28.2858 49.1783 29.5601 52.6612C31.3167 57.4622 34.5688 59.9998 38.965 59.9998H47.7466C51.4195 59.9998 54.7004 58.1875 56.9848 54.8968C57.2654 54.4925 57.1652 53.9373 56.7608 53.6566C56.3569 53.3759 55.8015 53.4763 55.5206 53.8806C54.1472 55.8591 51.6835 58.2178 47.7465 58.2178H38.9648C35.3443 58.2178 32.748 56.1552 31.2478 52.0876C30.0702 48.8943 30.0364 45.6293 30.0362 45.602C30.0364 45.2182 30.011 41.8026 29.0577 40.0831C28.7371 39.5054 28.6607 38.8372 28.8426 38.2017C29.0246 37.5662 29.4434 37.0394 30.0214 36.7187C30.5996 36.3978 31.268 36.3213 31.9037 36.5033C32.5391 36.6852 33.0654 37.1039 33.386 37.6825C34.2659 39.2681 34.4939 40.1667 34.5364 40.3606V45.5895C34.5364 46.0816 34.9353 46.4806 35.4275 46.4806C35.9197 46.4806 36.3186 46.0816 36.3186 45.5895V40.2798V24.4637C36.3186 23.9145 36.5327 23.3981 36.9213 23.0093C37.3099 22.6207 37.8264 22.4067 38.3755 22.4067C39.5089 22.4067 40.4318 23.3288 40.4325 24.4617V34.9002V39.8654C40.4325 40.3575 40.8314 40.7565 41.3236 40.7565C41.8158 40.7565 42.2147 40.3575 42.2147 39.8654V34.9002C42.2147 33.7659 43.1376 32.8429 44.2718 32.8429C45.4059 32.8429 46.3289 33.7658 46.3289 34.9002V35.6519V38.9056C46.3289 39.3977 46.7278 39.7967 47.22 39.7967C47.7122 39.7967 48.1111 39.3977 48.1111 38.9056V35.6519C48.1111 34.5175 49.0341 33.5947 50.1683 33.5947C51.3026 33.5947 52.2254 34.5175 52.2254 35.6519V38.6002V40.1398C52.2254 40.6319 52.6243 41.0309 53.1165 41.0309C53.6087 41.0309 54.0076 40.6319 54.0076 40.1398V38.6002C54.0076 37.466 54.9306 36.543 56.0648 36.543C57.1991 36.543 58.1219 37.4659 58.1219 38.6002V45.4002C58.1219 47.4658 57.6761 49.5804 56.8324 51.5149C56.6358 51.9661 56.8419 52.4912 57.2931 52.6879C57.7447 52.8847 58.2695 52.6784 58.4661 52.2273C59.4069 50.0697 59.9043 47.709 59.9043 45.4002V38.6002C59.9045 36.4827 58.1822 34.7604 56.0652 34.7604Z" fill="white"/>
<path d="M42.0813 17.9086V3.74262C42.0813 1.67895 40.4023 0 38.3387 0C36.275 0 34.5961 1.67895 34.5961 3.74262V17.9361C32.8596 19.1348 31.7188 21.1375 31.7188 23.4025C31.7188 24.2985 31.8945 25.168 32.2409 25.987C32.4325 26.4404 32.9553 26.6523 33.4087 26.4606C33.8619 26.2689 34.0741 25.7461 33.8821 25.2928C33.6291 24.6946 33.5008 24.0587 33.5008 23.4025C33.5008 20.7244 35.6796 18.5455 38.3578 18.5455C41.0359 18.5455 43.2147 20.7243 43.2147 23.4025C43.2147 24.0586 43.0864 24.6946 42.8335 25.2928C42.6418 25.7461 42.8538 26.269 43.307 26.4606C43.4203 26.5086 43.5379 26.5311 43.6537 26.5311C44.0008 26.5311 44.3309 26.3269 44.4747 25.987C44.8211 25.168 44.9969 24.2985 44.9969 23.4025C44.997 21.1205 43.8396 19.1041 42.0813 17.9086ZM40.2991 17.0536C39.6847 16.8654 39.0331 16.7634 38.358 16.7634C37.6688 16.7634 37.0039 16.8691 36.3784 17.065V3.74262C36.3784 2.66168 37.2579 1.78219 38.3388 1.78219C39.4197 1.78219 40.2992 2.66168 40.2992 3.74262V17.0536H40.2991Z" fill="white"/>
<path d="M22.4789 0C20.4153 0 18.7363 1.67895 18.7363 3.74262V5.1859C18.7363 5.67809 19.1354 6.07699 19.6274 6.07699C20.1195 6.07699 20.5185 5.67797 20.5185 5.1859V3.74262C20.5185 2.66168 21.398 1.78219 22.4789 1.78219C23.5599 1.78219 24.4394 2.66168 24.4394 3.74262V5.26078C24.4394 5.75285 24.8384 6.15188 25.3305 6.15188C25.8225 6.15188 26.2216 5.75285 26.2216 5.26078V3.74262C26.2216 1.67895 24.5426 0 22.4789 0Z" fill="white"/>
<path d="M25.3305 47.0818C24.8384 47.0818 24.4394 47.4808 24.4394 47.9729V56.2574C24.4394 56.7809 24.2355 57.2733 23.8652 57.6436C23.4948 58.014 23.0025 58.2179 22.4789 58.2179C21.398 58.2179 20.5185 57.3384 20.5185 56.2574V21.1832C20.5185 20.6911 20.1195 20.2921 19.6274 20.2921C19.1354 20.2921 18.7363 20.6911 18.7363 21.1832V56.2574C18.7363 58.3211 20.4153 60 22.4789 60C23.4787 60 24.4183 59.6107 25.1253 58.9038C25.8321 58.1968 26.2216 57.257 26.2216 56.2574V47.9729C26.2216 47.4807 25.8225 47.0818 25.3305 47.0818Z" fill="white"/>
<path d="M25.3305 20.2173C24.8385 20.2173 24.4395 20.6163 24.4395 21.1084V45.0023C24.4395 45.4944 24.8385 45.8934 25.3305 45.8934C25.8226 45.8934 26.2216 45.4944 26.2216 45.0023V21.1084C26.2216 20.6162 25.8226 20.2173 25.3305 20.2173Z" fill="white"/>
<path d="M6.72309 0C4.65941 0 2.98047 1.67895 2.98047 3.74262V7.10121C2.98047 7.59328 3.37949 7.9923 3.87156 7.9923C4.36363 7.9923 4.76266 7.59328 4.76266 7.10121V3.74262C4.76266 2.66168 5.64215 1.78219 6.72309 1.78219C7.80403 1.78219 8.68352 2.66168 8.68352 3.74262V34.5456C8.68352 35.0377 9.08254 35.4367 9.57461 35.4367C10.0667 35.4367 10.4657 35.0377 10.4657 34.5456V3.74262C10.4657 1.67895 8.78676 0 6.72309 0Z" fill="white"/>
<path d="M3.87156 9.18054C3.37949 9.18054 2.98047 9.57957 2.98047 10.0716V34.5574C2.98047 35.0494 3.37949 35.4485 3.87156 35.4485C4.36363 35.4485 4.76266 35.0494 4.76266 34.5574V10.0716C4.76266 9.57957 4.36375 9.18054 3.87156 9.18054Z" fill="white"/>
<path d="M9.57461 49.5899C9.08254 49.5899 8.68352 49.9889 8.68352 50.481V56.2574C8.68352 56.7809 8.47961 57.2733 8.1093 57.6436C7.73899 58.0139 7.24668 58.2178 6.72309 58.2178C5.64215 58.2178 4.76266 57.3383 4.76266 56.2574V50.4679C4.76266 49.9758 4.36363 49.5768 3.87156 49.5768C3.37949 49.5768 2.98047 49.9758 2.98047 50.4679V56.2574C2.98047 58.3211 4.65941 60 6.72309 60C7.7227 60 8.66242 59.6107 9.36942 58.9037C10.0763 58.1967 10.4657 57.257 10.4657 56.2574V50.481C10.4657 49.9889 10.0667 49.5899 9.57461 49.5899Z" fill="white"/>
</g>
<defs>
<clipPath id="clip0">
<rect width="60" height="60" fill="white"/>
</clipPath>
</defs>
</svg>
