<svg width="60" height="60" viewBox="0 0 60 60" fill="none" xmlns="http://www.w3.org/2000/svg">
<path d="M57.1875 1.875H29.0625C28.545 1.875 28.125 2.29406 28.125 2.8125V18.0909L25.2722 14.7619C24.3806 13.7222 23.0831 13.125 21.7125 13.125H18.2297C18.9431 12.3309 19.4306 11.3606 19.6087 10.3125H20.625C20.9503 10.3125 21.2512 10.1437 21.4228 9.86719C21.5944 9.59062 21.6094 9.24563 21.4641 8.955L19.6875 5.40375V4.6875C19.6875 3.13687 18.4256 1.875 16.875 1.875H11.25C9.69938 1.875 8.4375 3.13687 8.4375 4.6875V9.17344C8.4375 10.6819 9.00938 12.0769 9.94125 13.125H8.4375C5.85281 13.125 3.75 15.2278 3.75 17.8125V26.25C3.75 27.3094 4.11656 28.2769 4.71187 29.0625H2.8125C2.295 29.0625 1.875 29.4816 1.875 30V33.75C1.875 34.2684 2.295 34.6875 2.8125 34.6875H3.75V38.4375H5.625V34.6875H33.75V36.5625H35.625V34.6875H57.1875C57.705 34.6875 58.125 34.2684 58.125 33.75V2.8125C58.125 2.29406 57.705 1.875 57.1875 1.875ZM10.3125 4.6875C10.3125 4.17 10.7334 3.75 11.25 3.75H16.875C17.3916 3.75 17.8125 4.17 17.8125 4.6875V5.625C17.8125 5.77031 17.8462 5.91469 17.9109 6.04406L19.1081 8.4375H18.75C18.2325 8.4375 17.8125 8.85656 17.8125 9.375C17.8125 10.4297 17.3644 11.4403 16.5844 12.1509C15.7931 12.8709 14.76 13.2094 13.6912 13.1081C11.7966 12.9263 10.3125 11.1984 10.3125 9.17344V4.6875ZM15.3581 15L14.0625 17.5912L12.7669 15H15.3581ZM5.625 26.25V17.8125C5.625 16.2619 6.88688 15 8.4375 15H10.6706L13.2244 20.1066C13.3828 20.4244 13.7072 20.625 14.0625 20.625C14.4178 20.625 14.7422 20.4244 14.9016 20.1066L17.4544 15H21.7125C22.5347 15 23.3137 15.3581 23.8481 15.9816L28.3509 21.2353C28.5206 21.4341 28.7653 21.5522 29.0269 21.5625C29.2894 21.5803 29.5406 21.4725 29.7262 21.2887L34.6875 16.3256L37.1119 18.75L31.0519 24.8109C29.955 25.9059 28.1709 25.9059 27.0741 24.8109L24.1012 21.8372C23.8322 21.5681 23.43 21.4866 23.0794 21.6338C22.7288 21.7781 22.5 22.1213 22.5 22.5V29.0625H17.8125V26.25C17.8125 24.6994 16.5506 23.4375 15 23.4375H11.25V21.5625H9.375V24.375C9.375 24.8934 9.795 25.3125 10.3125 25.3125H15C15.5166 25.3125 15.9375 25.7325 15.9375 26.25V29.0625H8.4375C6.88688 29.0625 5.625 27.8006 5.625 26.25ZM24.375 29.0625V24.7631L25.7475 26.1366C26.4225 26.8106 27.2531 27.2325 28.125 27.4088V29.0625H24.375ZM35.625 32.8125H3.75V30.9375H35.625V32.8125ZM56.25 32.8125H37.5V30C37.5 29.4816 37.08 29.0625 36.5625 29.0625H30V27.4088C30.8719 27.2325 31.7025 26.8106 32.3775 26.1366L39.1003 19.4128C39.4669 19.0463 39.4669 18.4537 39.1003 18.0872L36.9506 15.9375L41.9128 10.9753L40.5872 9.64969L35.625 14.6119L35.3503 14.3372C34.9837 13.9706 34.3913 13.9706 34.0247 14.3372L30 18.3619V3.75H56.25V32.8125Z" fill="white"/>
<path d="M41.2501 7.61063L46.456 10.2131C46.5873 10.2797 46.7316 10.3125 46.8751 10.3125C47.0185 10.3125 47.1629 10.2797 47.2941 10.2141L52.9191 7.40157L52.0801 5.72438L46.8751 8.32688L41.6691 5.72438C41.4057 5.5922 41.0945 5.5922 40.8301 5.72438L35.2051 8.53688L36.0441 10.2141L41.2501 7.61063Z" fill="white"/>
<path d="M42.1875 15.9375H53.4375V17.8125H42.1875V15.9375Z" fill="white"/>
<path d="M42.1875 19.6875H53.4375V21.5625H42.1875V19.6875Z" fill="white"/>
<path d="M42.1875 23.4375H53.4375V25.3125H42.1875V23.4375Z" fill="white"/>
<path d="M42.1875 27.1875H53.4375V29.0625H42.1875V27.1875Z" fill="white"/>
<path d="M4.6875 51.5625V57.1875C4.6875 57.7059 5.1075 58.125 5.625 58.125H15C15.5175 58.125 15.9375 57.7059 15.9375 57.1875V51.5625C15.9375 49.53 14.8509 47.7516 13.2309 46.7634C14.3006 45.9038 15 44.6006 15 43.125C15 40.5403 12.8972 38.4375 10.3125 38.4375C7.72781 38.4375 5.625 40.5403 5.625 43.125C5.625 44.6006 6.32438 45.9038 7.39406 46.7634C5.77406 47.7516 4.6875 49.53 4.6875 51.5625ZM7.5 43.125C7.5 41.5744 8.76188 40.3125 10.3125 40.3125C11.8631 40.3125 13.125 41.5744 13.125 43.125C13.125 44.6756 11.8631 45.9375 10.3125 45.9375C8.76188 45.9375 7.5 44.6756 7.5 43.125ZM6.5625 51.5625C6.5625 49.4944 8.24437 47.8125 10.3125 47.8125C12.3806 47.8125 14.0625 49.4944 14.0625 51.5625V56.25H6.5625V51.5625Z" fill="white"/>
<path d="M17.8125 51.5625V57.1875C17.8125 57.7059 18.2325 58.125 18.75 58.125H28.125C28.6425 58.125 29.0625 57.7059 29.0625 57.1875V51.5625C29.0625 49.53 27.9759 47.7516 26.3559 46.7634C27.4256 45.9038 28.125 44.6006 28.125 43.125C28.125 40.5403 26.0222 38.4375 23.4375 38.4375C20.8528 38.4375 18.75 40.5403 18.75 43.125C18.75 44.6006 19.4494 45.9038 20.5191 46.7634C18.8991 47.7516 17.8125 49.53 17.8125 51.5625ZM20.625 43.125C20.625 41.5744 21.8869 40.3125 23.4375 40.3125C24.9881 40.3125 26.25 41.5744 26.25 43.125C26.25 44.6756 24.9881 45.9375 23.4375 45.9375C21.8869 45.9375 20.625 44.6756 20.625 43.125ZM19.6875 51.5625C19.6875 49.4944 21.3694 47.8125 23.4375 47.8125C25.5056 47.8125 27.1875 49.4944 27.1875 51.5625V56.25H19.6875V51.5625Z" fill="white"/>
<path d="M30.9375 51.5625V57.1875C30.9375 57.7059 31.3575 58.125 31.875 58.125H41.25C41.7675 58.125 42.1875 57.7059 42.1875 57.1875V51.5625C42.1875 49.53 41.1009 47.7516 39.4809 46.7634C40.5506 45.9038 41.25 44.6006 41.25 43.125C41.25 40.5403 39.1472 38.4375 36.5625 38.4375C33.9778 38.4375 31.875 40.5403 31.875 43.125C31.875 44.6006 32.5744 45.9038 33.6441 46.7634C32.0241 47.7516 30.9375 49.53 30.9375 51.5625ZM33.75 43.125C33.75 41.5744 35.0119 40.3125 36.5625 40.3125C38.1131 40.3125 39.375 41.5744 39.375 43.125C39.375 44.6756 38.1131 45.9375 36.5625 45.9375C35.0119 45.9375 33.75 44.6756 33.75 43.125ZM32.8125 51.5625C32.8125 49.4944 34.4944 47.8125 36.5625 47.8125C38.6306 47.8125 40.3125 49.4944 40.3125 51.5625V56.25H32.8125V51.5625Z" fill="white"/>
<path d="M44.0625 51.5625V57.1875C44.0625 57.7059 44.4825 58.125 45 58.125H54.375C54.8925 58.125 55.3125 57.7059 55.3125 57.1875V51.5625C55.3125 49.53 54.2259 47.7516 52.6059 46.7634C53.6756 45.9038 54.375 44.6006 54.375 43.125C54.375 40.5403 52.2722 38.4375 49.6875 38.4375C47.1028 38.4375 45 40.5403 45 43.125C45 44.6006 45.6994 45.9038 46.7691 46.7634C45.1491 47.7516 44.0625 49.53 44.0625 51.5625ZM46.875 43.125C46.875 41.5744 48.1369 40.3125 49.6875 40.3125C51.2381 40.3125 52.5 41.5744 52.5 43.125C52.5 44.6756 51.2381 45.9375 49.6875 45.9375C48.1369 45.9375 46.875 44.6756 46.875 43.125ZM45.9375 51.5625C45.9375 49.4944 47.6194 47.8125 49.6875 47.8125C51.7556 47.8125 53.4375 49.4944 53.4375 51.5625V56.25H45.9375V51.5625Z" fill="white"/>
</svg>
