<svg width="70" height="70" viewBox="0 0 70 70" fill="none" xmlns="http://www.w3.org/2000/svg">
<path d="M60.3099 48.0202C60.2924 48.0159 60.2748 48.0118 60.257 48.0084L48.2299 45.6042V39.9101C50.4999 38.1078 51.8584 35.3518 51.8584 32.3931V23.2598C53.0502 22.7013 54.1164 22.0778 55.0313 21.3946C55.4228 21.1022 55.5829 20.5921 55.429 20.1286C55.2751 19.665 54.8415 19.3521 54.353 19.3521H54.2429C53.9476 14.3539 51.7152 9.78322 48.2299 6.47961V5.97192C48.2299 5.34555 47.7223 4.83801 47.096 4.83801C46.8728 4.83801 46.6652 4.90348 46.4898 5.01475C44.4972 3.52767 42.2006 2.4122 39.6933 1.78508C39.4419 0.761987 38.5194 0 37.4199 0H32.5819C31.4825 0 30.5601 0.761987 30.3085 1.78508C27.8012 2.41235 25.5047 3.52767 23.512 5.01475C23.3366 4.90348 23.129 4.83801 22.9059 4.83801C22.2795 4.83801 21.772 5.34555 21.772 5.97192V6.47961C18.2866 9.78322 16.0542 14.3539 15.7589 19.3521H15.6489C15.1604 19.3521 14.7268 19.6649 14.5729 20.1286C14.419 20.5922 14.5791 21.1022 14.9705 21.3946C15.8855 22.0778 16.9518 22.7013 18.1435 23.2598V32.3931C18.1435 35.3518 19.5019 38.1078 21.772 39.9101V45.6042L9.74467 48.0084C9.72698 48.0118 9.70945 48.0159 9.69176 48.0202C5.41027 49.0906 2.41992 52.9206 2.41992 57.3341V66.4471C2.41992 68.4062 4.01374 70 5.97284 70H64.029C65.9881 70 67.5819 68.4062 67.5819 66.4471V57.3341C67.5819 52.9206 64.5916 49.0906 60.3099 48.0202ZM54.4286 67.7322H15.5733V61.6091C15.5733 60.2336 16.6924 59.1145 18.0679 59.1145H51.934C53.3095 59.1145 54.4286 60.2336 54.4286 61.6091V67.7322ZM29.9162 44.5137C31.4708 45.3617 33.2288 45.8099 35.0009 45.8099C35.0011 45.8099 35.0012 45.8099 35.0014 45.8099C35.0015 45.8099 35.0017 45.8099 35.0018 45.8099C36.7728 45.8099 38.5309 45.3617 40.0855 44.5137L45.962 41.3083V45.8855C45.962 48.7102 43.0914 52.0086 35.0009 52.0086C26.9104 52.0086 24.0398 48.7102 24.0398 45.8855V41.3083L29.9162 44.5137ZM24.0398 56.8467V50.9686C26.2972 53.0617 30.1239 54.2765 35.0009 54.2765C39.8779 54.2765 43.7047 53.0617 45.962 50.9686V56.8467H24.0398ZM21.772 56.8467H19.2018V48.4305L21.772 47.9167V56.8467ZM50.8001 56.8467H48.2299V47.9167L50.8001 48.4305V56.8467ZM35.0009 24.1901C29.5232 24.1901 24.3286 23.2955 20.4113 21.7578V21.6199H49.5905V21.7578C45.6733 23.2955 40.4786 24.1901 35.0009 24.1901ZM24.0398 7.49287C25.8197 5.98447 27.9184 4.83 30.2385 4.15449V19.3521H24.0398V7.49287ZM39.7633 4.15449C42.0835 4.83 44.1821 5.98447 45.962 7.49287V19.3521H39.7633V4.15449ZM51.9675 19.3521H48.2299V9.81542C50.3779 12.4812 51.7288 15.7907 51.9675 19.3521ZM32.5819 2.26782H37.4199C37.4615 2.26782 37.4955 2.30184 37.4955 2.34341V2.70883C37.4955 2.70899 37.4955 2.70929 37.4955 2.70959V19.3521H32.5063V2.34341C32.5063 2.30184 32.5403 2.26782 32.5819 2.26782ZM21.772 9.81542V19.3521H18.0343C18.273 15.7907 19.6239 12.4812 21.772 9.81542ZM20.4113 32.3931V24.1904C22.2804 24.8598 24.3695 25.3926 26.61 25.7738V27.743C26.61 28.3694 27.1175 28.8769 27.7439 28.8769C28.3703 28.8769 28.8778 28.3694 28.8778 27.743V26.1012C30.8404 26.3353 32.8943 26.4579 35.0009 26.4579C37.1076 26.4579 39.1615 26.3353 41.124 26.1012V27.743C41.124 28.3694 41.6316 28.8769 42.2579 28.8769C42.8843 28.8769 43.3918 28.3694 43.3918 27.743V25.7738C45.6323 25.3926 47.7214 24.86 49.5905 24.1904V32.3931C49.5905 35.078 48.1261 37.5446 45.7691 38.8303L38.9997 42.5228C37.777 43.1897 36.3947 43.5421 35.0009 43.5421C35.0008 43.5421 35.0006 43.5421 35.0005 43.5421C35.0003 43.5421 35.0002 43.5421 35 43.5421C33.6073 43.5421 32.225 43.1897 31.0024 42.5228L24.233 38.8303C21.8757 37.5446 20.4113 35.078 20.4113 32.3931ZM4.68774 66.4471V57.3341C4.68774 53.9718 6.95979 51.053 10.2165 50.2267L16.934 48.8839V56.9841C14.8538 57.4942 13.3055 59.3738 13.3055 61.6091V67.7322H5.97284C5.26422 67.7322 4.68774 67.1557 4.68774 66.4471ZM65.3141 66.4471C65.3141 67.1557 64.7376 67.7322 64.029 67.7322H56.6964V61.6091C56.6964 59.3738 55.1481 57.4943 53.0679 56.9841V48.8839L59.7853 50.2267C63.042 51.053 65.3141 53.9718 65.3141 57.3341V66.4471Z" fill="#33CC66"/>
<path d="M29.5253 37.1136C30.8695 38.0283 32.8653 38.5529 35.0013 38.5529C37.1375 38.5529 39.1333 38.0283 40.4774 37.1136C40.995 36.7613 41.1293 36.056 40.7767 35.5382C40.4244 35.0204 39.7192 34.8866 39.2013 35.2389C38.2387 35.894 36.6686 36.2851 35.0013 36.2851C33.3342 36.2851 31.7641 35.894 30.8013 35.2389C30.2838 34.8868 29.5784 35.0206 29.226 35.5382C28.8735 36.0559 29.0076 36.7613 29.5253 37.1136Z" fill="#33CC66"/>
</svg>
