<?xml version="1.0" encoding="utf-8"?><svg viewBox="0 0 239 47" xmlns="http://www.w3.org/2000/svg" xmlns:xlink="http://www.w3.org/1999/xlink"><style>:root>svg{display:none}:root>svg:target{display:block}</style><svg fill="none" viewBox="0 0 239 47" id="autocrm" xmlns="http://www.w3.org/2000/svg"><path d="M37.307 30c.7 0 1.1.9 1.1 2.8 0 1-.4 2.2-1.3 3.6s-1.9 2.7-3.3 3.9c-1.3 1.2-2.8 2.2-4.5 2.9-1.6.8-3.2 1.1-4.8 1.1-2.1 0-3.5-1.9-4.3-5.6-1 1.7-2.4 3.1-4.1 4.2-1.7 1.1-3.9 1.7-6.8 1.7-2.8 0-5.1-.9-6.8-2.6-1.7-1.8-2.6-3.9-2.5-6.4 0-6.8 2.3-12.2 6.8-16.1 1.9-1.6 3.7-2.7 5.4-3.2 1.7-.5 3.4-.8 5.3-.8 1.8 0 3.3.3 4.5 1 .6-1.2 1.2-1.7 1.9-1.7 1.4 0 2.7.6 4 1.8 1.3 1.2 1.9 2.4 1.9 3.4-.6 1.3-1.4 2.9-2.5 4.7-.3 1.8-.5 4.4-.5 7.7s.4 5 1.3 5c1 0 3.6-2.1 7.6-6.2.7-.8 1.3-1.2 1.6-1.2zm-28.3 3.6c0 3.1 1.1 4.6 3.4 4.6 2.4 0 4.5-1.3 6.1-3.9.6-.9 1-2 1.4-3.2 0-4.5.4-8.3 1.2-11.5-3.2.6-6.1 2.2-8.5 4.7-2.4 2.5-3.6 5.6-3.6 9.3z" fill="#fff"/><path d="M63.708 26c0-1.3-.8-2-2.3-2-1 0-2.2 1-3.5 3-1.3 2-2.2 4.2-2.8 6.5v.1c0 1.4.2 2.8.6 4.2.4 1.4.6 2.4.6 3 0 1.4-1.7 2.7-5.1 4-.5.2-1 .3-1.4.3-1 0-1.7-.5-2.1-1.6-.4-1-.6-2.4-.6-4.2 0-1.8 0-3.5.2-5 .1-1.6.2-3 .3-4.4.1-1.3.2-2.5.3-3.5.1-1 .2-1.8.2-2.5 0-1.4-.6-2-1.9-2-1.2 0-2.7 1.5-4.3 4.3-1.6 2.9-2.5 5.2-2.5 6.9 0 1.7.2 3.3.6 4.7.4 1.4.6 2.4.6 3 0 1.4-1.7 2.7-5.1 4-.5.2-1 .3-1.4.3-1 0-1.7-.5-2.1-1.6-.4-1-.6-2.6-.6-4.8 0-5.7.2-9.8.7-12.3.6-3.7 2-7.2 4.1-10.6.7-1.1 1.5-1.7 2.3-1.7 1.3 0 2.5 1.1 3.7 3.2.3.6.6 1.1.7 1.6 1.9-2.4 4.2-3.6 6.8-3.6 1.7 0 3.3.6 4.6 1.7 1.4 1.1 2 2.6 2 4.3v.7c2.4-3 5.4-4.6 8.9-4.6 2.2 0 3.8.6 4.9 1.7 1.1 1.1 1.7 2.5 1.7 4.1 0 1.6-.1 3.1-.4 4.4-.2 1.3-.5 2.6-.8 3.7-.3 1.2-.6 2.2-.8 3.1-.2.9-.4 1.6-.4 2.1s.2.8.5.8c.6 0 1.3-.4 2.2-1.1.9-.8 1.8-1.6 2.6-2.5.9-.9 1.7-1.7 2.4-2.5s1.3-1.1 1.5-1.1c.6 0 .8.7.8 2 0 2.8-1.4 5.5-4.2 8.2-2.8 2.6-5.8 4-9 4-2.9 0-4.3-2.6-4.3-7.9 0-1.3.2-3.1.7-5.5.9-2.2 1.1-3.9 1.1-4.9z" fill="#fff"/><path d="M96.707 39.1c-3.2 3.7-7 5.6-11.4 5.6s-7.7-1.1-9.9-3.4-3.3-5.1-3.2-8.4c0-4.8 1.5-8.9 4.5-12.3 3-3.4 7-5.2 11.9-5.2 2.2 0 4 .3 5.4.8 2.4 1 3.5 1.9 3.5 2.7 0 .6-1.7 1-4.9 1-3.3 0-6.1 1.2-8.3 3.4-2.2 2.3-3.3 5.1-3.3 8.6 0 1.8.5 3.3 1.6 4.5 1.1 1.2 2.6 1.8 4.5 1.8s3.5-.4 4.8-1.2c-2.8-1.9-4.3-4.7-4.3-8.3 0-1.9.7-3.7 2.1-5.2 1.4-1.6 3.2-2.4 5.5-2.4 2.2 0 3.8.6 4.8 1.8 1 1.2 1.4 2.8 1.4 4.8 0 1.9-.5 4-1.4 6.2h.4c1.8 0 3.3-.7 4.6-1.9.5-.5.9-.9 1.2-1.3.3-.4.7-.5 1-.5.6 0 .8.7.8 2 0 2.4-.7 4.3-2.2 5.5-1.4 1.2-3 1.8-4.8 1.8-1.6 0-3.1-.2-4.3-.4zm-.5-7c.7-1.4 1-2.8 1-4.2 0-1.4-.4-2-1.3-2-.4 0-.7.3-.9.8-.2.5-.4 1-.4 1.5 0 1.6.6 2.9 1.6 3.9z" fill="#fff"/><path d="M238.707 38.7c0 3.3-2.7 6-6 6s-6-2.7-6-6 2.7-6 6-6 6 2.7 6 6zM170.807 31.1c.7 0 1 .9 1 2.8 0 1-.4 2.2-1.3 3.6-.8 1.4-1.9 2.7-3.3 3.9-1.3 1.2-2.8 2.2-4.5 2.9-1.6.8-3.2 1.1-4.7 1.1s-2.6-.3-3.5-.8c-.8-.6-1.5-1.3-2-2.3-.7-1.4-1.2-4-1.7-7.8-.4-3.8-.9-6.5-1.3-8-1-.2-2-.6-2.7-1.2-.8-.6-1.2-1.4-1.2-2.3 0-.9.4-1.6 1.2-2 .8-.4 1.8-.6 2.8-.6 1.1 0 2 .3 2.8.8 1.1-.9 2-2 2.7-3.3.7-1.3 1-3 1-5.1 0-2.1-.7-3.8-2.2-5.1-1.4-1.3-3.5-1.9-6.3-1.9s-4.9.2-6.4.7c-1.5.4-2.8.9-3.8 1.4-1.1.5-2 1-2.8 1.4-.8.4-1.6.7-2.3.7-.7 0-1.1-.2-1.1-.7 0-.5.4-1.2 1.1-2.3.8-1 1.9-2.1 3.4-3.1 3.7-2.6 7.9-3.9 12.6-3.9 4.7 0 8.5.9 11.6 2.7 3.6 2.1 5.3 5.2 5.3 9.4 0 3.4-.9 6.3-2.7 8.6-1.8 2.3-4.1 3.9-6.8 4.9.6 1.3 1.1 2.7 1.5 4.3.4 1.5.8 2.9 1.1 4.2.4 1.3.8 2.3 1.2 3.2.5.8 1 1.3 1.7 1.3s1.5-.4 2.4-1.2c.9-.8 1.9-1.6 2.8-2.5.9-.9 1.8-1.8 2.5-2.6 1-.8 1.5-1.2 1.9-1.2zm-26.1-21.6c.5 0 .8.7.8 2 0 1.4-.1 2.6-.2 3.8-.4 2.3-.8 4.5-1.4 6.5-1.4 5.4-2.2 8.6-2.2 9.5v8.8c0 2.2-.8 3.6-2.5 4.4-.8.4-1.5.7-2.2 1-.7.3-1.5.5-2.4.5-1.7 0-2.5-1.9-2.5-5.8s.9-8.7 2.7-14.6c1.8-5.9 3.7-10.4 5.6-13.4.4-.6 1-1.2 1.7-1.9.9-.5 1.7-.8 2.6-.8z" fill="#C7EAF2"/><path d="M222.407 31.1c.7 0 1 .9 1 2.8 0 1-.4 2.2-1.3 3.6-.8 1.4-1.9 2.7-3.3 3.9-1.3 1.2-2.8 2.2-4.5 2.9-1.6.8-3.4 1.1-5.2 1.1-1.8 0-3.2-.6-4.3-1.8-1-1.2-1.5-2.5-1.5-4s.2-3.1.7-4.9c.5-1.8 1-3.8 1.6-5.8 1.5-5.3 2.3-9.1 2.3-11.2 0-.9-.1-1.6-.4-2.1-.2-.5-.7-.8-1.4-.8-1.2 0-2.5.7-3.8 2.2-1.4 1.4-2.6 3.3-3.8 5.5-2.8 5.1-4.2 10.1-4.4 15 .1.6.2 1.1.2 1.7.1.6.1 1.2.1 1.8 0 1.3-.6 2.5-1.9 3.5-1.3 1.1-2.7 1.6-4.2 1.6-.9 0-1.6-.5-2-1.4-.4-.9-.7-2-.7-3.3 0-1.3.3-3.1.9-5.4.6-2.3 1.3-4.7 2-7.3 1.9-6.8 2.9-11.8 2.9-15.1 0-1.7-.2-3-.6-4-.4-1-1.2-1.4-2.4-1.4-2.2 0-4.3 1.5-6.4 4.6-2.1 3.1-4 7.9-5.7 14.3-.4 1.7-.8 3.1-1 4.4l-.1 1.1c.8 3.7 1.1 6.1 1.1 7.2 0 2.3-.8 3.9-2.5 4.7-.8.4-1.5.7-2.2 1-.7.3-1.4.5-2.3.5-2 0-3-1.9-3-5.7 0-3.8 1.1-11.3 3.2-22.4.8-4 1.1-6.2 1.1-6.7 0-3.2-.8-4.9-2.5-4.9-.6 0-1.1.2-1.5.5-.5.3-.9.7-1.4 1-.5.4-.9.7-1.4 1-.5.3-1 .5-1.7.5-.6 0-.9-.5-.9-1.6 0-2.2 1-4 3.1-5.4 2-1.4 4.3-2.2 7.1-2.2 3.6 0 5.7 1.7 6.4 5 .2 1 .3 2.1.4 3.2 3-5.6 6.7-8.3 11.2-8.3 4.9 0 7.7 2.4 8.5 7.1.2 1.4.3 2.8.3 4.4v.5c2.6-3.6 5.7-5.4 9.2-5.4 5 0 7.6 3 7.6 9.1 0 2.6-.4 5.7-1.2 9.3-.8 3.5-1.4 6.1-1.8 7.6-.4 1.5-.6 2.7-.6 3.6 0 1.5.5 2.3 1.6 2.3s3.6-2.1 7.6-6.2c1-.8 1.5-1.2 1.8-1.2zM137.007 23.1c1 0 1.5 1 1.5 2.9s-.4 4-1.3 6.2-2.2 4.3-4 6.4c-1.8 2.1-4 3.8-6.8 5.3s-6 2.2-9.7 2.2c-3.7 0-7-1.2-9.8-3.7-2.8-2.5-4.2-6.1-4.2-10.8 0-4.7.7-9 2-12.8 1.3-3.8 3.1-7.1 5.2-9.9 2.2-2.8 4.6-4.9 7.4-6.5 2.8-1.5 5.4-2.3 7.8-2.3 4.3 0 6.5 1.9 6.5 5.8 0 2.2-.4 4-1.2 5.3-.8 1.3-1.6 2-2.5 2-1.1 0-2.1-.4-2.9-1.3-.8-.9-1.8-1.3-2.8-1.4-1 0-3.8-.1-6.1 3.6-1.6 2.6-1.4 2.4-2 4.1-1.2 3.5-2 6.3-2 11 .1 2.3 2.1 5.8 3.9 6.9 1.2.8 2.7 1.4 4.4 1.2 3.6-.5 5.6-2.2 7.1-3.7 1.4-1.5 2.6-2.8 3.9-4.3 1.3-1.5 2.4-2.9 3.4-4.1.9-1.4 1.7-2.1 2.2-2.1z" fill="#C7EAF2"/></svg><svg fill="none" viewBox="0 0 17 17" id="whatsapp" xmlns="http://www.w3.org/2000/svg"><path d="M14.341 2.65A8.343 8.343 0 008.43.2C3.805.2.06 3.933.06 8.542c0 1.458.41 2.916 1.112 4.141L0 17l4.449-1.167a8.558 8.558 0 003.98.992c4.625 0 8.371-3.733 8.371-8.342-.059-2.158-.878-4.258-2.459-5.833zm-1.873 8.867c-.175.466-.995.933-1.405.991-.35.059-.82.059-1.287-.058-.293-.117-.703-.233-1.171-.467-2.107-.875-3.454-2.975-3.57-3.15-.118-.116-.879-1.108-.879-2.158 0-1.05.527-1.517.703-1.75.175-.233.41-.233.585-.233h.41c.117 0 .292-.059.468.35.176.408.585 1.458.644 1.516a.37.37 0 010 .35 1.22 1.22 0 01-.234.35c-.117.117-.234.292-.293.35-.117.117-.234.234-.117.409.117.233.527.875 1.17 1.458.82.7 1.464.933 1.698 1.05.234.117.351.058.469-.058.117-.117.526-.584.643-.817.117-.233.293-.175.469-.117.175.059 1.229.584 1.405.7.234.117.35.175.41.234.058.175.058.583-.118 1.05z" fill="#282C30"/></svg></svg>